<?xml version="1.0" encoding="utf-8" standalone="no"?>
<!DOCTYPE svg PUBLIC "-//W3C//DTD SVG 1.1//EN"
  "http://www.w3.org/Graphics/SVG/1.1/DTD/svg11.dtd">
<svg xmlns:xlink="http://www.w3.org/1999/xlink" width="720pt" height="360pt" viewBox="0 0 720 360" xmlns="http://www.w3.org/2000/svg" version="1.1">
 <metadata>
  <rdf:RDF xmlns:dc="http://purl.org/dc/elements/1.1/" xmlns:cc="http://creativecommons.org/ns#" xmlns:rdf="http://www.w3.org/1999/02/22-rdf-syntax-ns#">
   <cc:Work>
    <dc:type rdf:resource="http://purl.org/dc/dcmitype/StillImage"/>
    <dc:date>2024-03-15T10:24:26.116624</dc:date>
    <dc:format>image/svg+xml</dc:format>
    <dc:creator>
     <cc:Agent>
      <dc:title>Matplotlib v3.8.2, https://matplotlib.org/</dc:title>
     </cc:Agent>
    </dc:creator>
   </cc:Work>
  </rdf:RDF>
 </metadata>
 <defs>
  <style type="text/css">*{stroke-linejoin: round; stroke-linecap: butt}</style>
 </defs>
 <g id="figure_1">
  <g id="patch_1">
   <path d="M 0 360 
L 720 360 
L 720 0 
L 0 0 
z
" style="fill: #ffffff"/>
  </g>
  <g id="axes_1">
   <g id="patch_2">
    <path d="M 57.6 175.745455 
L 342.327273 175.745455 
L 342.327273 43.2 
L 57.6 43.2 
z
" style="fill: #ffffff"/>
   </g>
   <g id="matplotlib.axis_1">
    <g id="xtick_1">
     <g id="line2d_1">
      <path d="M 70.542149 175.745455 
L 70.542149 43.2 
" clip-path="url(#p391d18a292)" style="fill: none; stroke: #cbcbcb; stroke-width: 0.5"/>
     </g>
     <g id="line2d_2">
      <defs>
       <path id="mc9f49ea240" d="M 0 0 
L 0 5 
" style="stroke: #000000; stroke-width: 0.8"/>
      </defs>
      <g>
       <use xlink:href="#mc9f49ea240" x="70.542149" y="175.745455" style="stroke: #000000; stroke-width: 0.8"/>
      </g>
     </g>
    </g>
    <g id="xtick_2">
     <g id="line2d_3">
      <path d="M 122.310744 175.745455 
L 122.310744 43.2 
" clip-path="url(#p391d18a292)" style="fill: none; stroke: #cbcbcb; stroke-width: 0.5"/>
     </g>
     <g id="line2d_4">
      <g>
       <use xlink:href="#mc9f49ea240" x="122.310744" y="175.745455" style="stroke: #000000; stroke-width: 0.8"/>
      </g>
     </g>
    </g>
    <g id="xtick_3">
     <g id="line2d_5">
      <path d="M 174.079339 175.745455 
L 174.079339 43.2 
" clip-path="url(#p391d18a292)" style="fill: none; stroke: #cbcbcb; stroke-width: 0.5"/>
     </g>
     <g id="line2d_6">
      <g>
       <use xlink:href="#mc9f49ea240" x="174.079339" y="175.745455" style="stroke: #000000; stroke-width: 0.8"/>
      </g>
     </g>
    </g>
    <g id="xtick_4">
     <g id="line2d_7">
      <path d="M 225.847934 175.745455 
L 225.847934 43.2 
" clip-path="url(#p391d18a292)" style="fill: none; stroke: #cbcbcb; stroke-width: 0.5"/>
     </g>
     <g id="line2d_8">
      <g>
       <use xlink:href="#mc9f49ea240" x="225.847934" y="175.745455" style="stroke: #000000; stroke-width: 0.8"/>
      </g>
     </g>
    </g>
    <g id="xtick_5">
     <g id="line2d_9">
      <path d="M 277.616529 175.745455 
L 277.616529 43.2 
" clip-path="url(#p391d18a292)" style="fill: none; stroke: #cbcbcb; stroke-width: 0.5"/>
     </g>
     <g id="line2d_10">
      <g>
       <use xlink:href="#mc9f49ea240" x="277.616529" y="175.745455" style="stroke: #000000; stroke-width: 0.8"/>
      </g>
     </g>
    </g>
    <g id="xtick_6">
     <g id="line2d_11">
      <path d="M 329.385124 175.745455 
L 329.385124 43.2 
" clip-path="url(#p391d18a292)" style="fill: none; stroke: #cbcbcb; stroke-width: 0.5"/>
     </g>
     <g id="line2d_12">
      <g>
       <use xlink:href="#mc9f49ea240" x="329.385124" y="175.745455" style="stroke: #000000; stroke-width: 0.8"/>
      </g>
     </g>
    </g>
   </g>
   <g id="matplotlib.axis_2">
    <g id="ytick_1">
     <g id="line2d_13">
      <path d="M 57.6 168.004744 
L 342.327273 168.004744 
" clip-path="url(#p391d18a292)" style="fill: none; stroke: #cbcbcb; stroke-width: 0.5"/>
     </g>
     <g id="line2d_14">
      <defs>
       <path id="m2b93ea6810" d="M 0 0 
L -5 0 
" style="stroke: #000000; stroke-width: 0.8"/>
      </defs>
      <g>
       <use xlink:href="#m2b93ea6810" x="57.6" y="168.004744" style="stroke: #000000; stroke-width: 0.8"/>
      </g>
     </g>
     <g id="text_1">
      <!-- 0 -->
      <g transform="translate(41.465 172.563806) scale(0.12 -0.12)">
       <defs>
        <path id="DejaVuSans-30" d="M 2034 4250 
Q 1547 4250 1301 3770 
Q 1056 3291 1056 2328 
Q 1056 1369 1301 889 
Q 1547 409 2034 409 
Q 2525 409 2770 889 
Q 3016 1369 3016 2328 
Q 3016 3291 2770 3770 
Q 2525 4250 2034 4250 
z
M 2034 4750 
Q 2819 4750 3233 4129 
Q 3647 3509 3647 2328 
Q 3647 1150 3233 529 
Q 2819 -91 2034 -91 
Q 1250 -91 836 529 
Q 422 1150 422 2328 
Q 422 3509 836 4129 
Q 1250 4750 2034 4750 
z
" transform="scale(0.015625)"/>
       </defs>
       <use xlink:href="#DejaVuSans-30"/>
      </g>
     </g>
    </g>
    <g id="ytick_2">
     <g id="line2d_15">
      <path d="M 57.6 128.046598 
L 342.327273 128.046598 
" clip-path="url(#p391d18a292)" style="fill: none; stroke: #cbcbcb; stroke-width: 0.5"/>
     </g>
     <g id="line2d_16">
      <g>
       <use xlink:href="#m2b93ea6810" x="57.6" y="128.046598" style="stroke: #000000; stroke-width: 0.8"/>
      </g>
     </g>
     <g id="text_2">
      <!-- 20 -->
      <g transform="translate(33.83 132.60566) scale(0.12 -0.12)">
       <defs>
        <path id="DejaVuSans-32" d="M 1228 531 
L 3431 531 
L 3431 0 
L 469 0 
L 469 531 
Q 828 903 1448 1529 
Q 2069 2156 2228 2338 
Q 2531 2678 2651 2914 
Q 2772 3150 2772 3378 
Q 2772 3750 2511 3984 
Q 2250 4219 1831 4219 
Q 1534 4219 1204 4116 
Q 875 4013 500 3803 
L 500 4441 
Q 881 4594 1212 4672 
Q 1544 4750 1819 4750 
Q 2544 4750 2975 4387 
Q 3406 4025 3406 3419 
Q 3406 3131 3298 2873 
Q 3191 2616 2906 2266 
Q 2828 2175 2409 1742 
Q 1991 1309 1228 531 
z
" transform="scale(0.015625)"/>
       </defs>
       <use xlink:href="#DejaVuSans-32"/>
       <use xlink:href="#DejaVuSans-30" x="63.623047"/>
      </g>
     </g>
    </g>
    <g id="ytick_3">
     <g id="line2d_17">
      <path d="M 57.6 88.088451 
L 342.327273 88.088451 
" clip-path="url(#p391d18a292)" style="fill: none; stroke: #cbcbcb; stroke-width: 0.5"/>
     </g>
     <g id="line2d_18">
      <g>
       <use xlink:href="#m2b93ea6810" x="57.6" y="88.088451" style="stroke: #000000; stroke-width: 0.8"/>
      </g>
     </g>
     <g id="text_3">
      <!-- 40 -->
      <g transform="translate(33.83 92.647514) scale(0.12 -0.12)">
       <defs>
        <path id="DejaVuSans-34" d="M 2419 4116 
L 825 1625 
L 2419 1625 
L 2419 4116 
z
M 2253 4666 
L 3047 4666 
L 3047 1625 
L 3713 1625 
L 3713 1100 
L 3047 1100 
L 3047 0 
L 2419 0 
L 2419 1100 
L 313 1100 
L 313 1709 
L 2253 4666 
z
" transform="scale(0.015625)"/>
       </defs>
       <use xlink:href="#DejaVuSans-34"/>
       <use xlink:href="#DejaVuSans-30" x="63.623047"/>
      </g>
     </g>
    </g>
    <g id="ytick_4">
     <g id="line2d_19">
      <path d="M 57.6 48.130305 
L 342.327273 48.130305 
" clip-path="url(#p391d18a292)" style="fill: none; stroke: #cbcbcb; stroke-width: 0.5"/>
     </g>
     <g id="line2d_20">
      <g>
       <use xlink:href="#m2b93ea6810" x="57.6" y="48.130305" style="stroke: #000000; stroke-width: 0.8"/>
      </g>
     </g>
     <g id="text_4">
      <!-- 60 -->
      <g transform="translate(33.83 52.689368) scale(0.12 -0.12)">
       <defs>
        <path id="DejaVuSans-36" d="M 2113 2584 
Q 1688 2584 1439 2293 
Q 1191 2003 1191 1497 
Q 1191 994 1439 701 
Q 1688 409 2113 409 
Q 2538 409 2786 701 
Q 3034 994 3034 1497 
Q 3034 2003 2786 2293 
Q 2538 2584 2113 2584 
z
M 3366 4563 
L 3366 3988 
Q 3128 4100 2886 4159 
Q 2644 4219 2406 4219 
Q 1781 4219 1451 3797 
Q 1122 3375 1075 2522 
Q 1259 2794 1537 2939 
Q 1816 3084 2150 3084 
Q 2853 3084 3261 2657 
Q 3669 2231 3669 1497 
Q 3669 778 3244 343 
Q 2819 -91 2113 -91 
Q 1303 -91 875 529 
Q 447 1150 447 2328 
Q 447 3434 972 4092 
Q 1497 4750 2381 4750 
Q 2619 4750 2861 4703 
Q 3103 4656 3366 4563 
z
" transform="scale(0.015625)"/>
       </defs>
       <use xlink:href="#DejaVuSans-36"/>
       <use xlink:href="#DejaVuSans-30" x="63.623047"/>
      </g>
     </g>
    </g>
    <g id="text_5">
     <!-- Force (N) -->
     <g transform="translate(27.334375 136.777415) rotate(-90) scale(0.12 -0.12)">
      <defs>
       <path id="DejaVuSans-46" d="M 628 4666 
L 3309 4666 
L 3309 4134 
L 1259 4134 
L 1259 2759 
L 3109 2759 
L 3109 2228 
L 1259 2228 
L 1259 0 
L 628 0 
L 628 4666 
z
" transform="scale(0.015625)"/>
       <path id="DejaVuSans-6f" d="M 1959 3097 
Q 1497 3097 1228 2736 
Q 959 2375 959 1747 
Q 959 1119 1226 758 
Q 1494 397 1959 397 
Q 2419 397 2687 759 
Q 2956 1122 2956 1747 
Q 2956 2369 2687 2733 
Q 2419 3097 1959 3097 
z
M 1959 3584 
Q 2709 3584 3137 3096 
Q 3566 2609 3566 1747 
Q 3566 888 3137 398 
Q 2709 -91 1959 -91 
Q 1206 -91 779 398 
Q 353 888 353 1747 
Q 353 2609 779 3096 
Q 1206 3584 1959 3584 
z
" transform="scale(0.015625)"/>
       <path id="DejaVuSans-72" d="M 2631 2963 
Q 2534 3019 2420 3045 
Q 2306 3072 2169 3072 
Q 1681 3072 1420 2755 
Q 1159 2438 1159 1844 
L 1159 0 
L 581 0 
L 581 3500 
L 1159 3500 
L 1159 2956 
Q 1341 3275 1631 3429 
Q 1922 3584 2338 3584 
Q 2397 3584 2469 3576 
Q 2541 3569 2628 3553 
L 2631 2963 
z
" transform="scale(0.015625)"/>
       <path id="DejaVuSans-63" d="M 3122 3366 
L 3122 2828 
Q 2878 2963 2633 3030 
Q 2388 3097 2138 3097 
Q 1578 3097 1268 2742 
Q 959 2388 959 1747 
Q 959 1106 1268 751 
Q 1578 397 2138 397 
Q 2388 397 2633 464 
Q 2878 531 3122 666 
L 3122 134 
Q 2881 22 2623 -34 
Q 2366 -91 2075 -91 
Q 1284 -91 818 406 
Q 353 903 353 1747 
Q 353 2603 823 3093 
Q 1294 3584 2113 3584 
Q 2378 3584 2631 3529 
Q 2884 3475 3122 3366 
z
" transform="scale(0.015625)"/>
       <path id="DejaVuSans-65" d="M 3597 1894 
L 3597 1613 
L 953 1613 
Q 991 1019 1311 708 
Q 1631 397 2203 397 
Q 2534 397 2845 478 
Q 3156 559 3463 722 
L 3463 178 
Q 3153 47 2828 -22 
Q 2503 -91 2169 -91 
Q 1331 -91 842 396 
Q 353 884 353 1716 
Q 353 2575 817 3079 
Q 1281 3584 2069 3584 
Q 2775 3584 3186 3129 
Q 3597 2675 3597 1894 
z
M 3022 2063 
Q 3016 2534 2758 2815 
Q 2500 3097 2075 3097 
Q 1594 3097 1305 2825 
Q 1016 2553 972 2059 
L 3022 2063 
z
" transform="scale(0.015625)"/>
       <path id="DejaVuSans-20" transform="scale(0.015625)"/>
       <path id="DejaVuSans-28" d="M 1984 4856 
Q 1566 4138 1362 3434 
Q 1159 2731 1159 2009 
Q 1159 1288 1364 580 
Q 1569 -128 1984 -844 
L 1484 -844 
Q 1016 -109 783 600 
Q 550 1309 550 2009 
Q 550 2706 781 3412 
Q 1013 4119 1484 4856 
L 1984 4856 
z
" transform="scale(0.015625)"/>
       <path id="DejaVuSans-4e" d="M 628 4666 
L 1478 4666 
L 3547 763 
L 3547 4666 
L 4159 4666 
L 4159 0 
L 3309 0 
L 1241 3903 
L 1241 0 
L 628 0 
L 628 4666 
z
" transform="scale(0.015625)"/>
       <path id="DejaVuSans-29" d="M 513 4856 
L 1013 4856 
Q 1481 4119 1714 3412 
Q 1947 2706 1947 2009 
Q 1947 1309 1714 600 
Q 1481 -109 1013 -844 
L 513 -844 
Q 928 -128 1133 580 
Q 1338 1288 1338 2009 
Q 1338 2731 1133 3434 
Q 928 4138 513 4856 
z
" transform="scale(0.015625)"/>
      </defs>
      <use xlink:href="#DejaVuSans-46"/>
      <use xlink:href="#DejaVuSans-6f" x="53.894531"/>
      <use xlink:href="#DejaVuSans-72" x="115.076172"/>
      <use xlink:href="#DejaVuSans-63" x="153.939453"/>
      <use xlink:href="#DejaVuSans-65" x="208.919922"/>
      <use xlink:href="#DejaVuSans-20" x="270.443359"/>
      <use xlink:href="#DejaVuSans-28" x="302.230469"/>
      <use xlink:href="#DejaVuSans-4e" x="341.244141"/>
      <use xlink:href="#DejaVuSans-29" x="416.048828"/>
     </g>
    </g>
   </g>
   <g id="line2d_21">
    <path d="M 70.542149 168.004744 
L 329.385124 168.004744 
L 329.385124 168.004744 
" clip-path="url(#p391d18a292)" style="fill: none; stroke: #008fd5; stroke-width: 1.5"/>
   </g>
   <g id="line2d_22">
    <path d="M 70.542149 169.720661 
L 71.469901 164.931405 
L 72.397654 162.057851 
L 82.602933 119.506376 
L 89.097201 91.739166 
L 98.374727 80.368751 
L 107.652253 81.535955 
L 116.929779 83.977665 
L 126.207305 85.181725 
L 135.484831 84.927097 
L 144.762357 81.07267 
L 154.039883 75.18472 
L 164.245161 71.919175 
L 172.594935 68.407129 
L 181.872461 57.166487 
L 191.149987 49.224793 
L 200.427513 54.823494 
L 209.705039 71.543552 
L 218.982565 101.996082 
L 230.115596 164.970114 
L 231.043348 168.004744 
L 329.385124 168.004744 
L 329.385124 168.004744 
" clip-path="url(#p391d18a292)" style="fill: none; stroke: #fc4f30; stroke-width: 1.5"/>
   </g>
   <g id="patch_3">
    <path d="M 57.6 175.745455 
L 57.6 43.2 
" style="fill: none; stroke: #000000; stroke-width: 0.4; stroke-linejoin: miter; stroke-linecap: square"/>
   </g>
   <g id="patch_4">
    <path d="M 342.327273 175.745455 
L 342.327273 43.2 
" style="fill: none; stroke: #000000; stroke-width: 0.4; stroke-linejoin: miter; stroke-linecap: square"/>
   </g>
   <g id="patch_5">
    <path d="M 57.6 175.745455 
L 342.327273 175.745455 
" style="fill: none; stroke: #000000; stroke-width: 0.4; stroke-linejoin: miter; stroke-linecap: square"/>
   </g>
   <g id="patch_6">
    <path d="M 57.6 43.2 
L 342.327273 43.2 
" style="fill: none; stroke: #000000; stroke-width: 0.4; stroke-linejoin: miter; stroke-linecap: square"/>
   </g>
   <g id="legend_1">
    <g id="patch_7">
     <path d="M 287.307273 88.0275 
L 333.927273 88.0275 
Q 336.327273 88.0275 336.327273 85.6275 
L 336.327273 51.6 
Q 336.327273 49.2 333.927273 49.2 
L 287.307273 49.2 
Q 284.907273 49.2 284.907273 51.6 
L 284.907273 85.6275 
Q 284.907273 88.0275 287.307273 88.0275 
z
" style="fill: #ffffff; opacity: 0.8; stroke: #000000; stroke-width: 0.5; stroke-linejoin: miter"/>
    </g>
    <g id="line2d_23">
     <path d="M 289.707273 58.918125 
L 301.707273 58.918125 
L 313.707273 58.918125 
" style="fill: none; stroke: #008fd5; stroke-width: 1.5"/>
    </g>
    <g id="text_6">
     <!-- X -->
     <g transform="translate(323.307273 63.118125) scale(0.12 -0.12)">
      <defs>
       <path id="DejaVuSans-58" d="M 403 4666 
L 1081 4666 
L 2241 2931 
L 3406 4666 
L 4084 4666 
L 2584 2425 
L 4184 0 
L 3506 0 
L 2194 1984 
L 872 0 
L 191 0 
L 1856 2491 
L 403 4666 
z
" transform="scale(0.015625)"/>
      </defs>
      <use xlink:href="#DejaVuSans-58"/>
     </g>
    </g>
    <g id="line2d_24">
     <path d="M 289.707273 76.531875 
L 301.707273 76.531875 
L 313.707273 76.531875 
" style="fill: none; stroke: #fc4f30; stroke-width: 1.5"/>
    </g>
    <g id="text_7">
     <!-- Y -->
     <g transform="translate(323.307273 80.731875) scale(0.12 -0.12)">
      <defs>
       <path id="DejaVuSans-59" d="M -13 4666 
L 666 4666 
L 1959 2747 
L 3244 4666 
L 3922 4666 
L 2272 2222 
L 2272 0 
L 1638 0 
L 1638 2222 
L -13 4666 
z
" transform="scale(0.015625)"/>
      </defs>
      <use xlink:href="#DejaVuSans-59"/>
     </g>
    </g>
   </g>
  </g>
  <g id="axes_2">
   <g id="patch_8">
    <path d="M 399.272727 175.745455 
L 684 175.745455 
L 684 43.2 
L 399.272727 43.2 
z
" style="fill: #ffffff"/>
   </g>
   <g id="matplotlib.axis_3">
    <g id="xtick_7">
     <g id="line2d_25">
      <path d="M 412.214876 175.745455 
L 412.214876 43.2 
" clip-path="url(#p56ed6e2379)" style="fill: none; stroke: #cbcbcb; stroke-width: 0.5"/>
     </g>
     <g id="line2d_26">
      <g>
       <use xlink:href="#mc9f49ea240" x="412.214876" y="175.745455" style="stroke: #000000; stroke-width: 0.8"/>
      </g>
     </g>
    </g>
    <g id="xtick_8">
     <g id="line2d_27">
      <path d="M 463.983471 175.745455 
L 463.983471 43.2 
" clip-path="url(#p56ed6e2379)" style="fill: none; stroke: #cbcbcb; stroke-width: 0.5"/>
     </g>
     <g id="line2d_28">
      <g>
       <use xlink:href="#mc9f49ea240" x="463.983471" y="175.745455" style="stroke: #000000; stroke-width: 0.8"/>
      </g>
     </g>
    </g>
    <g id="xtick_9">
     <g id="line2d_29">
      <path d="M 515.752066 175.745455 
L 515.752066 43.2 
" clip-path="url(#p56ed6e2379)" style="fill: none; stroke: #cbcbcb; stroke-width: 0.5"/>
     </g>
     <g id="line2d_30">
      <g>
       <use xlink:href="#mc9f49ea240" x="515.752066" y="175.745455" style="stroke: #000000; stroke-width: 0.8"/>
      </g>
     </g>
    </g>
    <g id="xtick_10">
     <g id="line2d_31">
      <path d="M 567.520661 175.745455 
L 567.520661 43.2 
" clip-path="url(#p56ed6e2379)" style="fill: none; stroke: #cbcbcb; stroke-width: 0.5"/>
     </g>
     <g id="line2d_32">
      <g>
       <use xlink:href="#mc9f49ea240" x="567.520661" y="175.745455" style="stroke: #000000; stroke-width: 0.8"/>
      </g>
     </g>
    </g>
    <g id="xtick_11">
     <g id="line2d_33">
      <path d="M 619.289256 175.745455 
L 619.289256 43.2 
" clip-path="url(#p56ed6e2379)" style="fill: none; stroke: #cbcbcb; stroke-width: 0.5"/>
     </g>
     <g id="line2d_34">
      <g>
       <use xlink:href="#mc9f49ea240" x="619.289256" y="175.745455" style="stroke: #000000; stroke-width: 0.8"/>
      </g>
     </g>
    </g>
    <g id="xtick_12">
     <g id="line2d_35">
      <path d="M 671.057851 175.745455 
L 671.057851 43.2 
" clip-path="url(#p56ed6e2379)" style="fill: none; stroke: #cbcbcb; stroke-width: 0.5"/>
     </g>
     <g id="line2d_36">
      <g>
       <use xlink:href="#mc9f49ea240" x="671.057851" y="175.745455" style="stroke: #000000; stroke-width: 0.8"/>
      </g>
     </g>
    </g>
   </g>
   <g id="matplotlib.axis_4">
    <g id="ytick_5">
     <g id="line2d_37">
      <path d="M 399.272727 158.446534 
L 684 158.446534 
" clip-path="url(#p56ed6e2379)" style="fill: none; stroke: #cbcbcb; stroke-width: 0.5"/>
     </g>
     <g id="line2d_38">
      <g>
       <use xlink:href="#m2b93ea6810" x="399.272727" y="158.446534" style="stroke: #000000; stroke-width: 0.8"/>
      </g>
     </g>
     <g id="text_8">
      <!-- −2 -->
      <g transform="translate(373.082102 163.005596) scale(0.12 -0.12)">
       <defs>
        <path id="DejaVuSans-2212" d="M 678 2272 
L 4684 2272 
L 4684 1741 
L 678 1741 
L 678 2272 
z
" transform="scale(0.015625)"/>
       </defs>
       <use xlink:href="#DejaVuSans-2212"/>
       <use xlink:href="#DejaVuSans-32" x="83.789062"/>
      </g>
     </g>
    </g>
    <g id="ytick_6">
     <g id="line2d_39">
      <path d="M 399.272727 115.960966 
L 684 115.960966 
" clip-path="url(#p56ed6e2379)" style="fill: none; stroke: #cbcbcb; stroke-width: 0.5"/>
     </g>
     <g id="line2d_40">
      <g>
       <use xlink:href="#m2b93ea6810" x="399.272727" y="115.960966" style="stroke: #000000; stroke-width: 0.8"/>
      </g>
     </g>
     <g id="text_9">
      <!-- 0 -->
      <g transform="translate(383.137727 120.520029) scale(0.12 -0.12)">
       <use xlink:href="#DejaVuSans-30"/>
      </g>
     </g>
    </g>
    <g id="ytick_7">
     <g id="line2d_41">
      <path d="M 399.272727 73.475399 
L 684 73.475399 
" clip-path="url(#p56ed6e2379)" style="fill: none; stroke: #cbcbcb; stroke-width: 0.5"/>
     </g>
     <g id="line2d_42">
      <g>
       <use xlink:href="#m2b93ea6810" x="399.272727" y="73.475399" style="stroke: #000000; stroke-width: 0.8"/>
      </g>
     </g>
     <g id="text_10">
      <!-- 2 -->
      <g transform="translate(383.137727 78.034462) scale(0.12 -0.12)">
       <use xlink:href="#DejaVuSans-32"/>
      </g>
     </g>
    </g>
    <g id="text_11">
     <!-- rad -->
     <g transform="translate(366.586477 119.425227) rotate(-90) scale(0.12 -0.12)">
      <defs>
       <path id="DejaVuSans-61" d="M 2194 1759 
Q 1497 1759 1228 1600 
Q 959 1441 959 1056 
Q 959 750 1161 570 
Q 1363 391 1709 391 
Q 2188 391 2477 730 
Q 2766 1069 2766 1631 
L 2766 1759 
L 2194 1759 
z
M 3341 1997 
L 3341 0 
L 2766 0 
L 2766 531 
Q 2569 213 2275 61 
Q 1981 -91 1556 -91 
Q 1019 -91 701 211 
Q 384 513 384 1019 
Q 384 1609 779 1909 
Q 1175 2209 1959 2209 
L 2766 2209 
L 2766 2266 
Q 2766 2663 2505 2880 
Q 2244 3097 1772 3097 
Q 1472 3097 1187 3025 
Q 903 2953 641 2809 
L 641 3341 
Q 956 3463 1253 3523 
Q 1550 3584 1831 3584 
Q 2591 3584 2966 3190 
Q 3341 2797 3341 1997 
z
" transform="scale(0.015625)"/>
       <path id="DejaVuSans-64" d="M 2906 2969 
L 2906 4863 
L 3481 4863 
L 3481 0 
L 2906 0 
L 2906 525 
Q 2725 213 2448 61 
Q 2172 -91 1784 -91 
Q 1150 -91 751 415 
Q 353 922 353 1747 
Q 353 2572 751 3078 
Q 1150 3584 1784 3584 
Q 2172 3584 2448 3432 
Q 2725 3281 2906 2969 
z
M 947 1747 
Q 947 1113 1208 752 
Q 1469 391 1925 391 
Q 2381 391 2643 752 
Q 2906 1113 2906 1747 
Q 2906 2381 2643 2742 
Q 2381 3103 1925 3103 
Q 1469 3103 1208 2742 
Q 947 2381 947 1747 
z
" transform="scale(0.015625)"/>
      </defs>
      <use xlink:href="#DejaVuSans-72"/>
      <use xlink:href="#DejaVuSans-61" x="41.113281"/>
      <use xlink:href="#DejaVuSans-64" x="102.392578"/>
     </g>
    </g>
   </g>
   <g id="line2d_43">
    <path d="M 412.214876 98.409774 
L 428.914423 98.112391 
L 466.024527 96.838484 
L 480.868568 96.064865 
L 484.579579 95.762872 
L 503.134631 94.016397 
L 512.412157 93.042441 
L 521.689683 92.233422 
L 537.461477 90.720033 
L 547.666756 88.941107 
L 555.088776 87.499925 
L 558.799787 86.725166 
L 564.366302 85.613612 
L 574.571581 83.583507 
L 581.993602 82.020176 
L 597.765396 79.111772 
L 608.898427 77.341059 
L 620.031458 75.726078 
L 628.381232 74.664822 
L 637.658758 73.809614 
L 655.286057 72.740872 
L 670.130099 72.501176 
L 671.057851 72.508651 
L 671.057851 72.508651 
" clip-path="url(#p56ed6e2379)" style="fill: none; stroke: #008fd5; stroke-width: 1.5"/>
   </g>
   <g id="line2d_44">
    <path d="M 399.272727 115.960966 
L 684 115.960966 
" clip-path="url(#p56ed6e2379)" style="fill: none; stroke-dasharray: 5.55,2.4; stroke-dashoffset: 0; stroke: #008fd5; stroke-width: 1.5"/>
   </g>
   <g id="line2d_45">
    <path d="M 399.272727 49.224793 
L 684 49.224793 
" clip-path="url(#p56ed6e2379)" style="fill: none; stroke-dasharray: 5.55,2.4; stroke-dashoffset: 0; stroke: #008fd5; stroke-width: 1.5"/>
   </g>
   <g id="line2d_46">
    <path d="M 412.214876 62.639547 
L 421.492402 62.677672 
L 434.480938 62.908785 
L 466.024527 63.930698 
L 484.579579 65.240395 
L 490.146094 65.624897 
L 493.857105 65.937863 
L 504.990136 67.068557 
L 510.556652 67.942977 
L 519.834178 69.932531 
L 526.328446 71.755695 
L 538.38923 74.768954 
L 543.955745 76.029307 
L 547.666756 76.827352 
L 559.727539 80.412726 
L 571.788323 84.276834 
L 576.427086 85.665038 
L 582.921354 87.731282 
L 585.704612 88.679059 
L 594.054385 91.552852 
L 600.548654 93.579236 
L 604.259664 94.755626 
L 625.597974 102.060773 
L 634.8755 104.451865 
L 655.286057 107.584327 
L 660.852573 108.187375 
L 663.63583 108.469963 
L 669.202346 108.699915 
L 671.057851 108.712006 
L 671.057851 108.712006 
" clip-path="url(#p56ed6e2379)" style="fill: none; stroke: #ffa500; stroke-width: 1.5"/>
   </g>
   <g id="line2d_47">
    <path d="M 399.272727 169.720661 
L 684 169.720661 
" clip-path="url(#p56ed6e2379)" style="fill: none; stroke-dasharray: 5.55,2.4; stroke-dashoffset: 0; stroke: #ffa500; stroke-width: 1.5"/>
   </g>
   <g id="line2d_48">
    <path d="M 399.272727 62.201271 
L 684 62.201271 
" clip-path="url(#p56ed6e2379)" style="fill: none; stroke-dasharray: 5.55,2.4; stroke-dashoffset: 0; stroke: #ffa500; stroke-width: 1.5"/>
   </g>
   <g id="patch_9">
    <path d="M 399.272727 175.745455 
L 399.272727 43.2 
" style="fill: none; stroke: #000000; stroke-width: 0.4; stroke-linejoin: miter; stroke-linecap: square"/>
   </g>
   <g id="patch_10">
    <path d="M 684 175.745455 
L 684 43.2 
" style="fill: none; stroke: #000000; stroke-width: 0.4; stroke-linejoin: miter; stroke-linecap: square"/>
   </g>
   <g id="patch_11">
    <path d="M 399.272727 175.745455 
L 684 175.745455 
" style="fill: none; stroke: #000000; stroke-width: 0.4; stroke-linejoin: miter; stroke-linecap: square"/>
   </g>
   <g id="patch_12">
    <path d="M 399.272727 43.2 
L 684 43.2 
" style="fill: none; stroke: #000000; stroke-width: 0.4; stroke-linejoin: miter; stroke-linecap: square"/>
   </g>
   <g id="legend_2">
    <g id="patch_13">
     <path d="M 407.672727 169.745455 
L 459.152727 169.745455 
Q 461.552727 169.745455 461.552727 167.345455 
L 461.552727 133.317955 
Q 461.552727 130.917955 459.152727 130.917955 
L 407.672727 130.917955 
Q 405.272727 130.917955 405.272727 133.317955 
L 405.272727 167.345455 
Q 405.272727 169.745455 407.672727 169.745455 
z
" style="fill: #ffffff; opacity: 0.8; stroke: #000000; stroke-width: 0.5; stroke-linejoin: miter"/>
    </g>
    <g id="line2d_49">
     <path d="M 410.072727 140.63608 
L 422.072727 140.63608 
L 434.072727 140.63608 
" style="fill: none; stroke: #008fd5; stroke-width: 1.5"/>
    </g>
    <g id="text_12">
     <!-- $\theta_1$ -->
     <g transform="translate(443.672727 144.83608) scale(0.12 -0.12)">
      <defs>
       <path id="DejaVuSans-Oblique-3b8" d="M 2913 2219 
L 925 2219 
Q 791 1284 928 888 
Q 1100 400 1566 400 
Q 2034 400 2391 891 
Q 2703 1322 2913 2219 
z
M 3009 2750 
Q 3094 3638 2984 3950 
Q 2813 4444 2353 4444 
Q 1875 4444 1525 3956 
Q 1250 3563 1034 2750 
L 3009 2750 
z
M 2444 4913 
Q 3194 4913 3494 4250 
Q 3794 3591 3566 2422 
Q 3341 1256 2781 594 
Q 2225 -72 1475 -72 
Q 722 -72 425 594 
Q 128 1256 353 2422 
Q 581 3591 1134 4250 
Q 1691 4913 2444 4913 
z
" transform="scale(0.015625)"/>
       <path id="DejaVuSans-31" d="M 794 531 
L 1825 531 
L 1825 4091 
L 703 3866 
L 703 4441 
L 1819 4666 
L 2450 4666 
L 2450 531 
L 3481 531 
L 3481 0 
L 794 0 
L 794 531 
z
" transform="scale(0.015625)"/>
      </defs>
      <use xlink:href="#DejaVuSans-Oblique-3b8" transform="translate(0 0.234375)"/>
      <use xlink:href="#DejaVuSans-31" transform="translate(61.181641 -16.171875) scale(0.7)"/>
     </g>
    </g>
    <g id="line2d_50">
     <path d="M 410.072727 158.24983 
L 422.072727 158.24983 
L 434.072727 158.24983 
" style="fill: none; stroke: #ffa500; stroke-width: 1.5"/>
    </g>
    <g id="text_13">
     <!-- $\theta_2$ -->
     <g transform="translate(443.672727 162.44983) scale(0.12 -0.12)">
      <use xlink:href="#DejaVuSans-Oblique-3b8" transform="translate(0 0.234375)"/>
      <use xlink:href="#DejaVuSans-32" transform="translate(61.181641 -16.171875) scale(0.7)"/>
     </g>
    </g>
   </g>
  </g>
  <g id="axes_3">
   <g id="patch_14">
    <path d="M 57.6 334.8 
L 342.327273 334.8 
L 342.327273 202.254545 
L 57.6 202.254545 
z
" style="fill: #ffffff"/>
   </g>
   <g id="matplotlib.axis_5">
    <g id="xtick_13">
     <g id="line2d_51">
      <path d="M 70.542149 334.8 
L 70.542149 202.254545 
" clip-path="url(#p65d89d9037)" style="fill: none; stroke: #cbcbcb; stroke-width: 0.5"/>
     </g>
     <g id="line2d_52">
      <g>
       <use xlink:href="#mc9f49ea240" x="70.542149" y="334.8" style="stroke: #000000; stroke-width: 0.8"/>
      </g>
     </g>
     <g id="text_14">
      <!-- 0 -->
      <g transform="translate(66.724649 352.418125) scale(0.12 -0.12)">
       <use xlink:href="#DejaVuSans-30"/>
      </g>
     </g>
    </g>
    <g id="xtick_14">
     <g id="line2d_53">
      <path d="M 122.310744 334.8 
L 122.310744 202.254545 
" clip-path="url(#p65d89d9037)" style="fill: none; stroke: #cbcbcb; stroke-width: 0.5"/>
     </g>
     <g id="line2d_54">
      <g>
       <use xlink:href="#mc9f49ea240" x="122.310744" y="334.8" style="stroke: #000000; stroke-width: 0.8"/>
      </g>
     </g>
     <g id="text_15">
      <!-- 20 -->
      <g transform="translate(114.675744 352.418125) scale(0.12 -0.12)">
       <use xlink:href="#DejaVuSans-32"/>
       <use xlink:href="#DejaVuSans-30" x="63.623047"/>
      </g>
     </g>
    </g>
    <g id="xtick_15">
     <g id="line2d_55">
      <path d="M 174.079339 334.8 
L 174.079339 202.254545 
" clip-path="url(#p65d89d9037)" style="fill: none; stroke: #cbcbcb; stroke-width: 0.5"/>
     </g>
     <g id="line2d_56">
      <g>
       <use xlink:href="#mc9f49ea240" x="174.079339" y="334.8" style="stroke: #000000; stroke-width: 0.8"/>
      </g>
     </g>
     <g id="text_16">
      <!-- 40 -->
      <g transform="translate(166.444339 352.418125) scale(0.12 -0.12)">
       <use xlink:href="#DejaVuSans-34"/>
       <use xlink:href="#DejaVuSans-30" x="63.623047"/>
      </g>
     </g>
    </g>
    <g id="xtick_16">
     <g id="line2d_57">
      <path d="M 225.847934 334.8 
L 225.847934 202.254545 
" clip-path="url(#p65d89d9037)" style="fill: none; stroke: #cbcbcb; stroke-width: 0.5"/>
     </g>
     <g id="line2d_58">
      <g>
       <use xlink:href="#mc9f49ea240" x="225.847934" y="334.8" style="stroke: #000000; stroke-width: 0.8"/>
      </g>
     </g>
     <g id="text_17">
      <!-- 60 -->
      <g transform="translate(218.212934 352.418125) scale(0.12 -0.12)">
       <use xlink:href="#DejaVuSans-36"/>
       <use xlink:href="#DejaVuSans-30" x="63.623047"/>
      </g>
     </g>
    </g>
    <g id="xtick_17">
     <g id="line2d_59">
      <path d="M 277.616529 334.8 
L 277.616529 202.254545 
" clip-path="url(#p65d89d9037)" style="fill: none; stroke: #cbcbcb; stroke-width: 0.5"/>
     </g>
     <g id="line2d_60">
      <g>
       <use xlink:href="#mc9f49ea240" x="277.616529" y="334.8" style="stroke: #000000; stroke-width: 0.8"/>
      </g>
     </g>
     <g id="text_18">
      <!-- 80 -->
      <g transform="translate(269.981529 352.418125) scale(0.12 -0.12)">
       <defs>
        <path id="DejaVuSans-38" d="M 2034 2216 
Q 1584 2216 1326 1975 
Q 1069 1734 1069 1313 
Q 1069 891 1326 650 
Q 1584 409 2034 409 
Q 2484 409 2743 651 
Q 3003 894 3003 1313 
Q 3003 1734 2745 1975 
Q 2488 2216 2034 2216 
z
M 1403 2484 
Q 997 2584 770 2862 
Q 544 3141 544 3541 
Q 544 4100 942 4425 
Q 1341 4750 2034 4750 
Q 2731 4750 3128 4425 
Q 3525 4100 3525 3541 
Q 3525 3141 3298 2862 
Q 3072 2584 2669 2484 
Q 3125 2378 3379 2068 
Q 3634 1759 3634 1313 
Q 3634 634 3220 271 
Q 2806 -91 2034 -91 
Q 1263 -91 848 271 
Q 434 634 434 1313 
Q 434 1759 690 2068 
Q 947 2378 1403 2484 
z
M 1172 3481 
Q 1172 3119 1398 2916 
Q 1625 2713 2034 2713 
Q 2441 2713 2670 2916 
Q 2900 3119 2900 3481 
Q 2900 3844 2670 4047 
Q 2441 4250 2034 4250 
Q 1625 4250 1398 4047 
Q 1172 3844 1172 3481 
z
" transform="scale(0.015625)"/>
       </defs>
       <use xlink:href="#DejaVuSans-38"/>
       <use xlink:href="#DejaVuSans-30" x="63.623047"/>
      </g>
     </g>
    </g>
    <g id="xtick_18">
     <g id="line2d_61">
      <path d="M 329.385124 334.8 
L 329.385124 202.254545 
" clip-path="url(#p65d89d9037)" style="fill: none; stroke: #cbcbcb; stroke-width: 0.5"/>
     </g>
     <g id="line2d_62">
      <g>
       <use xlink:href="#mc9f49ea240" x="329.385124" y="334.8" style="stroke: #000000; stroke-width: 0.8"/>
      </g>
     </g>
     <g id="text_19">
      <!-- 100 -->
      <g transform="translate(317.932624 352.418125) scale(0.12 -0.12)">
       <use xlink:href="#DejaVuSans-31"/>
       <use xlink:href="#DejaVuSans-30" x="63.623047"/>
       <use xlink:href="#DejaVuSans-30" x="127.246094"/>
      </g>
     </g>
    </g>
    <g id="text_20">
     <!-- % of STS -->
     <g transform="translate(173.382699 368.031875) scale(0.12 -0.12)">
      <defs>
       <path id="DejaVuSans-25" d="M 4653 2053 
Q 4381 2053 4226 1822 
Q 4072 1591 4072 1178 
Q 4072 772 4226 539 
Q 4381 306 4653 306 
Q 4919 306 5073 539 
Q 5228 772 5228 1178 
Q 5228 1588 5073 1820 
Q 4919 2053 4653 2053 
z
M 4653 2450 
Q 5147 2450 5437 2106 
Q 5728 1763 5728 1178 
Q 5728 594 5436 251 
Q 5144 -91 4653 -91 
Q 4153 -91 3862 251 
Q 3572 594 3572 1178 
Q 3572 1766 3864 2108 
Q 4156 2450 4653 2450 
z
M 1428 4353 
Q 1159 4353 1004 4120 
Q 850 3888 850 3481 
Q 850 3069 1003 2837 
Q 1156 2606 1428 2606 
Q 1700 2606 1854 2837 
Q 2009 3069 2009 3481 
Q 2009 3884 1853 4118 
Q 1697 4353 1428 4353 
z
M 4250 4750 
L 4750 4750 
L 1831 -91 
L 1331 -91 
L 4250 4750 
z
M 1428 4750 
Q 1922 4750 2215 4408 
Q 2509 4066 2509 3481 
Q 2509 2891 2217 2550 
Q 1925 2209 1428 2209 
Q 931 2209 642 2551 
Q 353 2894 353 3481 
Q 353 4063 643 4406 
Q 934 4750 1428 4750 
z
" transform="scale(0.015625)"/>
       <path id="DejaVuSans-66" d="M 2375 4863 
L 2375 4384 
L 1825 4384 
Q 1516 4384 1395 4259 
Q 1275 4134 1275 3809 
L 1275 3500 
L 2222 3500 
L 2222 3053 
L 1275 3053 
L 1275 0 
L 697 0 
L 697 3053 
L 147 3053 
L 147 3500 
L 697 3500 
L 697 3744 
Q 697 4328 969 4595 
Q 1241 4863 1831 4863 
L 2375 4863 
z
" transform="scale(0.015625)"/>
       <path id="DejaVuSans-53" d="M 3425 4513 
L 3425 3897 
Q 3066 4069 2747 4153 
Q 2428 4238 2131 4238 
Q 1616 4238 1336 4038 
Q 1056 3838 1056 3469 
Q 1056 3159 1242 3001 
Q 1428 2844 1947 2747 
L 2328 2669 
Q 3034 2534 3370 2195 
Q 3706 1856 3706 1288 
Q 3706 609 3251 259 
Q 2797 -91 1919 -91 
Q 1588 -91 1214 -16 
Q 841 59 441 206 
L 441 856 
Q 825 641 1194 531 
Q 1563 422 1919 422 
Q 2459 422 2753 634 
Q 3047 847 3047 1241 
Q 3047 1584 2836 1778 
Q 2625 1972 2144 2069 
L 1759 2144 
Q 1053 2284 737 2584 
Q 422 2884 422 3419 
Q 422 4038 858 4394 
Q 1294 4750 2059 4750 
Q 2388 4750 2728 4690 
Q 3069 4631 3425 4513 
z
" transform="scale(0.015625)"/>
       <path id="DejaVuSans-54" d="M -19 4666 
L 3928 4666 
L 3928 4134 
L 2272 4134 
L 2272 0 
L 1638 0 
L 1638 4134 
L -19 4134 
L -19 4666 
z
" transform="scale(0.015625)"/>
      </defs>
      <use xlink:href="#DejaVuSans-25"/>
      <use xlink:href="#DejaVuSans-20" x="95.019531"/>
      <use xlink:href="#DejaVuSans-6f" x="126.806641"/>
      <use xlink:href="#DejaVuSans-66" x="187.988281"/>
      <use xlink:href="#DejaVuSans-20" x="223.193359"/>
      <use xlink:href="#DejaVuSans-53" x="254.980469"/>
      <use xlink:href="#DejaVuSans-54" x="318.457031"/>
      <use xlink:href="#DejaVuSans-53" x="379.541016"/>
     </g>
    </g>
   </g>
   <g id="matplotlib.axis_6">
    <g id="ytick_8">
     <g id="line2d_63">
      <path d="M 57.6 327.727179 
L 342.327273 327.727179 
" clip-path="url(#p65d89d9037)" style="fill: none; stroke: #cbcbcb; stroke-width: 0.5"/>
     </g>
     <g id="line2d_64">
      <g>
       <use xlink:href="#m2b93ea6810" x="57.6" y="327.727179" style="stroke: #000000; stroke-width: 0.8"/>
      </g>
     </g>
     <g id="text_21">
      <!-- 0 -->
      <g transform="translate(41.465 332.286241) scale(0.12 -0.12)">
       <use xlink:href="#DejaVuSans-30"/>
      </g>
     </g>
    </g>
    <g id="ytick_9">
     <g id="line2d_65">
      <path d="M 57.6 277.957245 
L 342.327273 277.957245 
" clip-path="url(#p65d89d9037)" style="fill: none; stroke: #cbcbcb; stroke-width: 0.5"/>
     </g>
     <g id="line2d_66">
      <g>
       <use xlink:href="#m2b93ea6810" x="57.6" y="277.957245" style="stroke: #000000; stroke-width: 0.8"/>
      </g>
     </g>
     <g id="text_22">
      <!-- 10 -->
      <g transform="translate(33.83 282.516308) scale(0.12 -0.12)">
       <use xlink:href="#DejaVuSans-31"/>
       <use xlink:href="#DejaVuSans-30" x="63.623047"/>
      </g>
     </g>
    </g>
    <g id="ytick_10">
     <g id="line2d_67">
      <path d="M 57.6 228.187312 
L 342.327273 228.187312 
" clip-path="url(#p65d89d9037)" style="fill: none; stroke: #cbcbcb; stroke-width: 0.5"/>
     </g>
     <g id="line2d_68">
      <g>
       <use xlink:href="#m2b93ea6810" x="57.6" y="228.187312" style="stroke: #000000; stroke-width: 0.8"/>
      </g>
     </g>
     <g id="text_23">
      <!-- 20 -->
      <g transform="translate(33.83 232.746375) scale(0.12 -0.12)">
       <use xlink:href="#DejaVuSans-32"/>
       <use xlink:href="#DejaVuSans-30" x="63.623047"/>
      </g>
     </g>
    </g>
    <g id="text_24">
     <!-- Torque (Nm) -->
     <g transform="translate(27.334375 305.430085) rotate(-90) scale(0.12 -0.12)">
      <defs>
       <path id="DejaVuSans-71" d="M 947 1747 
Q 947 1113 1208 752 
Q 1469 391 1925 391 
Q 2381 391 2643 752 
Q 2906 1113 2906 1747 
Q 2906 2381 2643 2742 
Q 2381 3103 1925 3103 
Q 1469 3103 1208 2742 
Q 947 2381 947 1747 
z
M 2906 525 
Q 2725 213 2448 61 
Q 2172 -91 1784 -91 
Q 1150 -91 751 415 
Q 353 922 353 1747 
Q 353 2572 751 3078 
Q 1150 3584 1784 3584 
Q 2172 3584 2448 3432 
Q 2725 3281 2906 2969 
L 2906 3500 
L 3481 3500 
L 3481 -1331 
L 2906 -1331 
L 2906 525 
z
" transform="scale(0.015625)"/>
       <path id="DejaVuSans-75" d="M 544 1381 
L 544 3500 
L 1119 3500 
L 1119 1403 
Q 1119 906 1312 657 
Q 1506 409 1894 409 
Q 2359 409 2629 706 
Q 2900 1003 2900 1516 
L 2900 3500 
L 3475 3500 
L 3475 0 
L 2900 0 
L 2900 538 
Q 2691 219 2414 64 
Q 2138 -91 1772 -91 
Q 1169 -91 856 284 
Q 544 659 544 1381 
z
M 1991 3584 
L 1991 3584 
z
" transform="scale(0.015625)"/>
       <path id="DejaVuSans-6d" d="M 3328 2828 
Q 3544 3216 3844 3400 
Q 4144 3584 4550 3584 
Q 5097 3584 5394 3201 
Q 5691 2819 5691 2113 
L 5691 0 
L 5113 0 
L 5113 2094 
Q 5113 2597 4934 2840 
Q 4756 3084 4391 3084 
Q 3944 3084 3684 2787 
Q 3425 2491 3425 1978 
L 3425 0 
L 2847 0 
L 2847 2094 
Q 2847 2600 2669 2842 
Q 2491 3084 2119 3084 
Q 1678 3084 1418 2786 
Q 1159 2488 1159 1978 
L 1159 0 
L 581 0 
L 581 3500 
L 1159 3500 
L 1159 2956 
Q 1356 3278 1631 3431 
Q 1906 3584 2284 3584 
Q 2666 3584 2933 3390 
Q 3200 3197 3328 2828 
z
" transform="scale(0.015625)"/>
      </defs>
      <use xlink:href="#DejaVuSans-54"/>
      <use xlink:href="#DejaVuSans-6f" x="44.083984"/>
      <use xlink:href="#DejaVuSans-72" x="105.265625"/>
      <use xlink:href="#DejaVuSans-71" x="144.628906"/>
      <use xlink:href="#DejaVuSans-75" x="208.105469"/>
      <use xlink:href="#DejaVuSans-65" x="271.484375"/>
      <use xlink:href="#DejaVuSans-20" x="333.007812"/>
      <use xlink:href="#DejaVuSans-28" x="364.794922"/>
      <use xlink:href="#DejaVuSans-4e" x="403.808594"/>
      <use xlink:href="#DejaVuSans-6d" x="478.613281"/>
      <use xlink:href="#DejaVuSans-29" x="576.025391"/>
     </g>
    </g>
   </g>
   <g id="line2d_69">
    <path d="M 70.542149 328.775207 
L 71.469901 325.851543 
L 72.397654 324.099533 
L 81.67518 300.493687 
L 89.097201 280.91083 
L 97.446974 273.807059 
L 98.374727 272.997585 
L 110.435511 273.411201 
L 116.929779 273.96848 
L 121.568542 274.021046 
L 127.135057 273.295051 
L 135.484831 271.626455 
L 145.690109 266.389159 
L 150.328872 263.681598 
L 154.039883 261.171939 
L 158.678646 259.159529 
L 163.317409 256.558788 
L 167.956172 252.993042 
L 172.594935 247.966242 
L 177.233698 239.713358 
L 182.800213 227.092701 
L 188.366729 216.035531 
L 191.149987 210.300034 
L 195.78875 208.998002 
L 200.427513 208.279339 
L 205.994028 216.465146 
L 209.705039 221.16868 
L 213.416049 232.481686 
L 218.982565 250.383525 
L 222.693575 273.547805 
L 227.332338 304.076484 
L 229.187843 317.141201 
L 230.115596 323.935239 
L 231.043348 327.727179 
L 329.385124 327.727179 
L 329.385124 327.727179 
" clip-path="url(#p65d89d9037)" style="fill: none; stroke: #008fd5; stroke-width: 1.5"/>
   </g>
   <g id="line2d_70">
    <path d="M 57.6 208.279339 
L 342.327273 208.279339 
" clip-path="url(#p65d89d9037)" style="fill: none; stroke-dasharray: 5.55,2.4; stroke-dashoffset: 0; stroke: #008fd5; stroke-width: 1.5"/>
   </g>
   <g id="line2d_71">
    <path d="M 70.542149 328.169525 
L 71.469901 326.93412 
L 72.397654 326.191709 
L 79.819675 318.151841 
L 86.313943 310.566643 
L 89.097201 307.16885 
L 95.591469 304.399518 
L 98.374727 303.127166 
L 122.496294 301.640749 
L 129.918315 300.584206 
L 131.77382 300.226136 
L 135.484831 299.380317 
L 141.051346 297.264172 
L 145.690109 295.016128 
L 150.328872 292.397142 
L 154.039883 289.991178 
L 158.678646 287.835085 
L 165.172914 283.629414 
L 169.811677 280.346913 
L 172.594935 278.271275 
L 177.233698 273.223137 
L 182.800213 266.659328 
L 186.511224 263.100809 
L 191.149987 257.988464 
L 195.78875 256.778088 
L 200.427513 254.283335 
L 203.21077 254.955051 
L 205.994028 255.71483 
L 208.777286 256.440622 
L 209.705039 256.745618 
L 212.488296 261.31613 
L 217.127059 269.572722 
L 218.982565 273.180072 
L 221.765822 284.795628 
L 225.476833 301.465266 
L 228.260091 314.928031 
L 230.115596 324.896894 
L 231.043348 327.727179 
L 329.385124 327.727179 
L 329.385124 327.727179 
" clip-path="url(#p65d89d9037)" style="fill: none; stroke: #fc4f30; stroke-width: 1.5"/>
   </g>
   <g id="line2d_72">
    <path d="M 57.6 282.934239 
L 342.327273 282.934239 
" clip-path="url(#p65d89d9037)" style="fill: none; stroke-dasharray: 5.55,2.4; stroke-dashoffset: 0; stroke: #ffa500; stroke-width: 1.5"/>
   </g>
   <g id="patch_15">
    <path d="M 57.6 334.8 
L 57.6 202.254545 
" style="fill: none; stroke: #000000; stroke-width: 0.4; stroke-linejoin: miter; stroke-linecap: square"/>
   </g>
   <g id="patch_16">
    <path d="M 342.327273 334.8 
L 342.327273 202.254545 
" style="fill: none; stroke: #000000; stroke-width: 0.4; stroke-linejoin: miter; stroke-linecap: square"/>
   </g>
   <g id="patch_17">
    <path d="M 57.6 334.8 
L 342.327273 334.8 
" style="fill: none; stroke: #000000; stroke-width: 0.4; stroke-linejoin: miter; stroke-linecap: square"/>
   </g>
   <g id="patch_18">
    <path d="M 57.6 202.254545 
L 342.327273 202.254545 
" style="fill: none; stroke: #000000; stroke-width: 0.4; stroke-linejoin: miter; stroke-linecap: square"/>
   </g>
   <g id="legend_3">
    <g id="patch_19">
     <path d="M 282.567273 247.082045 
L 333.927273 247.082045 
Q 336.327273 247.082045 336.327273 244.682045 
L 336.327273 210.654545 
Q 336.327273 208.254545 333.927273 208.254545 
L 282.567273 208.254545 
Q 280.167273 208.254545 280.167273 210.654545 
L 280.167273 244.682045 
Q 280.167273 247.082045 282.567273 247.082045 
z
" style="fill: #ffffff; opacity: 0.8; stroke: #000000; stroke-width: 0.5; stroke-linejoin: miter"/>
    </g>
    <g id="line2d_73">
     <path d="M 284.967273 217.97267 
L 296.967273 217.97267 
L 308.967273 217.97267 
" style="fill: none; stroke: #008fd5; stroke-width: 1.5"/>
    </g>
    <g id="text_25">
     <!-- $\tau_1$ -->
     <g transform="translate(318.567273 222.17267) scale(0.12 -0.12)">
      <defs>
       <path id="DejaVuSans-Oblique-3c4" d="M 2103 638 
Q 2188 488 2525 488 
L 2800 488 
L 2706 0 
L 2363 0 
Q 1800 0 1600 300 
Q 1403 606 1534 1269 
L 1856 2925 
L 541 2925 
L 653 3500 
L 3881 3500 
L 3769 2925 
L 2444 2925 
L 2113 1234 
Q 2025 781 2103 638 
z
" transform="scale(0.015625)"/>
      </defs>
      <use xlink:href="#DejaVuSans-Oblique-3c4" transform="translate(0 0.3125)"/>
      <use xlink:href="#DejaVuSans-31" transform="translate(60.205078 -16.09375) scale(0.7)"/>
     </g>
    </g>
    <g id="line2d_74">
     <path d="M 284.967273 235.58642 
L 296.967273 235.58642 
L 308.967273 235.58642 
" style="fill: none; stroke: #fc4f30; stroke-width: 1.5"/>
    </g>
    <g id="text_26">
     <!-- $\tau_2$ -->
     <g transform="translate(318.567273 239.78642) scale(0.12 -0.12)">
      <use xlink:href="#DejaVuSans-Oblique-3c4" transform="translate(0 0.3125)"/>
      <use xlink:href="#DejaVuSans-32" transform="translate(60.205078 -16.09375) scale(0.7)"/>
     </g>
    </g>
   </g>
  </g>
  <g id="axes_4">
   <g id="patch_20">
    <path d="M 399.272727 334.8 
L 684 334.8 
L 684 202.254545 
L 399.272727 202.254545 
z
" style="fill: #ffffff"/>
   </g>
   <g id="matplotlib.axis_7">
    <g id="xtick_19">
     <g id="line2d_75">
      <path d="M 412.214876 334.8 
L 412.214876 202.254545 
" clip-path="url(#pc4c878d6f7)" style="fill: none; stroke: #cbcbcb; stroke-width: 0.5"/>
     </g>
     <g id="line2d_76">
      <g>
       <use xlink:href="#mc9f49ea240" x="412.214876" y="334.8" style="stroke: #000000; stroke-width: 0.8"/>
      </g>
     </g>
     <g id="text_27">
      <!-- 0 -->
      <g transform="translate(408.397376 352.418125) scale(0.12 -0.12)">
       <use xlink:href="#DejaVuSans-30"/>
      </g>
     </g>
    </g>
    <g id="xtick_20">
     <g id="line2d_77">
      <path d="M 463.983471 334.8 
L 463.983471 202.254545 
" clip-path="url(#pc4c878d6f7)" style="fill: none; stroke: #cbcbcb; stroke-width: 0.5"/>
     </g>
     <g id="line2d_78">
      <g>
       <use xlink:href="#mc9f49ea240" x="463.983471" y="334.8" style="stroke: #000000; stroke-width: 0.8"/>
      </g>
     </g>
     <g id="text_28">
      <!-- 20 -->
      <g transform="translate(456.348471 352.418125) scale(0.12 -0.12)">
       <use xlink:href="#DejaVuSans-32"/>
       <use xlink:href="#DejaVuSans-30" x="63.623047"/>
      </g>
     </g>
    </g>
    <g id="xtick_21">
     <g id="line2d_79">
      <path d="M 515.752066 334.8 
L 515.752066 202.254545 
" clip-path="url(#pc4c878d6f7)" style="fill: none; stroke: #cbcbcb; stroke-width: 0.5"/>
     </g>
     <g id="line2d_80">
      <g>
       <use xlink:href="#mc9f49ea240" x="515.752066" y="334.8" style="stroke: #000000; stroke-width: 0.8"/>
      </g>
     </g>
     <g id="text_29">
      <!-- 40 -->
      <g transform="translate(508.117066 352.418125) scale(0.12 -0.12)">
       <use xlink:href="#DejaVuSans-34"/>
       <use xlink:href="#DejaVuSans-30" x="63.623047"/>
      </g>
     </g>
    </g>
    <g id="xtick_22">
     <g id="line2d_81">
      <path d="M 567.520661 334.8 
L 567.520661 202.254545 
" clip-path="url(#pc4c878d6f7)" style="fill: none; stroke: #cbcbcb; stroke-width: 0.5"/>
     </g>
     <g id="line2d_82">
      <g>
       <use xlink:href="#mc9f49ea240" x="567.520661" y="334.8" style="stroke: #000000; stroke-width: 0.8"/>
      </g>
     </g>
     <g id="text_30">
      <!-- 60 -->
      <g transform="translate(559.885661 352.418125) scale(0.12 -0.12)">
       <use xlink:href="#DejaVuSans-36"/>
       <use xlink:href="#DejaVuSans-30" x="63.623047"/>
      </g>
     </g>
    </g>
    <g id="xtick_23">
     <g id="line2d_83">
      <path d="M 619.289256 334.8 
L 619.289256 202.254545 
" clip-path="url(#pc4c878d6f7)" style="fill: none; stroke: #cbcbcb; stroke-width: 0.5"/>
     </g>
     <g id="line2d_84">
      <g>
       <use xlink:href="#mc9f49ea240" x="619.289256" y="334.8" style="stroke: #000000; stroke-width: 0.8"/>
      </g>
     </g>
     <g id="text_31">
      <!-- 80 -->
      <g transform="translate(611.654256 352.418125) scale(0.12 -0.12)">
       <use xlink:href="#DejaVuSans-38"/>
       <use xlink:href="#DejaVuSans-30" x="63.623047"/>
      </g>
     </g>
    </g>
    <g id="xtick_24">
     <g id="line2d_85">
      <path d="M 671.057851 334.8 
L 671.057851 202.254545 
" clip-path="url(#pc4c878d6f7)" style="fill: none; stroke: #cbcbcb; stroke-width: 0.5"/>
     </g>
     <g id="line2d_86">
      <g>
       <use xlink:href="#mc9f49ea240" x="671.057851" y="334.8" style="stroke: #000000; stroke-width: 0.8"/>
      </g>
     </g>
     <g id="text_32">
      <!-- 100 -->
      <g transform="translate(659.605351 352.418125) scale(0.12 -0.12)">
       <use xlink:href="#DejaVuSans-31"/>
       <use xlink:href="#DejaVuSans-30" x="63.623047"/>
       <use xlink:href="#DejaVuSans-30" x="127.246094"/>
      </g>
     </g>
    </g>
    <g id="text_33">
     <!-- % of STS -->
     <g transform="translate(515.055426 368.031875) scale(0.12 -0.12)">
      <use xlink:href="#DejaVuSans-25"/>
      <use xlink:href="#DejaVuSans-20" x="95.019531"/>
      <use xlink:href="#DejaVuSans-6f" x="126.806641"/>
      <use xlink:href="#DejaVuSans-66" x="187.988281"/>
      <use xlink:href="#DejaVuSans-20" x="223.193359"/>
      <use xlink:href="#DejaVuSans-53" x="254.980469"/>
      <use xlink:href="#DejaVuSans-54" x="318.457031"/>
      <use xlink:href="#DejaVuSans-53" x="379.541016"/>
     </g>
    </g>
   </g>
   <g id="matplotlib.axis_8">
    <g id="ytick_11">
     <g id="line2d_87">
      <path d="M 399.272727 307.396907 
L 684 307.396907 
" clip-path="url(#pc4c878d6f7)" style="fill: none; stroke: #cbcbcb; stroke-width: 0.5"/>
     </g>
     <g id="line2d_88">
      <g>
       <use xlink:href="#m2b93ea6810" x="399.272727" y="307.396907" style="stroke: #000000; stroke-width: 0.8"/>
      </g>
     </g>
     <g id="text_34">
      <!-- −10 -->
      <g transform="translate(365.447102 311.95597) scale(0.12 -0.12)">
       <use xlink:href="#DejaVuSans-2212"/>
       <use xlink:href="#DejaVuSans-31" x="83.789062"/>
       <use xlink:href="#DejaVuSans-30" x="147.412109"/>
      </g>
     </g>
    </g>
    <g id="ytick_12">
     <g id="line2d_89">
      <path d="M 399.272727 268.527273 
L 684 268.527273 
" clip-path="url(#pc4c878d6f7)" style="fill: none; stroke: #cbcbcb; stroke-width: 0.5"/>
     </g>
     <g id="line2d_90">
      <g>
       <use xlink:href="#m2b93ea6810" x="399.272727" y="268.527273" style="stroke: #000000; stroke-width: 0.8"/>
      </g>
     </g>
     <g id="text_35">
      <!-- 0 -->
      <g transform="translate(383.137727 273.086335) scale(0.12 -0.12)">
       <use xlink:href="#DejaVuSans-30"/>
      </g>
     </g>
    </g>
    <g id="ytick_13">
     <g id="line2d_91">
      <path d="M 399.272727 229.657638 
L 684 229.657638 
" clip-path="url(#pc4c878d6f7)" style="fill: none; stroke: #cbcbcb; stroke-width: 0.5"/>
     </g>
     <g id="line2d_92">
      <g>
       <use xlink:href="#m2b93ea6810" x="399.272727" y="229.657638" style="stroke: #000000; stroke-width: 0.8"/>
      </g>
     </g>
     <g id="text_36">
      <!-- 10 -->
      <g transform="translate(375.502727 234.2167) scale(0.12 -0.12)">
       <use xlink:href="#DejaVuSans-31"/>
       <use xlink:href="#DejaVuSans-30" x="63.623047"/>
      </g>
     </g>
    </g>
    <g id="text_37">
     <!-- rad/s -->
     <g transform="translate(358.951477 283.626648) rotate(-90) scale(0.12 -0.12)">
      <defs>
       <path id="DejaVuSans-2f" d="M 1625 4666 
L 2156 4666 
L 531 -594 
L 0 -594 
L 1625 4666 
z
" transform="scale(0.015625)"/>
       <path id="DejaVuSans-73" d="M 2834 3397 
L 2834 2853 
Q 2591 2978 2328 3040 
Q 2066 3103 1784 3103 
Q 1356 3103 1142 2972 
Q 928 2841 928 2578 
Q 928 2378 1081 2264 
Q 1234 2150 1697 2047 
L 1894 2003 
Q 2506 1872 2764 1633 
Q 3022 1394 3022 966 
Q 3022 478 2636 193 
Q 2250 -91 1575 -91 
Q 1294 -91 989 -36 
Q 684 19 347 128 
L 347 722 
Q 666 556 975 473 
Q 1284 391 1588 391 
Q 1994 391 2212 530 
Q 2431 669 2431 922 
Q 2431 1156 2273 1281 
Q 2116 1406 1581 1522 
L 1381 1569 
Q 847 1681 609 1914 
Q 372 2147 372 2553 
Q 372 3047 722 3315 
Q 1072 3584 1716 3584 
Q 2034 3584 2315 3537 
Q 2597 3491 2834 3397 
z
" transform="scale(0.015625)"/>
      </defs>
      <use xlink:href="#DejaVuSans-72"/>
      <use xlink:href="#DejaVuSans-61" x="41.113281"/>
      <use xlink:href="#DejaVuSans-64" x="102.392578"/>
      <use xlink:href="#DejaVuSans-2f" x="165.869141"/>
      <use xlink:href="#DejaVuSans-73" x="199.560547"/>
     </g>
    </g>
   </g>
   <g id="line2d_93">
    <path d="M 413.142629 268.199083 
L 414.998134 268.199083 
L 415.925886 268.199083 
L 417.781392 267.96833 
L 425.203412 267.878909 
L 427.058918 267.458789 
L 430.769928 267.54204 
L 432.625433 267.625292 
L 434.480938 267.625292 
L 436.336444 267.371348 
L 440.047454 267.445091 
L 441.902959 267.518833 
L 444.686217 267.457375 
L 446.541722 267.395916 
L 453.03599 267.317674 
L 454.891496 267.035253 
L 457.674753 267.035253 
L 459.530259 267.445379 
L 462.313516 267.445379 
L 464.169022 267.001821 
L 467.880032 267.112033 
L 469.735537 267.222244 
L 471.591042 267.222244 
L 473.446548 266.365105 
L 477.157558 266.455667 
L 479.013063 266.54623 
L 480.868568 266.54623 
L 482.724074 265.50375 
L 490.146094 265.58474 
L 492.0016 265.064822 
L 494.784857 265.064822 
L 496.640363 265.737405 
L 499.42362 265.737405 
L 501.279126 264.563253 
L 504.062383 264.563253 
L 505.917889 264.993056 
L 509.628899 265.086269 
L 511.484404 265.179483 
L 513.339909 265.179483 
L 515.195415 265.789521 
L 517.978672 265.789521 
L 519.834178 265.453201 
L 522.617435 265.453201 
L 524.472941 265.929878 
L 527.256198 265.929878 
L 529.111704 265.014096 
L 531.894961 265.014096 
L 534.678219 264.790797 
L 536.533724 264.790797 
L 538.38923 262.86931 
L 541.172487 262.86931 
L 543.027993 262.572686 
L 545.81125 262.572686 
L 547.666756 261.489109 
L 550.450013 261.489109 
L 552.305519 262.380206 
L 555.088776 262.380206 
L 556.944282 261.125358 
L 559.727539 261.125358 
L 561.583045 262.05873 
L 564.366302 262.05873 
L 566.221808 261.275618 
L 569.005065 261.275618 
L 570.860571 262.21405 
L 573.643828 262.21405 
L 575.499334 260.950997 
L 578.282591 260.950997 
L 580.138097 262.084053 
L 582.921354 262.084053 
L 584.77686 261.838888 
L 587.560117 261.838888 
L 589.415623 262.417664 
L 593.126633 262.516625 
L 594.982138 262.615586 
L 596.837643 262.615586 
L 598.693148 263.462796 
L 601.476406 263.462796 
L 603.331911 262.732941 
L 606.115169 262.732941 
L 607.970674 263.274136 
L 610.753932 263.274136 
L 612.609437 263.666312 
L 620.031458 263.768012 
L 624.670221 263.801127 
L 626.525726 265.044831 
L 633.947747 264.994164 
L 635.803252 266.30513 
L 638.58651 266.30513 
L 640.442015 265.980136 
L 644.153026 266.084414 
L 646.008531 266.188693 
L 647.864036 266.188693 
L 649.719541 266.795996 
L 652.502799 266.795996 
L 654.358304 267.736263 
L 657.141562 267.736263 
L 658.997067 267.417094 
L 661.780325 267.417094 
L 663.63583 268.193569 
L 666.419088 268.193569 
L 668.274593 268.855525 
L 670.130099 268.746107 
L 671.057851 268.800816 
L 671.057851 268.800816 
" clip-path="url(#pc4c878d6f7)" style="fill: none; stroke: #008fd5; stroke-width: 1.5"/>
   </g>
   <g id="line2d_94">
    <path d="M 413.142629 268.31662 
L 415.925886 268.31662 
L 417.781392 269.016969 
L 421.492402 268.948101 
L 423.347907 268.879232 
L 426.131165 268.970205 
L 427.98667 269.061177 
L 429.842175 269.061177 
L 431.697681 269.534371 
L 435.408691 269.63711 
L 437.264196 269.739848 
L 439.119701 269.739848 
L 440.975207 269.248328 
L 444.686217 269.345817 
L 446.541722 269.443306 
L 453.03599 269.508367 
L 455.819248 269.699666 
L 458.602506 269.590348 
L 460.458011 269.48103 
L 462.313516 269.48103 
L 464.169022 270.729237 
L 476.229805 270.733938 
L 478.085311 271.152872 
L 480.868568 271.152872 
L 482.724074 271.456101 
L 485.507331 271.456101 
L 487.362837 270.58063 
L 490.146094 270.58063 
L 492.0016 271.660549 
L 494.784857 271.660549 
L 496.640363 271.301565 
L 499.42362 271.301565 
L 501.279126 272.775355 
L 504.062383 272.775355 
L 505.917889 273.5076 
L 508.701146 273.5076 
L 510.556652 275.62559 
L 513.339909 275.62559 
L 515.195415 275.393921 
L 517.978672 275.393921 
L 519.834178 278.609721 
L 522.617435 278.609721 
L 524.472941 277.323946 
L 527.256198 277.323946 
L 529.111704 277.873233 
L 531.894961 277.873233 
L 533.750467 276.055789 
L 536.533724 276.055789 
L 538.38923 276.83359 
L 541.172487 276.83359 
L 543.027993 274.976338 
L 545.81125 274.976338 
L 547.666756 278.385014 
L 550.450013 278.385014 
L 552.305519 277.923437 
L 555.088776 277.923437 
L 556.944282 279.72657 
L 559.727539 279.72657 
L 561.583045 279.097382 
L 564.366302 279.097382 
L 566.221808 280.238796 
L 569.005065 280.238796 
L 570.860571 277.928227 
L 573.643828 277.928227 
L 575.499334 279.82693 
L 578.282591 279.82693 
L 580.138097 278.956406 
L 582.921354 278.956406 
L 584.77686 280.654932 
L 587.560117 280.654932 
L 589.415623 280.045407 
L 592.19888 280.045407 
L 594.054385 279.721855 
L 596.837643 279.721855 
L 598.693148 278.320089 
L 601.476406 278.320089 
L 603.331911 280.259803 
L 606.115169 280.259803 
L 607.970674 279.572343 
L 610.753932 279.572343 
L 612.609437 280.141414 
L 616.320448 280.226353 
L 618.175953 280.311292 
L 620.959211 280.411541 
L 622.814716 280.511791 
L 624.670221 280.511791 
L 626.525726 277.583012 
L 629.308984 277.583012 
L 631.164489 276.972232 
L 633.947747 276.972232 
L 635.803252 273.896393 
L 639.514263 273.991482 
L 641.369768 274.086571 
L 644.153026 274.182764 
L 646.008531 274.278957 
L 647.864036 274.278957 
L 649.719541 273.512248 
L 652.502799 273.512248 
L 654.358304 271.681759 
L 657.141562 271.681759 
L 658.997067 272.729082 
L 661.780325 272.729082 
L 663.63583 270.465156 
L 666.419088 270.465156 
L 668.274593 268.859126 
L 670.130099 268.748508 
L 671.057851 268.803817 
L 671.057851 268.803817 
" clip-path="url(#pc4c878d6f7)" style="fill: none; stroke: #fc4f30; stroke-width: 1.5"/>
   </g>
   <g id="line2d_95">
    <path d="M 399.272727 208.279339 
L 684 208.279339 
" clip-path="url(#pc4c878d6f7)" style="fill: none; stroke-dasharray: 5.55,2.4; stroke-dashoffset: 0; stroke: #000000; stroke-width: 1.5"/>
   </g>
   <g id="line2d_96">
    <path d="M 399.272727 328.775207 
L 684 328.775207 
" clip-path="url(#pc4c878d6f7)" style="fill: none; stroke-dasharray: 5.55,2.4; stroke-dashoffset: 0; stroke: #000000; stroke-width: 1.5"/>
   </g>
   <g id="patch_21">
    <path d="M 399.272727 334.8 
L 399.272727 202.254545 
" style="fill: none; stroke: #000000; stroke-width: 0.4; stroke-linejoin: miter; stroke-linecap: square"/>
   </g>
   <g id="patch_22">
    <path d="M 684 334.8 
L 684 202.254545 
" style="fill: none; stroke: #000000; stroke-width: 0.4; stroke-linejoin: miter; stroke-linecap: square"/>
   </g>
   <g id="patch_23">
    <path d="M 399.272727 334.8 
L 684 334.8 
" style="fill: none; stroke: #000000; stroke-width: 0.4; stroke-linejoin: miter; stroke-linecap: square"/>
   </g>
   <g id="patch_24">
    <path d="M 399.272727 202.254545 
L 684 202.254545 
" style="fill: none; stroke: #000000; stroke-width: 0.4; stroke-linejoin: miter; stroke-linecap: square"/>
   </g>
   <g id="legend_4">
    <g id="patch_25">
     <path d="M 624 254.334545 
L 675.6 254.334545 
Q 678 254.334545 678 251.934545 
L 678 210.654545 
Q 678 208.254545 675.6 208.254545 
L 624 208.254545 
Q 621.6 208.254545 621.6 210.654545 
L 621.6 251.934545 
Q 621.6 254.334545 624 254.334545 
z
" style="fill: #ffffff; opacity: 0.8; stroke: #000000; stroke-width: 0.5; stroke-linejoin: miter"/>
    </g>
    <g id="line2d_97">
     <path d="M 626.4 221.59892 
L 638.4 221.59892 
L 650.4 221.59892 
" style="fill: none; stroke: #008fd5; stroke-width: 1.5"/>
    </g>
    <g id="text_38">
     <!-- $\dot\theta_1$ -->
     <g transform="translate(660 225.79892) scale(0.12 -0.12)">
      <defs>
       <path id="DejaVuSans-307" d="M -1894 4863 
L -1319 4863 
L -1319 4134 
L -1894 4134 
L -1894 4863 
z
M -1600 3584 
L -1600 3584 
z
" transform="scale(0.015625)"/>
      </defs>
      <use xlink:href="#DejaVuSans-307" transform="translate(60.910156 34.015625)"/>
      <use xlink:href="#DejaVuSans-Oblique-3b8" transform="translate(0 0.75)"/>
      <use xlink:href="#DejaVuSans-31" transform="translate(62.138672 -15.65625) scale(0.7)"/>
     </g>
    </g>
    <g id="line2d_98">
     <path d="M 626.4 242.83892 
L 638.4 242.83892 
L 650.4 242.83892 
" style="fill: none; stroke: #fc4f30; stroke-width: 1.5"/>
    </g>
    <g id="text_39">
     <!-- $\dot\theta_2$ -->
     <g transform="translate(660 247.03892) scale(0.12 -0.12)">
      <use xlink:href="#DejaVuSans-307" transform="translate(60.910156 34.015625)"/>
      <use xlink:href="#DejaVuSans-Oblique-3b8" transform="translate(0 0.75)"/>
      <use xlink:href="#DejaVuSans-32" transform="translate(62.138672 -15.65625) scale(0.7)"/>
     </g>
    </g>
   </g>
  </g>
  <g id="text_40">
   <!-- L1: 0.44 m, L2: 0.41 m -->
   <g transform="translate(269.05 19.3575) scale(0.16 -0.16)">
    <defs>
     <path id="DejaVuSans-4c" d="M 628 4666 
L 1259 4666 
L 1259 531 
L 3531 531 
L 3531 0 
L 628 0 
L 628 4666 
z
" transform="scale(0.015625)"/>
     <path id="DejaVuSans-3a" d="M 750 794 
L 1409 794 
L 1409 0 
L 750 0 
L 750 794 
z
M 750 3309 
L 1409 3309 
L 1409 2516 
L 750 2516 
L 750 3309 
z
" transform="scale(0.015625)"/>
     <path id="DejaVuSans-2e" d="M 684 794 
L 1344 794 
L 1344 0 
L 684 0 
L 684 794 
z
" transform="scale(0.015625)"/>
     <path id="DejaVuSans-2c" d="M 750 794 
L 1409 794 
L 1409 256 
L 897 -744 
L 494 -744 
L 750 256 
L 750 794 
z
" transform="scale(0.015625)"/>
    </defs>
    <use xlink:href="#DejaVuSans-4c"/>
    <use xlink:href="#DejaVuSans-31" x="55.712891"/>
    <use xlink:href="#DejaVuSans-3a" x="119.335938"/>
    <use xlink:href="#DejaVuSans-20" x="153.027344"/>
    <use xlink:href="#DejaVuSans-30" x="184.814453"/>
    <use xlink:href="#DejaVuSans-2e" x="248.4375"/>
    <use xlink:href="#DejaVuSans-34" x="280.224609"/>
    <use xlink:href="#DejaVuSans-34" x="343.847656"/>
    <use xlink:href="#DejaVuSans-20" x="407.470703"/>
    <use xlink:href="#DejaVuSans-6d" x="439.257812"/>
    <use xlink:href="#DejaVuSans-2c" x="536.669922"/>
    <use xlink:href="#DejaVuSans-20" x="568.457031"/>
    <use xlink:href="#DejaVuSans-4c" x="600.244141"/>
    <use xlink:href="#DejaVuSans-32" x="655.957031"/>
    <use xlink:href="#DejaVuSans-3a" x="719.580078"/>
    <use xlink:href="#DejaVuSans-20" x="753.271484"/>
    <use xlink:href="#DejaVuSans-30" x="785.058594"/>
    <use xlink:href="#DejaVuSans-2e" x="848.681641"/>
    <use xlink:href="#DejaVuSans-34" x="880.46875"/>
    <use xlink:href="#DejaVuSans-31" x="944.091797"/>
    <use xlink:href="#DejaVuSans-20" x="1007.714844"/>
    <use xlink:href="#DejaVuSans-6d" x="1039.501953"/>
   </g>
  </g>
 </g>
 <defs>
  <clipPath id="p391d18a292">
   <rect x="57.6" y="43.2" width="284.727273" height="132.545455"/>
  </clipPath>
  <clipPath id="p56ed6e2379">
   <rect x="399.272727" y="43.2" width="284.727273" height="132.545455"/>
  </clipPath>
  <clipPath id="p65d89d9037">
   <rect x="57.6" y="202.254545" width="284.727273" height="132.545455"/>
  </clipPath>
  <clipPath id="pc4c878d6f7">
   <rect x="399.272727" y="202.254545" width="284.727273" height="132.545455"/>
  </clipPath>
 </defs>
</svg>
