<?xml version="1.0" encoding="utf-8" standalone="no"?>
<!DOCTYPE svg PUBLIC "-//W3C//DTD SVG 1.1//EN"
  "http://www.w3.org/Graphics/SVG/1.1/DTD/svg11.dtd">
<svg xmlns:xlink="http://www.w3.org/1999/xlink" width="440.39952pt" height="296.39952pt" viewBox="0 0 440.39952 296.39952" xmlns="http://www.w3.org/2000/svg" version="1.1">
 <metadata>
  <rdf:RDF xmlns:dc="http://purl.org/dc/elements/1.1/" xmlns:cc="http://creativecommons.org/ns#" xmlns:rdf="http://www.w3.org/1999/02/22-rdf-syntax-ns#">
   <cc:Work>
    <dc:type rdf:resource="http://purl.org/dc/dcmitype/StillImage"/>
    <dc:date>2024-03-15T09:17:57.740417</dc:date>
    <dc:format>image/svg+xml</dc:format>
    <dc:creator>
     <cc:Agent>
      <dc:title>Matplotlib v3.8.2, https://matplotlib.org/</dc:title>
     </cc:Agent>
    </dc:creator>
   </cc:Work>
  </rdf:RDF>
 </metadata>
 <defs>
  <style type="text/css">*{stroke-linejoin: round; stroke-linecap: butt}</style>
 </defs>
 <g id="figure_1">
  <g id="patch_1">
   <path d="M 0 296.39952 
L 440.39952 296.39952 
L 440.39952 0 
L 0 0 
z
" style="fill: #ffffff"/>
  </g>
  <g id="axes_1">
   <g id="patch_2">
    <path d="M 46.58375 253.47202 
L 433.19952 253.47202 
L 433.19952 93.1325 
L 46.58375 93.1325 
z
" style="fill: #ffffff"/>
   </g>
   <g id="matplotlib.axis_1">
    <g id="xtick_1">
     <g id="line2d_1">
      <defs>
       <path id="meffaba99b2" d="M 0 0 
L 0 5 
" style="stroke: #000000; stroke-width: 0.8"/>
      </defs>
      <g>
       <use xlink:href="#meffaba99b2" x="64.157194" y="253.47202" style="stroke: #000000; stroke-width: 0.8"/>
      </g>
     </g>
     <g id="text_1">
      <!-- 0% -->
      <g transform="translate(54.638757 271.090145) scale(0.12 -0.12)">
       <defs>
        <path id="DejaVuSans-30" d="M 2034 4250 
Q 1547 4250 1301 3770 
Q 1056 3291 1056 2328 
Q 1056 1369 1301 889 
Q 1547 409 2034 409 
Q 2525 409 2770 889 
Q 3016 1369 3016 2328 
Q 3016 3291 2770 3770 
Q 2525 4250 2034 4250 
z
M 2034 4750 
Q 2819 4750 3233 4129 
Q 3647 3509 3647 2328 
Q 3647 1150 3233 529 
Q 2819 -91 2034 -91 
Q 1250 -91 836 529 
Q 422 1150 422 2328 
Q 422 3509 836 4129 
Q 1250 4750 2034 4750 
z
" transform="scale(0.015625)"/>
        <path id="DejaVuSans-25" d="M 4653 2053 
Q 4381 2053 4226 1822 
Q 4072 1591 4072 1178 
Q 4072 772 4226 539 
Q 4381 306 4653 306 
Q 4919 306 5073 539 
Q 5228 772 5228 1178 
Q 5228 1588 5073 1820 
Q 4919 2053 4653 2053 
z
M 4653 2450 
Q 5147 2450 5437 2106 
Q 5728 1763 5728 1178 
Q 5728 594 5436 251 
Q 5144 -91 4653 -91 
Q 4153 -91 3862 251 
Q 3572 594 3572 1178 
Q 3572 1766 3864 2108 
Q 4156 2450 4653 2450 
z
M 1428 4353 
Q 1159 4353 1004 4120 
Q 850 3888 850 3481 
Q 850 3069 1003 2837 
Q 1156 2606 1428 2606 
Q 1700 2606 1854 2837 
Q 2009 3069 2009 3481 
Q 2009 3884 1853 4118 
Q 1697 4353 1428 4353 
z
M 4250 4750 
L 4750 4750 
L 1831 -91 
L 1331 -91 
L 4250 4750 
z
M 1428 4750 
Q 1922 4750 2215 4408 
Q 2509 4066 2509 3481 
Q 2509 2891 2217 2550 
Q 1925 2209 1428 2209 
Q 931 2209 642 2551 
Q 353 2894 353 3481 
Q 353 4063 643 4406 
Q 934 4750 1428 4750 
z
" transform="scale(0.015625)"/>
       </defs>
       <use xlink:href="#DejaVuSans-30"/>
       <use xlink:href="#DejaVuSans-25" x="63.623047"/>
      </g>
     </g>
    </g>
    <g id="xtick_2">
     <g id="line2d_2">
      <g>
       <use xlink:href="#meffaba99b2" x="415.626076" y="253.47202" style="stroke: #000000; stroke-width: 0.8"/>
      </g>
     </g>
     <g id="text_2">
      <!-- 100% -->
      <g transform="translate(398.472638 271.090145) scale(0.12 -0.12)">
       <defs>
        <path id="DejaVuSans-31" d="M 794 531 
L 1825 531 
L 1825 4091 
L 703 3866 
L 703 4441 
L 1819 4666 
L 2450 4666 
L 2450 531 
L 3481 531 
L 3481 0 
L 794 0 
L 794 531 
z
" transform="scale(0.015625)"/>
       </defs>
       <use xlink:href="#DejaVuSans-31"/>
       <use xlink:href="#DejaVuSans-30" x="63.623047"/>
       <use xlink:href="#DejaVuSans-30" x="127.246094"/>
       <use xlink:href="#DejaVuSans-25" x="190.869141"/>
      </g>
     </g>
    </g>
    <g id="text_3">
     <!-- Sit-to-Stand (%) -->
     <g transform="translate(191.858823 286.703895) scale(0.12 -0.12)">
      <defs>
       <path id="DejaVuSans-53" d="M 3425 4513 
L 3425 3897 
Q 3066 4069 2747 4153 
Q 2428 4238 2131 4238 
Q 1616 4238 1336 4038 
Q 1056 3838 1056 3469 
Q 1056 3159 1242 3001 
Q 1428 2844 1947 2747 
L 2328 2669 
Q 3034 2534 3370 2195 
Q 3706 1856 3706 1288 
Q 3706 609 3251 259 
Q 2797 -91 1919 -91 
Q 1588 -91 1214 -16 
Q 841 59 441 206 
L 441 856 
Q 825 641 1194 531 
Q 1563 422 1919 422 
Q 2459 422 2753 634 
Q 3047 847 3047 1241 
Q 3047 1584 2836 1778 
Q 2625 1972 2144 2069 
L 1759 2144 
Q 1053 2284 737 2584 
Q 422 2884 422 3419 
Q 422 4038 858 4394 
Q 1294 4750 2059 4750 
Q 2388 4750 2728 4690 
Q 3069 4631 3425 4513 
z
" transform="scale(0.015625)"/>
       <path id="DejaVuSans-69" d="M 603 3500 
L 1178 3500 
L 1178 0 
L 603 0 
L 603 3500 
z
M 603 4863 
L 1178 4863 
L 1178 4134 
L 603 4134 
L 603 4863 
z
" transform="scale(0.015625)"/>
       <path id="DejaVuSans-74" d="M 1172 4494 
L 1172 3500 
L 2356 3500 
L 2356 3053 
L 1172 3053 
L 1172 1153 
Q 1172 725 1289 603 
Q 1406 481 1766 481 
L 2356 481 
L 2356 0 
L 1766 0 
Q 1100 0 847 248 
Q 594 497 594 1153 
L 594 3053 
L 172 3053 
L 172 3500 
L 594 3500 
L 594 4494 
L 1172 4494 
z
" transform="scale(0.015625)"/>
       <path id="DejaVuSans-2d" d="M 313 2009 
L 1997 2009 
L 1997 1497 
L 313 1497 
L 313 2009 
z
" transform="scale(0.015625)"/>
       <path id="DejaVuSans-6f" d="M 1959 3097 
Q 1497 3097 1228 2736 
Q 959 2375 959 1747 
Q 959 1119 1226 758 
Q 1494 397 1959 397 
Q 2419 397 2687 759 
Q 2956 1122 2956 1747 
Q 2956 2369 2687 2733 
Q 2419 3097 1959 3097 
z
M 1959 3584 
Q 2709 3584 3137 3096 
Q 3566 2609 3566 1747 
Q 3566 888 3137 398 
Q 2709 -91 1959 -91 
Q 1206 -91 779 398 
Q 353 888 353 1747 
Q 353 2609 779 3096 
Q 1206 3584 1959 3584 
z
" transform="scale(0.015625)"/>
       <path id="DejaVuSans-61" d="M 2194 1759 
Q 1497 1759 1228 1600 
Q 959 1441 959 1056 
Q 959 750 1161 570 
Q 1363 391 1709 391 
Q 2188 391 2477 730 
Q 2766 1069 2766 1631 
L 2766 1759 
L 2194 1759 
z
M 3341 1997 
L 3341 0 
L 2766 0 
L 2766 531 
Q 2569 213 2275 61 
Q 1981 -91 1556 -91 
Q 1019 -91 701 211 
Q 384 513 384 1019 
Q 384 1609 779 1909 
Q 1175 2209 1959 2209 
L 2766 2209 
L 2766 2266 
Q 2766 2663 2505 2880 
Q 2244 3097 1772 3097 
Q 1472 3097 1187 3025 
Q 903 2953 641 2809 
L 641 3341 
Q 956 3463 1253 3523 
Q 1550 3584 1831 3584 
Q 2591 3584 2966 3190 
Q 3341 2797 3341 1997 
z
" transform="scale(0.015625)"/>
       <path id="DejaVuSans-6e" d="M 3513 2113 
L 3513 0 
L 2938 0 
L 2938 2094 
Q 2938 2591 2744 2837 
Q 2550 3084 2163 3084 
Q 1697 3084 1428 2787 
Q 1159 2491 1159 1978 
L 1159 0 
L 581 0 
L 581 3500 
L 1159 3500 
L 1159 2956 
Q 1366 3272 1645 3428 
Q 1925 3584 2291 3584 
Q 2894 3584 3203 3211 
Q 3513 2838 3513 2113 
z
" transform="scale(0.015625)"/>
       <path id="DejaVuSans-64" d="M 2906 2969 
L 2906 4863 
L 3481 4863 
L 3481 0 
L 2906 0 
L 2906 525 
Q 2725 213 2448 61 
Q 2172 -91 1784 -91 
Q 1150 -91 751 415 
Q 353 922 353 1747 
Q 353 2572 751 3078 
Q 1150 3584 1784 3584 
Q 2172 3584 2448 3432 
Q 2725 3281 2906 2969 
z
M 947 1747 
Q 947 1113 1208 752 
Q 1469 391 1925 391 
Q 2381 391 2643 752 
Q 2906 1113 2906 1747 
Q 2906 2381 2643 2742 
Q 2381 3103 1925 3103 
Q 1469 3103 1208 2742 
Q 947 2381 947 1747 
z
" transform="scale(0.015625)"/>
       <path id="DejaVuSans-20" transform="scale(0.015625)"/>
       <path id="DejaVuSans-28" d="M 1984 4856 
Q 1566 4138 1362 3434 
Q 1159 2731 1159 2009 
Q 1159 1288 1364 580 
Q 1569 -128 1984 -844 
L 1484 -844 
Q 1016 -109 783 600 
Q 550 1309 550 2009 
Q 550 2706 781 3412 
Q 1013 4119 1484 4856 
L 1984 4856 
z
" transform="scale(0.015625)"/>
       <path id="DejaVuSans-29" d="M 513 4856 
L 1013 4856 
Q 1481 4119 1714 3412 
Q 1947 2706 1947 2009 
Q 1947 1309 1714 600 
Q 1481 -109 1013 -844 
L 513 -844 
Q 928 -128 1133 580 
Q 1338 1288 1338 2009 
Q 1338 2731 1133 3434 
Q 928 4138 513 4856 
z
" transform="scale(0.015625)"/>
      </defs>
      <use xlink:href="#DejaVuSans-53"/>
      <use xlink:href="#DejaVuSans-69" x="63.476562"/>
      <use xlink:href="#DejaVuSans-74" x="91.259766"/>
      <use xlink:href="#DejaVuSans-2d" x="130.46875"/>
      <use xlink:href="#DejaVuSans-74" x="166.552734"/>
      <use xlink:href="#DejaVuSans-6f" x="205.761719"/>
      <use xlink:href="#DejaVuSans-2d" x="268.818359"/>
      <use xlink:href="#DejaVuSans-53" x="304.902344"/>
      <use xlink:href="#DejaVuSans-74" x="368.378906"/>
      <use xlink:href="#DejaVuSans-61" x="407.587891"/>
      <use xlink:href="#DejaVuSans-6e" x="468.867188"/>
      <use xlink:href="#DejaVuSans-64" x="532.246094"/>
      <use xlink:href="#DejaVuSans-20" x="595.722656"/>
      <use xlink:href="#DejaVuSans-28" x="627.509766"/>
      <use xlink:href="#DejaVuSans-25" x="666.523438"/>
      <use xlink:href="#DejaVuSans-29" x="761.542969"/>
     </g>
    </g>
   </g>
   <g id="matplotlib.axis_2">
    <g id="ytick_1">
     <g id="line2d_3">
      <defs>
       <path id="m30e6ad48a7" d="M 0 0 
L -5 0 
" style="stroke: #000000; stroke-width: 0.8"/>
      </defs>
      <g>
       <use xlink:href="#m30e6ad48a7" x="46.58375" y="244.108124" style="stroke: #000000; stroke-width: 0.8"/>
      </g>
     </g>
     <g id="text_4">
      <!-- 0 -->
      <g transform="translate(30.44875 248.667186) scale(0.12 -0.12)">
       <use xlink:href="#DejaVuSans-30"/>
      </g>
     </g>
    </g>
    <g id="ytick_2">
     <g id="line2d_4">
      <g>
       <use xlink:href="#m30e6ad48a7" x="46.58375" y="104.897122" style="stroke: #000000; stroke-width: 0.8"/>
      </g>
     </g>
     <g id="text_5">
      <!-- 60 -->
      <g transform="translate(22.81375 109.456185) scale(0.12 -0.12)">
       <defs>
        <path id="DejaVuSans-36" d="M 2113 2584 
Q 1688 2584 1439 2293 
Q 1191 2003 1191 1497 
Q 1191 994 1439 701 
Q 1688 409 2113 409 
Q 2538 409 2786 701 
Q 3034 994 3034 1497 
Q 3034 2003 2786 2293 
Q 2538 2584 2113 2584 
z
M 3366 4563 
L 3366 3988 
Q 3128 4100 2886 4159 
Q 2644 4219 2406 4219 
Q 1781 4219 1451 3797 
Q 1122 3375 1075 2522 
Q 1259 2794 1537 2939 
Q 1816 3084 2150 3084 
Q 2853 3084 3261 2657 
Q 3669 2231 3669 1497 
Q 3669 778 3244 343 
Q 2819 -91 2113 -91 
Q 1303 -91 875 529 
Q 447 1150 447 2328 
Q 447 3434 972 4092 
Q 1497 4750 2381 4750 
Q 2619 4750 2861 4703 
Q 3103 4656 3366 4563 
z
" transform="scale(0.015625)"/>
       </defs>
       <use xlink:href="#DejaVuSans-36"/>
       <use xlink:href="#DejaVuSans-30" x="63.623047"/>
      </g>
     </g>
    </g>
    <g id="text_6">
     <!-- Assistance (N) -->
     <g transform="translate(16.318125 216.350385) rotate(-90) scale(0.12 -0.12)">
      <defs>
       <path id="DejaVuSans-41" d="M 2188 4044 
L 1331 1722 
L 3047 1722 
L 2188 4044 
z
M 1831 4666 
L 2547 4666 
L 4325 0 
L 3669 0 
L 3244 1197 
L 1141 1197 
L 716 0 
L 50 0 
L 1831 4666 
z
" transform="scale(0.015625)"/>
       <path id="DejaVuSans-73" d="M 2834 3397 
L 2834 2853 
Q 2591 2978 2328 3040 
Q 2066 3103 1784 3103 
Q 1356 3103 1142 2972 
Q 928 2841 928 2578 
Q 928 2378 1081 2264 
Q 1234 2150 1697 2047 
L 1894 2003 
Q 2506 1872 2764 1633 
Q 3022 1394 3022 966 
Q 3022 478 2636 193 
Q 2250 -91 1575 -91 
Q 1294 -91 989 -36 
Q 684 19 347 128 
L 347 722 
Q 666 556 975 473 
Q 1284 391 1588 391 
Q 1994 391 2212 530 
Q 2431 669 2431 922 
Q 2431 1156 2273 1281 
Q 2116 1406 1581 1522 
L 1381 1569 
Q 847 1681 609 1914 
Q 372 2147 372 2553 
Q 372 3047 722 3315 
Q 1072 3584 1716 3584 
Q 2034 3584 2315 3537 
Q 2597 3491 2834 3397 
z
" transform="scale(0.015625)"/>
       <path id="DejaVuSans-63" d="M 3122 3366 
L 3122 2828 
Q 2878 2963 2633 3030 
Q 2388 3097 2138 3097 
Q 1578 3097 1268 2742 
Q 959 2388 959 1747 
Q 959 1106 1268 751 
Q 1578 397 2138 397 
Q 2388 397 2633 464 
Q 2878 531 3122 666 
L 3122 134 
Q 2881 22 2623 -34 
Q 2366 -91 2075 -91 
Q 1284 -91 818 406 
Q 353 903 353 1747 
Q 353 2603 823 3093 
Q 1294 3584 2113 3584 
Q 2378 3584 2631 3529 
Q 2884 3475 3122 3366 
z
" transform="scale(0.015625)"/>
       <path id="DejaVuSans-65" d="M 3597 1894 
L 3597 1613 
L 953 1613 
Q 991 1019 1311 708 
Q 1631 397 2203 397 
Q 2534 397 2845 478 
Q 3156 559 3463 722 
L 3463 178 
Q 3153 47 2828 -22 
Q 2503 -91 2169 -91 
Q 1331 -91 842 396 
Q 353 884 353 1716 
Q 353 2575 817 3079 
Q 1281 3584 2069 3584 
Q 2775 3584 3186 3129 
Q 3597 2675 3597 1894 
z
M 3022 2063 
Q 3016 2534 2758 2815 
Q 2500 3097 2075 3097 
Q 1594 3097 1305 2825 
Q 1016 2553 972 2059 
L 3022 2063 
z
" transform="scale(0.015625)"/>
       <path id="DejaVuSans-4e" d="M 628 4666 
L 1478 4666 
L 3547 763 
L 3547 4666 
L 4159 4666 
L 4159 0 
L 3309 0 
L 1241 3903 
L 1241 0 
L 628 0 
L 628 4666 
z
" transform="scale(0.015625)"/>
      </defs>
      <use xlink:href="#DejaVuSans-41"/>
      <use xlink:href="#DejaVuSans-73" x="68.408203"/>
      <use xlink:href="#DejaVuSans-73" x="120.507812"/>
      <use xlink:href="#DejaVuSans-69" x="172.607422"/>
      <use xlink:href="#DejaVuSans-73" x="200.390625"/>
      <use xlink:href="#DejaVuSans-74" x="252.490234"/>
      <use xlink:href="#DejaVuSans-61" x="291.699219"/>
      <use xlink:href="#DejaVuSans-6e" x="352.978516"/>
      <use xlink:href="#DejaVuSans-63" x="416.357422"/>
      <use xlink:href="#DejaVuSans-65" x="471.337891"/>
      <use xlink:href="#DejaVuSans-20" x="532.861328"/>
      <use xlink:href="#DejaVuSans-28" x="564.648438"/>
      <use xlink:href="#DejaVuSans-4e" x="603.662109"/>
      <use xlink:href="#DejaVuSans-29" x="678.466797"/>
     </g>
    </g>
   </g>
   <g id="patch_3">
    <path d="M 60.181315 248.661834 
Q 239.891618 248.661834 417.365854 248.661834 
" clip-path="url(#p1f1c98d718)" style="fill: none; stroke: #000000; stroke-width: 2; stroke-linecap: round"/>
    <path d="M 409.365854 244.661834 
L 417.365854 248.661834 
L 409.365854 252.661834 
z
" clip-path="url(#p1f1c98d718)" style="stroke: #000000; stroke-width: 2; stroke-linecap: round"/>
   </g>
   <g id="patch_4">
    <path d="M 58.182223 246.663609 
Q 58.182223 170.898387 58.182223 97.369233 
" clip-path="url(#p1f1c98d718)" style="fill: none; stroke: #000000; stroke-width: 2; stroke-linecap: round"/>
    <path d="M 54.182223 105.369233 
L 58.182223 97.369233 
L 62.182223 105.369233 
z
" clip-path="url(#p1f1c98d718)" style="stroke: #000000; stroke-width: 2; stroke-linecap: round"/>
   </g>
   <g id="line2d_5">
    <path d="M 64.157194 244.032172 
L 65.416939 243.80704 
L 66.676684 243.436816 
L 67.936429 242.925587 
L 69.196174 242.277439 
L 71.715665 240.586738 
L 74.235155 238.397409 
L 76.754645 235.74215 
L 79.274135 232.653657 
L 81.793625 229.164628 
L 84.313116 225.307758 
L 86.832606 221.115746 
L 90.611841 214.270858 
L 94.391076 206.855818 
L 98.170312 198.980979 
L 103.209292 187.956681 
L 112.027508 167.956067 
L 119.585978 150.998647 
L 124.624959 140.252273 
L 128.404194 132.671705 
L 132.183429 125.624506 
L 134.702919 121.277183 
L 137.22241 117.248655 
L 139.7419 113.571618 
L 142.26139 110.27877 
L 144.78088 107.402806 
L 147.30037 104.976425 
L 149.819861 103.032323 
L 151.079606 102.251345 
L 152.339351 101.603197 
L 153.599096 101.091968 
L 154.858841 100.721744 
L 156.118586 100.496612 
L 158.638076 100.432313 
L 162.417312 100.605155 
L 166.196547 100.979706 
L 169.975782 101.54939 
L 173.755017 102.307628 
L 177.534253 103.247844 
L 182.573233 104.773172 
L 187.612214 106.594731 
L 192.651194 108.696929 
L 197.690174 111.064176 
L 202.729155 113.68088 
L 207.768135 116.531451 
L 212.807115 119.600296 
L 219.105841 123.719551 
L 225.404566 128.125048 
L 231.703292 132.786337 
L 239.261762 138.674652 
L 246.820233 144.834837 
L 255.638449 152.295132 
L 266.976155 162.190966 
L 304.768507 195.462103 
L 313.586723 202.804734 
L 321.145194 208.835562 
L 328.703664 214.56821 
L 335.00239 219.079678 
L 341.301115 223.317084 
L 347.599841 227.249976 
L 352.638821 230.156577 
L 357.677801 232.83321 
L 362.716782 235.264282 
L 367.755762 237.434205 
L 372.794743 239.327385 
L 377.833723 240.928232 
L 381.612958 241.927645 
L 385.392194 242.747274 
L 389.171429 243.38054 
L 392.950664 243.820866 
L 396.729899 244.061675 
L 401.76888 244.108124 
L 415.626076 244.108124 
L 415.626076 244.108124 
" clip-path="url(#p1f1c98d718)" style="fill: none; stroke: #008fd5; stroke-opacity: 0.7; stroke-width: 3"/>
   </g>
   <g id="line2d_6">
    <path d="M 64.157194 244.067755 
L 66.676684 243.749539 
L 69.196174 243.125203 
L 71.715665 242.207373 
L 74.235155 241.00867 
L 76.754645 239.541718 
L 79.274135 237.819142 
L 81.793625 235.853564 
L 84.313116 233.657608 
L 86.832606 231.243897 
L 90.611841 227.242654 
L 94.391076 222.82247 
L 98.170312 218.02595 
L 101.949547 212.895696 
L 106.988527 205.609856 
L 112.027508 197.907441 
L 118.326233 187.847463 
L 128.404194 171.218157 
L 138.482155 154.639345 
L 144.78088 144.662209 
L 149.819861 137.054469 
L 154.858841 129.888551 
L 158.638076 124.864809 
L 162.417312 120.189 
L 166.196547 115.903729 
L 169.975782 112.051601 
L 172.495272 109.74519 
L 175.014763 107.662845 
L 177.534253 105.81719 
L 180.053743 104.220848 
L 182.573233 102.886443 
L 185.092723 101.826598 
L 187.612214 101.053937 
L 190.131704 100.581083 
L 192.651194 100.42066 
L 196.430429 100.563144 
L 200.209664 100.98356 
L 203.9889 101.671353 
L 207.768135 102.615969 
L 211.54737 103.806854 
L 215.326606 105.233453 
L 219.105841 106.885212 
L 222.885076 108.751577 
L 226.664311 110.821992 
L 231.703292 113.881717 
L 236.742272 117.260419 
L 241.781253 120.93308 
L 246.820233 124.874681 
L 251.859213 129.060206 
L 258.157939 134.597015 
L 264.456664 140.427002 
L 272.015135 147.741181 
L 280.833351 156.606397 
L 293.430802 169.636484 
L 312.326978 189.206046 
L 321.145194 198.027481 
L 328.703664 205.288888 
L 335.00239 211.064148 
L 341.301115 216.536459 
L 346.340096 220.663348 
L 351.379076 224.54006 
L 356.418056 228.141576 
L 361.457037 231.442879 
L 366.496017 234.418951 
L 370.275252 236.422522 
L 374.054488 238.218524 
L 377.833723 239.796403 
L 381.612958 241.145603 
L 385.392194 242.255571 
L 389.171429 243.115752 
L 392.950664 243.715593 
L 396.729899 244.044537 
L 400.509135 244.108124 
L 415.626076 244.108124 
L 415.626076 244.108124 
" clip-path="url(#p1f1c98d718)" style="fill: none; stroke: #fc4f30; stroke-opacity: 0.7; stroke-width: 3"/>
   </g>
   <g id="line2d_7">
    <path d="M 64.157194 244.083133 
L 66.676684 243.885507 
L 69.196174 243.496135 
L 71.715665 242.921152 
L 74.235155 242.166696 
L 76.754645 241.238901 
L 79.274135 240.143904 
L 83.053371 238.201325 
L 86.832606 235.917056 
L 90.611841 233.311803 
L 94.391076 230.406276 
L 98.170312 227.221184 
L 101.949547 223.777235 
L 106.988527 218.818428 
L 112.027508 213.485334 
L 117.066488 207.827038 
L 123.365214 200.371635 
L 130.923684 190.990655 
L 139.7419 179.656487 
L 161.157566 151.948107 
L 168.716037 142.636156 
L 175.014763 135.259369 
L 180.053743 129.677772 
L 185.092723 124.433647 
L 190.131704 119.576083 
L 193.910939 116.216118 
L 197.690174 113.121913 
L 201.46941 110.314177 
L 205.248645 107.813618 
L 209.02788 105.640944 
L 212.807115 103.816865 
L 215.326606 102.804702 
L 217.846096 101.962809 
L 220.365586 101.297323 
L 222.885076 100.814378 
L 225.404566 100.520112 
L 227.924057 100.42066 
L 230.443547 100.512969 
L 232.963037 100.78624 
L 235.482527 101.234989 
L 238.002017 101.853733 
L 240.521508 102.636987 
L 244.300743 104.108331 
L 248.079978 105.918979 
L 251.859213 108.050424 
L 255.638449 110.484156 
L 259.417684 113.201671 
L 263.196919 116.184459 
L 266.976155 119.414013 
L 272.015135 124.071956 
L 277.054115 129.091823 
L 282.093096 134.429744 
L 288.391821 141.482577 
L 294.690547 148.878141 
L 302.249017 158.084582 
L 314.846468 173.849066 
L 327.443919 189.545004 
L 335.00239 198.644512 
L 341.301115 205.913266 
L 347.599841 212.805015 
L 352.638821 217.989393 
L 357.677801 222.833782 
L 361.457037 226.217565 
L 365.236272 229.36692 
L 369.015507 232.26334 
L 372.794743 234.888317 
L 376.573978 237.223343 
L 380.353213 239.249912 
L 384.132449 240.949515 
L 387.911684 242.303645 
L 390.431174 243.00533 
L 392.950664 243.539762 
L 395.470154 243.901457 
L 397.989645 244.084932 
L 404.28837 244.108124 
L 415.626076 244.108124 
L 415.626076 244.108124 
" clip-path="url(#p1f1c98d718)" style="fill: none; stroke: #e5ae38; stroke-opacity: 0.7; stroke-width: 3"/>
   </g>
   <g id="line2d_8">
    <path d="M 64.157194 244.091145 
L 67.936429 243.839886 
L 71.715665 243.297154 
L 75.4949 242.474532 
L 79.274135 241.383599 
L 83.053371 240.035939 
L 86.832606 238.443133 
L 90.611841 236.616762 
L 94.391076 234.568409 
L 98.170312 232.309655 
L 103.209292 228.99071 
L 108.248272 225.345761 
L 113.287253 221.402262 
L 118.326233 217.187665 
L 124.624959 211.58001 
L 130.923684 205.64528 
L 138.482155 198.167359 
L 147.30037 189.069036 
L 158.638076 177.005724 
L 180.053743 154.140471 
L 188.871959 145.091691 
L 196.430429 137.672965 
L 202.729155 131.799361 
L 209.02788 126.263556 
L 214.066861 122.11416 
L 219.105841 118.242724 
L 224.144821 114.676703 
L 229.183802 111.443548 
L 232.963037 109.253641 
L 236.742272 107.277995 
L 240.521508 105.528192 
L 244.300743 104.015814 
L 248.079978 102.752443 
L 251.859213 101.749661 
L 255.638449 101.019048 
L 259.417684 100.572187 
L 263.196919 100.42066 
L 265.716409 100.566662 
L 268.2359 100.997366 
L 270.75539 101.701824 
L 273.27488 102.669084 
L 275.79437 103.888198 
L 278.31386 105.348214 
L 280.833351 107.038182 
L 283.352841 108.947153 
L 285.872331 111.064176 
L 289.651566 114.605855 
L 293.430802 118.554057 
L 297.210037 122.871826 
L 300.989272 127.522205 
L 304.768507 132.468237 
L 309.807488 139.458976 
L 314.846468 146.822018 
L 321.145194 156.415919 
L 331.223154 172.264392 
L 342.56086 190.05902 
L 348.859586 199.577639 
L 353.898566 206.855818 
L 358.937547 213.739793 
L 362.716782 218.591381 
L 366.496017 223.134996 
L 370.275252 227.333682 
L 374.054488 231.150483 
L 377.833723 234.548442 
L 380.353213 236.562807 
L 382.872703 238.363646 
L 385.392194 239.940007 
L 387.911684 241.28094 
L 390.431174 242.375496 
L 392.950664 243.212724 
L 395.470154 243.781674 
L 397.989645 244.071395 
L 403.028625 244.108124 
L 415.626076 244.108124 
L 415.626076 244.108124 
" clip-path="url(#p1f1c98d718)" style="fill: none; stroke: #6d904f; stroke-opacity: 0.7; stroke-width: 3"/>
   </g>
   <g id="line2d_9">
    <path d="M 64.157194 244.095841 
L 67.936429 243.913705 
L 71.715665 243.519175 
L 75.4949 242.919372 
L 79.274135 242.121414 
L 83.053371 241.13242 
L 86.832606 239.959511 
L 91.871586 238.121845 
L 96.910567 235.986749 
L 101.949547 233.571099 
L 106.988527 230.891771 
L 112.027508 227.965638 
L 117.066488 224.809578 
L 123.365214 220.566876 
L 129.663939 216.024238 
L 135.962665 211.214626 
L 143.521135 205.137092 
L 151.079606 198.779531 
L 159.897821 191.084437 
L 171.235527 180.890151 
L 203.9889 151.22004 
L 212.807115 143.602467 
L 220.365586 137.33192 
L 227.924057 131.360385 
L 234.222782 126.653608 
L 240.521508 122.226989 
L 246.820233 118.113489 
L 251.859213 115.070284 
L 256.898194 112.265444 
L 261.937174 109.715845 
L 266.976155 107.438363 
L 272.015135 105.449873 
L 277.054115 103.76725 
L 280.833351 102.71616 
L 284.612586 101.853733 
L 288.391821 101.187087 
L 292.171056 100.723341 
L 295.950292 100.469616 
L 298.469782 100.42066 
L 299.729527 100.487452 
L 300.989272 100.685584 
L 302.249017 101.011687 
L 303.508762 101.462394 
L 306.028253 102.72415 
L 308.547743 104.443909 
L 311.067233 106.594731 
L 313.586723 109.149673 
L 316.106213 112.081796 
L 318.625704 115.364156 
L 321.145194 118.969814 
L 323.664684 122.871826 
L 327.443919 129.221577 
L 331.223154 136.086583 
L 335.00239 143.375915 
L 340.04137 153.597931 
L 347.599841 169.570813 
L 357.677801 190.930853 
L 362.716782 201.152869 
L 366.496017 208.442201 
L 370.275252 215.307207 
L 374.054488 221.656958 
L 376.573978 225.55897 
L 379.093468 229.164628 
L 381.612958 232.446988 
L 384.132449 235.379111 
L 386.651939 237.934053 
L 389.171429 240.084875 
L 391.690919 241.804634 
L 394.210409 243.06639 
L 395.470154 243.517097 
L 396.729899 243.8432 
L 397.989645 244.041332 
L 400.509135 244.108124 
L 415.626076 244.108124 
L 415.626076 244.108124 
" clip-path="url(#p1f1c98d718)" style="fill: none; stroke: #8b8b8b; stroke-opacity: 0.7; stroke-width: 3"/>
   </g>
   <g id="line2d_10">
    <path d="M 64.157194 244.098828 
L 69.196174 243.878606 
L 74.235155 243.373853 
L 79.274135 242.595675 
L 84.313116 241.555173 
L 89.352096 240.263451 
L 94.391076 238.731614 
L 99.430057 236.970764 
L 104.469037 234.992006 
L 109.508018 232.806443 
L 115.806743 229.800585 
L 122.105469 226.51063 
L 128.404194 222.958266 
L 134.702919 219.165179 
L 142.26139 214.326254 
L 149.819861 209.209393 
L 158.638076 202.938433 
L 167.456292 196.399686 
L 178.793998 187.695009 
L 193.910939 175.7718 
L 220.365586 154.876125 
L 231.703292 146.237029 
L 240.521508 139.76872 
L 249.339723 133.585202 
L 256.898194 128.556822 
L 264.456664 123.818871 
L 270.75539 120.119471 
L 277.054115 116.669468 
L 283.352841 113.49055 
L 289.651566 110.604403 
L 294.690547 108.520854 
L 299.729527 106.649663 
L 304.768507 105.001931 
L 309.807488 103.588764 
L 314.846468 102.421264 
L 319.885449 101.510536 
L 324.924429 100.867682 
L 329.963409 100.503807 
L 333.742645 100.42066 
L 335.00239 100.578033 
L 336.262135 101.041976 
L 337.52188 101.800226 
L 338.781625 102.840522 
L 340.04137 104.150599 
L 341.301115 105.718195 
L 342.56086 107.531048 
L 343.820605 109.576893 
L 346.340096 114.318514 
L 348.859586 119.844955 
L 351.379076 126.058114 
L 353.898566 132.859887 
L 357.677801 143.951601 
L 361.457037 155.815873 
L 376.573978 204.376611 
L 380.353213 215.137229 
L 382.872703 221.656958 
L 385.392194 227.53902 
L 387.911684 232.685314 
L 390.431174 236.997736 
L 391.690919 238.810589 
L 392.950664 240.378185 
L 394.210409 241.688262 
L 395.470154 242.728558 
L 396.729899 243.486808 
L 397.989645 243.950751 
L 399.24939 244.108124 
L 415.626076 244.108124 
L 415.626076 244.108124 
" clip-path="url(#p1f1c98d718)" style="fill: none; stroke: #810f7c; stroke-opacity: 0.7; stroke-width: 3"/>
   </g>
   <g id="line2d_11">
    <path d="M 64.157194 246.18386 
L 65.416939 240.390322 
L 66.676684 236.9142 
L 79.274135 190.23846 
L 89.352096 151.850067 
L 101.949547 138.095338 
L 114.546998 139.507297 
L 127.144449 142.46102 
L 139.7419 143.917566 
L 152.339351 143.609544 
L 164.936802 138.946864 
L 177.534253 131.824243 
L 190.131704 128.345986 
L 202.729155 123.625428 
L 215.326606 110.027684 
L 227.924057 100.42066 
L 240.521508 107.193377 
L 253.118959 127.419542 
L 265.716409 164.257802 
L 279.573606 233.82189 
L 280.833351 240.437149 
L 282.093096 244.108124 
L 415.626076 244.108124 
L 415.626076 244.108124 
" clip-path="url(#p1f1c98d718)" style="fill: none; stroke-dasharray: 11.1,4.8; stroke-dashoffset: 0; stroke: #000000; stroke-opacity: 0.7; stroke-width: 3"/>
   </g>
   <g id="legend_1">
    <g id="line2d_12">
     <path d="M 65.248381 13.67875 
L 73.248381 13.67875 
L 81.248381 13.67875 
" style="fill: none; stroke: #008fd5; stroke-opacity: 0.7; stroke-width: 3"/>
    </g>
    <g id="text_7">
     <!-- peak_27%_62N -->
     <g transform="translate(87.648381 16.47875) scale(0.08 -0.08)">
      <defs>
       <path id="DejaVuSans-70" d="M 1159 525 
L 1159 -1331 
L 581 -1331 
L 581 3500 
L 1159 3500 
L 1159 2969 
Q 1341 3281 1617 3432 
Q 1894 3584 2278 3584 
Q 2916 3584 3314 3078 
Q 3713 2572 3713 1747 
Q 3713 922 3314 415 
Q 2916 -91 2278 -91 
Q 1894 -91 1617 61 
Q 1341 213 1159 525 
z
M 3116 1747 
Q 3116 2381 2855 2742 
Q 2594 3103 2138 3103 
Q 1681 3103 1420 2742 
Q 1159 2381 1159 1747 
Q 1159 1113 1420 752 
Q 1681 391 2138 391 
Q 2594 391 2855 752 
Q 3116 1113 3116 1747 
z
" transform="scale(0.015625)"/>
       <path id="DejaVuSans-6b" d="M 581 4863 
L 1159 4863 
L 1159 1991 
L 2875 3500 
L 3609 3500 
L 1753 1863 
L 3688 0 
L 2938 0 
L 1159 1709 
L 1159 0 
L 581 0 
L 581 4863 
z
" transform="scale(0.015625)"/>
       <path id="DejaVuSans-5f" d="M 3263 -1063 
L 3263 -1509 
L -63 -1509 
L -63 -1063 
L 3263 -1063 
z
" transform="scale(0.015625)"/>
       <path id="DejaVuSans-32" d="M 1228 531 
L 3431 531 
L 3431 0 
L 469 0 
L 469 531 
Q 828 903 1448 1529 
Q 2069 2156 2228 2338 
Q 2531 2678 2651 2914 
Q 2772 3150 2772 3378 
Q 2772 3750 2511 3984 
Q 2250 4219 1831 4219 
Q 1534 4219 1204 4116 
Q 875 4013 500 3803 
L 500 4441 
Q 881 4594 1212 4672 
Q 1544 4750 1819 4750 
Q 2544 4750 2975 4387 
Q 3406 4025 3406 3419 
Q 3406 3131 3298 2873 
Q 3191 2616 2906 2266 
Q 2828 2175 2409 1742 
Q 1991 1309 1228 531 
z
" transform="scale(0.015625)"/>
       <path id="DejaVuSans-37" d="M 525 4666 
L 3525 4666 
L 3525 4397 
L 1831 0 
L 1172 0 
L 2766 4134 
L 525 4134 
L 525 4666 
z
" transform="scale(0.015625)"/>
      </defs>
      <use xlink:href="#DejaVuSans-70"/>
      <use xlink:href="#DejaVuSans-65" x="63.476562"/>
      <use xlink:href="#DejaVuSans-61" x="125"/>
      <use xlink:href="#DejaVuSans-6b" x="186.279297"/>
      <use xlink:href="#DejaVuSans-5f" x="244.189453"/>
      <use xlink:href="#DejaVuSans-32" x="294.189453"/>
      <use xlink:href="#DejaVuSans-37" x="357.8125"/>
      <use xlink:href="#DejaVuSans-25" x="421.435547"/>
      <use xlink:href="#DejaVuSans-5f" x="516.455078"/>
      <use xlink:href="#DejaVuSans-36" x="566.455078"/>
      <use xlink:href="#DejaVuSans-32" x="630.078125"/>
      <use xlink:href="#DejaVuSans-4e" x="693.701172"/>
     </g>
    </g>
    <g id="line2d_13">
     <path d="M 65.248381 25.64375 
L 73.248381 25.64375 
L 81.248381 25.64375 
" style="fill: none; stroke: #fc4f30; stroke-opacity: 0.7; stroke-width: 3"/>
    </g>
    <g id="text_8">
     <!-- peak_37%_62N -->
     <g transform="translate(87.648381 28.44375) scale(0.08 -0.08)">
      <defs>
       <path id="DejaVuSans-33" d="M 2597 2516 
Q 3050 2419 3304 2112 
Q 3559 1806 3559 1356 
Q 3559 666 3084 287 
Q 2609 -91 1734 -91 
Q 1441 -91 1130 -33 
Q 819 25 488 141 
L 488 750 
Q 750 597 1062 519 
Q 1375 441 1716 441 
Q 2309 441 2620 675 
Q 2931 909 2931 1356 
Q 2931 1769 2642 2001 
Q 2353 2234 1838 2234 
L 1294 2234 
L 1294 2753 
L 1863 2753 
Q 2328 2753 2575 2939 
Q 2822 3125 2822 3475 
Q 2822 3834 2567 4026 
Q 2313 4219 1838 4219 
Q 1578 4219 1281 4162 
Q 984 4106 628 3988 
L 628 4550 
Q 988 4650 1302 4700 
Q 1616 4750 1894 4750 
Q 2613 4750 3031 4423 
Q 3450 4097 3450 3541 
Q 3450 3153 3228 2886 
Q 3006 2619 2597 2516 
z
" transform="scale(0.015625)"/>
      </defs>
      <use xlink:href="#DejaVuSans-70"/>
      <use xlink:href="#DejaVuSans-65" x="63.476562"/>
      <use xlink:href="#DejaVuSans-61" x="125"/>
      <use xlink:href="#DejaVuSans-6b" x="186.279297"/>
      <use xlink:href="#DejaVuSans-5f" x="244.189453"/>
      <use xlink:href="#DejaVuSans-33" x="294.189453"/>
      <use xlink:href="#DejaVuSans-37" x="357.8125"/>
      <use xlink:href="#DejaVuSans-25" x="421.435547"/>
      <use xlink:href="#DejaVuSans-5f" x="516.455078"/>
      <use xlink:href="#DejaVuSans-36" x="566.455078"/>
      <use xlink:href="#DejaVuSans-32" x="630.078125"/>
      <use xlink:href="#DejaVuSans-4e" x="693.701172"/>
     </g>
    </g>
    <g id="line2d_14">
     <path d="M 65.248381 37.60875 
L 73.248381 37.60875 
L 81.248381 37.60875 
" style="fill: none; stroke: #e5ae38; stroke-opacity: 0.7; stroke-width: 3"/>
    </g>
    <g id="text_9">
     <!-- peak_47%_62N -->
     <g transform="translate(87.648381 40.40875) scale(0.08 -0.08)">
      <defs>
       <path id="DejaVuSans-34" d="M 2419 4116 
L 825 1625 
L 2419 1625 
L 2419 4116 
z
M 2253 4666 
L 3047 4666 
L 3047 1625 
L 3713 1625 
L 3713 1100 
L 3047 1100 
L 3047 0 
L 2419 0 
L 2419 1100 
L 313 1100 
L 313 1709 
L 2253 4666 
z
" transform="scale(0.015625)"/>
      </defs>
      <use xlink:href="#DejaVuSans-70"/>
      <use xlink:href="#DejaVuSans-65" x="63.476562"/>
      <use xlink:href="#DejaVuSans-61" x="125"/>
      <use xlink:href="#DejaVuSans-6b" x="186.279297"/>
      <use xlink:href="#DejaVuSans-5f" x="244.189453"/>
      <use xlink:href="#DejaVuSans-34" x="294.189453"/>
      <use xlink:href="#DejaVuSans-37" x="357.8125"/>
      <use xlink:href="#DejaVuSans-25" x="421.435547"/>
      <use xlink:href="#DejaVuSans-5f" x="516.455078"/>
      <use xlink:href="#DejaVuSans-36" x="566.455078"/>
      <use xlink:href="#DejaVuSans-32" x="630.078125"/>
      <use xlink:href="#DejaVuSans-4e" x="693.701172"/>
     </g>
    </g>
    <g id="line2d_15">
     <path d="M 65.248381 49.57375 
L 73.248381 49.57375 
L 81.248381 49.57375 
" style="fill: none; stroke: #6d904f; stroke-opacity: 0.7; stroke-width: 3"/>
    </g>
    <g id="text_10">
     <!-- peak_57%_62N -->
     <g transform="translate(87.648381 52.37375) scale(0.08 -0.08)">
      <defs>
       <path id="DejaVuSans-35" d="M 691 4666 
L 3169 4666 
L 3169 4134 
L 1269 4134 
L 1269 2991 
Q 1406 3038 1543 3061 
Q 1681 3084 1819 3084 
Q 2600 3084 3056 2656 
Q 3513 2228 3513 1497 
Q 3513 744 3044 326 
Q 2575 -91 1722 -91 
Q 1428 -91 1123 -41 
Q 819 9 494 109 
L 494 744 
Q 775 591 1075 516 
Q 1375 441 1709 441 
Q 2250 441 2565 725 
Q 2881 1009 2881 1497 
Q 2881 1984 2565 2268 
Q 2250 2553 1709 2553 
Q 1456 2553 1204 2497 
Q 953 2441 691 2322 
L 691 4666 
z
" transform="scale(0.015625)"/>
      </defs>
      <use xlink:href="#DejaVuSans-70"/>
      <use xlink:href="#DejaVuSans-65" x="63.476562"/>
      <use xlink:href="#DejaVuSans-61" x="125"/>
      <use xlink:href="#DejaVuSans-6b" x="186.279297"/>
      <use xlink:href="#DejaVuSans-5f" x="244.189453"/>
      <use xlink:href="#DejaVuSans-35" x="294.189453"/>
      <use xlink:href="#DejaVuSans-37" x="357.8125"/>
      <use xlink:href="#DejaVuSans-25" x="421.435547"/>
      <use xlink:href="#DejaVuSans-5f" x="516.455078"/>
      <use xlink:href="#DejaVuSans-36" x="566.455078"/>
      <use xlink:href="#DejaVuSans-32" x="630.078125"/>
      <use xlink:href="#DejaVuSans-4e" x="693.701172"/>
     </g>
    </g>
    <g id="line2d_16">
     <path d="M 65.248381 61.53875 
L 73.248381 61.53875 
L 81.248381 61.53875 
" style="fill: none; stroke: #8b8b8b; stroke-opacity: 0.7; stroke-width: 3"/>
    </g>
    <g id="text_11">
     <!-- peak_67%_62N -->
     <g transform="translate(87.648381 64.33875) scale(0.08 -0.08)">
      <use xlink:href="#DejaVuSans-70"/>
      <use xlink:href="#DejaVuSans-65" x="63.476562"/>
      <use xlink:href="#DejaVuSans-61" x="125"/>
      <use xlink:href="#DejaVuSans-6b" x="186.279297"/>
      <use xlink:href="#DejaVuSans-5f" x="244.189453"/>
      <use xlink:href="#DejaVuSans-36" x="294.189453"/>
      <use xlink:href="#DejaVuSans-37" x="357.8125"/>
      <use xlink:href="#DejaVuSans-25" x="421.435547"/>
      <use xlink:href="#DejaVuSans-5f" x="516.455078"/>
      <use xlink:href="#DejaVuSans-36" x="566.455078"/>
      <use xlink:href="#DejaVuSans-32" x="630.078125"/>
      <use xlink:href="#DejaVuSans-4e" x="693.701172"/>
     </g>
    </g>
    <g id="line2d_17">
     <path d="M 65.248381 73.50375 
L 73.248381 73.50375 
L 81.248381 73.50375 
" style="fill: none; stroke: #810f7c; stroke-opacity: 0.7; stroke-width: 3"/>
    </g>
    <g id="text_12">
     <!-- peak_77%_62N -->
     <g transform="translate(87.648381 76.30375) scale(0.08 -0.08)">
      <use xlink:href="#DejaVuSans-70"/>
      <use xlink:href="#DejaVuSans-65" x="63.476562"/>
      <use xlink:href="#DejaVuSans-61" x="125"/>
      <use xlink:href="#DejaVuSans-6b" x="186.279297"/>
      <use xlink:href="#DejaVuSans-5f" x="244.189453"/>
      <use xlink:href="#DejaVuSans-37" x="294.189453"/>
      <use xlink:href="#DejaVuSans-37" x="357.8125"/>
      <use xlink:href="#DejaVuSans-25" x="421.435547"/>
      <use xlink:href="#DejaVuSans-5f" x="516.455078"/>
      <use xlink:href="#DejaVuSans-36" x="566.455078"/>
      <use xlink:href="#DejaVuSans-32" x="630.078125"/>
      <use xlink:href="#DejaVuSans-4e" x="693.701172"/>
     </g>
    </g>
    <g id="line2d_18">
     <path d="M 65.248381 85.46875 
L 73.248381 85.46875 
L 81.248381 85.46875 
" style="fill: none; stroke-dasharray: 11.1,4.8; stroke-dashoffset: 0; stroke: #000000; stroke-opacity: 0.7; stroke-width: 3"/>
    </g>
    <g id="text_13">
     <!-- OpenSim Assistance -->
     <g transform="translate(87.648381 88.26875) scale(0.08 -0.08)">
      <defs>
       <path id="DejaVuSans-4f" d="M 2522 4238 
Q 1834 4238 1429 3725 
Q 1025 3213 1025 2328 
Q 1025 1447 1429 934 
Q 1834 422 2522 422 
Q 3209 422 3611 934 
Q 4013 1447 4013 2328 
Q 4013 3213 3611 3725 
Q 3209 4238 2522 4238 
z
M 2522 4750 
Q 3503 4750 4090 4092 
Q 4678 3434 4678 2328 
Q 4678 1225 4090 567 
Q 3503 -91 2522 -91 
Q 1538 -91 948 565 
Q 359 1222 359 2328 
Q 359 3434 948 4092 
Q 1538 4750 2522 4750 
z
" transform="scale(0.015625)"/>
       <path id="DejaVuSans-6d" d="M 3328 2828 
Q 3544 3216 3844 3400 
Q 4144 3584 4550 3584 
Q 5097 3584 5394 3201 
Q 5691 2819 5691 2113 
L 5691 0 
L 5113 0 
L 5113 2094 
Q 5113 2597 4934 2840 
Q 4756 3084 4391 3084 
Q 3944 3084 3684 2787 
Q 3425 2491 3425 1978 
L 3425 0 
L 2847 0 
L 2847 2094 
Q 2847 2600 2669 2842 
Q 2491 3084 2119 3084 
Q 1678 3084 1418 2786 
Q 1159 2488 1159 1978 
L 1159 0 
L 581 0 
L 581 3500 
L 1159 3500 
L 1159 2956 
Q 1356 3278 1631 3431 
Q 1906 3584 2284 3584 
Q 2666 3584 2933 3390 
Q 3200 3197 3328 2828 
z
" transform="scale(0.015625)"/>
      </defs>
      <use xlink:href="#DejaVuSans-4f"/>
      <use xlink:href="#DejaVuSans-70" x="78.710938"/>
      <use xlink:href="#DejaVuSans-65" x="142.1875"/>
      <use xlink:href="#DejaVuSans-6e" x="203.710938"/>
      <use xlink:href="#DejaVuSans-53" x="267.089844"/>
      <use xlink:href="#DejaVuSans-69" x="330.566406"/>
      <use xlink:href="#DejaVuSans-6d" x="358.349609"/>
      <use xlink:href="#DejaVuSans-20" x="455.761719"/>
      <use xlink:href="#DejaVuSans-41" x="487.548828"/>
      <use xlink:href="#DejaVuSans-73" x="555.957031"/>
      <use xlink:href="#DejaVuSans-73" x="608.056641"/>
      <use xlink:href="#DejaVuSans-69" x="660.15625"/>
      <use xlink:href="#DejaVuSans-73" x="687.939453"/>
      <use xlink:href="#DejaVuSans-74" x="740.039062"/>
      <use xlink:href="#DejaVuSans-61" x="779.248047"/>
      <use xlink:href="#DejaVuSans-6e" x="840.527344"/>
      <use xlink:href="#DejaVuSans-63" x="903.90625"/>
      <use xlink:href="#DejaVuSans-65" x="958.886719"/>
     </g>
    </g>
   </g>
  </g>
 </g>
 <defs>
  <clipPath id="p1f1c98d718">
   <rect x="46.58375" y="93.1325" width="386.61577" height="160.33952"/>
  </clipPath>
 </defs>
</svg>
