<?xml version="1.0" encoding="utf-8" standalone="no"?>
<!DOCTYPE svg PUBLIC "-//W3C//DTD SVG 1.1//EN"
  "http://www.w3.org/Graphics/SVG/1.1/DTD/svg11.dtd">
<svg xmlns:xlink="http://www.w3.org/1999/xlink" width="440.39952pt" height="296.39952pt" viewBox="0 0 440.39952 296.39952" xmlns="http://www.w3.org/2000/svg" version="1.1">
 <metadata>
  <rdf:RDF xmlns:dc="http://purl.org/dc/elements/1.1/" xmlns:cc="http://creativecommons.org/ns#" xmlns:rdf="http://www.w3.org/1999/02/22-rdf-syntax-ns#">
   <cc:Work>
    <dc:type rdf:resource="http://purl.org/dc/dcmitype/StillImage"/>
    <dc:date>2024-03-10T10:52:23.441775</dc:date>
    <dc:format>image/svg+xml</dc:format>
    <dc:creator>
     <cc:Agent>
      <dc:title>Matplotlib v3.8.2, https://matplotlib.org/</dc:title>
     </cc:Agent>
    </dc:creator>
   </cc:Work>
  </rdf:RDF>
 </metadata>
 <defs>
  <style type="text/css">*{stroke-linejoin: round; stroke-linecap: butt}</style>
 </defs>
 <g id="figure_1">
  <g id="patch_1">
   <path d="M 0 296.39952 
L 440.39952 296.39952 
L 440.39952 0 
L 0 0 
z
" style="fill: #ffffff"/>
  </g>
  <g id="axes_1">
   <g id="patch_2">
    <path d="M 48.519375 251.536395 
L 433.19952 251.536395 
L 433.19952 91.7975 
L 48.519375 91.7975 
z
" style="fill: #ffffff"/>
   </g>
   <g id="matplotlib.axis_1">
    <g id="xtick_1">
     <g id="line2d_1">
      <defs>
       <path id="m141bfb3759" d="M 0 0 
L 0 5 
" style="stroke: #000000; stroke-width: 0.8"/>
      </defs>
      <g>
       <use xlink:href="#m141bfb3759" x="66.004836" y="251.536395" style="stroke: #000000; stroke-width: 0.8"/>
      </g>
     </g>
     <g id="text_1">
      <!-- 0% -->
      <g transform="translate(56.486399 269.15452) scale(0.12 -0.12)">
       <defs>
        <path id="DejaVuSans-30" d="M 2034 4250 
Q 1547 4250 1301 3770 
Q 1056 3291 1056 2328 
Q 1056 1369 1301 889 
Q 1547 409 2034 409 
Q 2525 409 2770 889 
Q 3016 1369 3016 2328 
Q 3016 3291 2770 3770 
Q 2525 4250 2034 4250 
z
M 2034 4750 
Q 2819 4750 3233 4129 
Q 3647 3509 3647 2328 
Q 3647 1150 3233 529 
Q 2819 -91 2034 -91 
Q 1250 -91 836 529 
Q 422 1150 422 2328 
Q 422 3509 836 4129 
Q 1250 4750 2034 4750 
z
" transform="scale(0.015625)"/>
        <path id="DejaVuSans-25" d="M 4653 2053 
Q 4381 2053 4226 1822 
Q 4072 1591 4072 1178 
Q 4072 772 4226 539 
Q 4381 306 4653 306 
Q 4919 306 5073 539 
Q 5228 772 5228 1178 
Q 5228 1588 5073 1820 
Q 4919 2053 4653 2053 
z
M 4653 2450 
Q 5147 2450 5437 2106 
Q 5728 1763 5728 1178 
Q 5728 594 5436 251 
Q 5144 -91 4653 -91 
Q 4153 -91 3862 251 
Q 3572 594 3572 1178 
Q 3572 1766 3864 2108 
Q 4156 2450 4653 2450 
z
M 1428 4353 
Q 1159 4353 1004 4120 
Q 850 3888 850 3481 
Q 850 3069 1003 2837 
Q 1156 2606 1428 2606 
Q 1700 2606 1854 2837 
Q 2009 3069 2009 3481 
Q 2009 3884 1853 4118 
Q 1697 4353 1428 4353 
z
M 4250 4750 
L 4750 4750 
L 1831 -91 
L 1331 -91 
L 4250 4750 
z
M 1428 4750 
Q 1922 4750 2215 4408 
Q 2509 4066 2509 3481 
Q 2509 2891 2217 2550 
Q 1925 2209 1428 2209 
Q 931 2209 642 2551 
Q 353 2894 353 3481 
Q 353 4063 643 4406 
Q 934 4750 1428 4750 
z
" transform="scale(0.015625)"/>
       </defs>
       <use xlink:href="#DejaVuSans-30"/>
       <use xlink:href="#DejaVuSans-25" x="63.623047"/>
      </g>
     </g>
    </g>
    <g id="xtick_2">
     <g id="line2d_2">
      <g>
       <use xlink:href="#m141bfb3759" x="415.714059" y="251.536395" style="stroke: #000000; stroke-width: 0.8"/>
      </g>
     </g>
     <g id="text_2">
      <!-- 100% -->
      <g transform="translate(398.560621 269.15452) scale(0.12 -0.12)">
       <defs>
        <path id="DejaVuSans-31" d="M 794 531 
L 1825 531 
L 1825 4091 
L 703 3866 
L 703 4441 
L 1819 4666 
L 2450 4666 
L 2450 531 
L 3481 531 
L 3481 0 
L 794 0 
L 794 531 
z
" transform="scale(0.015625)"/>
       </defs>
       <use xlink:href="#DejaVuSans-31"/>
       <use xlink:href="#DejaVuSans-30" x="63.623047"/>
       <use xlink:href="#DejaVuSans-30" x="127.246094"/>
       <use xlink:href="#DejaVuSans-25" x="190.869141"/>
      </g>
     </g>
    </g>
    <g id="text_3">
     <!-- Sit-to-Stand (%) -->
     <g transform="translate(184.821166 286.287957) scale(0.14 -0.14)">
      <defs>
       <path id="DejaVuSans-53" d="M 3425 4513 
L 3425 3897 
Q 3066 4069 2747 4153 
Q 2428 4238 2131 4238 
Q 1616 4238 1336 4038 
Q 1056 3838 1056 3469 
Q 1056 3159 1242 3001 
Q 1428 2844 1947 2747 
L 2328 2669 
Q 3034 2534 3370 2195 
Q 3706 1856 3706 1288 
Q 3706 609 3251 259 
Q 2797 -91 1919 -91 
Q 1588 -91 1214 -16 
Q 841 59 441 206 
L 441 856 
Q 825 641 1194 531 
Q 1563 422 1919 422 
Q 2459 422 2753 634 
Q 3047 847 3047 1241 
Q 3047 1584 2836 1778 
Q 2625 1972 2144 2069 
L 1759 2144 
Q 1053 2284 737 2584 
Q 422 2884 422 3419 
Q 422 4038 858 4394 
Q 1294 4750 2059 4750 
Q 2388 4750 2728 4690 
Q 3069 4631 3425 4513 
z
" transform="scale(0.015625)"/>
       <path id="DejaVuSans-69" d="M 603 3500 
L 1178 3500 
L 1178 0 
L 603 0 
L 603 3500 
z
M 603 4863 
L 1178 4863 
L 1178 4134 
L 603 4134 
L 603 4863 
z
" transform="scale(0.015625)"/>
       <path id="DejaVuSans-74" d="M 1172 4494 
L 1172 3500 
L 2356 3500 
L 2356 3053 
L 1172 3053 
L 1172 1153 
Q 1172 725 1289 603 
Q 1406 481 1766 481 
L 2356 481 
L 2356 0 
L 1766 0 
Q 1100 0 847 248 
Q 594 497 594 1153 
L 594 3053 
L 172 3053 
L 172 3500 
L 594 3500 
L 594 4494 
L 1172 4494 
z
" transform="scale(0.015625)"/>
       <path id="DejaVuSans-2d" d="M 313 2009 
L 1997 2009 
L 1997 1497 
L 313 1497 
L 313 2009 
z
" transform="scale(0.015625)"/>
       <path id="DejaVuSans-6f" d="M 1959 3097 
Q 1497 3097 1228 2736 
Q 959 2375 959 1747 
Q 959 1119 1226 758 
Q 1494 397 1959 397 
Q 2419 397 2687 759 
Q 2956 1122 2956 1747 
Q 2956 2369 2687 2733 
Q 2419 3097 1959 3097 
z
M 1959 3584 
Q 2709 3584 3137 3096 
Q 3566 2609 3566 1747 
Q 3566 888 3137 398 
Q 2709 -91 1959 -91 
Q 1206 -91 779 398 
Q 353 888 353 1747 
Q 353 2609 779 3096 
Q 1206 3584 1959 3584 
z
" transform="scale(0.015625)"/>
       <path id="DejaVuSans-61" d="M 2194 1759 
Q 1497 1759 1228 1600 
Q 959 1441 959 1056 
Q 959 750 1161 570 
Q 1363 391 1709 391 
Q 2188 391 2477 730 
Q 2766 1069 2766 1631 
L 2766 1759 
L 2194 1759 
z
M 3341 1997 
L 3341 0 
L 2766 0 
L 2766 531 
Q 2569 213 2275 61 
Q 1981 -91 1556 -91 
Q 1019 -91 701 211 
Q 384 513 384 1019 
Q 384 1609 779 1909 
Q 1175 2209 1959 2209 
L 2766 2209 
L 2766 2266 
Q 2766 2663 2505 2880 
Q 2244 3097 1772 3097 
Q 1472 3097 1187 3025 
Q 903 2953 641 2809 
L 641 3341 
Q 956 3463 1253 3523 
Q 1550 3584 1831 3584 
Q 2591 3584 2966 3190 
Q 3341 2797 3341 1997 
z
" transform="scale(0.015625)"/>
       <path id="DejaVuSans-6e" d="M 3513 2113 
L 3513 0 
L 2938 0 
L 2938 2094 
Q 2938 2591 2744 2837 
Q 2550 3084 2163 3084 
Q 1697 3084 1428 2787 
Q 1159 2491 1159 1978 
L 1159 0 
L 581 0 
L 581 3500 
L 1159 3500 
L 1159 2956 
Q 1366 3272 1645 3428 
Q 1925 3584 2291 3584 
Q 2894 3584 3203 3211 
Q 3513 2838 3513 2113 
z
" transform="scale(0.015625)"/>
       <path id="DejaVuSans-64" d="M 2906 2969 
L 2906 4863 
L 3481 4863 
L 3481 0 
L 2906 0 
L 2906 525 
Q 2725 213 2448 61 
Q 2172 -91 1784 -91 
Q 1150 -91 751 415 
Q 353 922 353 1747 
Q 353 2572 751 3078 
Q 1150 3584 1784 3584 
Q 2172 3584 2448 3432 
Q 2725 3281 2906 2969 
z
M 947 1747 
Q 947 1113 1208 752 
Q 1469 391 1925 391 
Q 2381 391 2643 752 
Q 2906 1113 2906 1747 
Q 2906 2381 2643 2742 
Q 2381 3103 1925 3103 
Q 1469 3103 1208 2742 
Q 947 2381 947 1747 
z
" transform="scale(0.015625)"/>
       <path id="DejaVuSans-20" transform="scale(0.015625)"/>
       <path id="DejaVuSans-28" d="M 1984 4856 
Q 1566 4138 1362 3434 
Q 1159 2731 1159 2009 
Q 1159 1288 1364 580 
Q 1569 -128 1984 -844 
L 1484 -844 
Q 1016 -109 783 600 
Q 550 1309 550 2009 
Q 550 2706 781 3412 
Q 1013 4119 1484 4856 
L 1984 4856 
z
" transform="scale(0.015625)"/>
       <path id="DejaVuSans-29" d="M 513 4856 
L 1013 4856 
Q 1481 4119 1714 3412 
Q 1947 2706 1947 2009 
Q 1947 1309 1714 600 
Q 1481 -109 1013 -844 
L 513 -844 
Q 928 -128 1133 580 
Q 1338 1288 1338 2009 
Q 1338 2731 1133 3434 
Q 928 4138 513 4856 
z
" transform="scale(0.015625)"/>
      </defs>
      <use xlink:href="#DejaVuSans-53"/>
      <use xlink:href="#DejaVuSans-69" x="63.476562"/>
      <use xlink:href="#DejaVuSans-74" x="91.259766"/>
      <use xlink:href="#DejaVuSans-2d" x="130.46875"/>
      <use xlink:href="#DejaVuSans-74" x="166.552734"/>
      <use xlink:href="#DejaVuSans-6f" x="205.761719"/>
      <use xlink:href="#DejaVuSans-2d" x="268.818359"/>
      <use xlink:href="#DejaVuSans-53" x="304.902344"/>
      <use xlink:href="#DejaVuSans-74" x="368.378906"/>
      <use xlink:href="#DejaVuSans-61" x="407.587891"/>
      <use xlink:href="#DejaVuSans-6e" x="468.867188"/>
      <use xlink:href="#DejaVuSans-64" x="532.246094"/>
      <use xlink:href="#DejaVuSans-20" x="595.722656"/>
      <use xlink:href="#DejaVuSans-28" x="627.509766"/>
      <use xlink:href="#DejaVuSans-25" x="666.523438"/>
      <use xlink:href="#DejaVuSans-29" x="761.542969"/>
     </g>
    </g>
   </g>
   <g id="matplotlib.axis_2">
    <g id="ytick_1">
     <g id="line2d_3">
      <defs>
       <path id="mca2caeedda" d="M 0 0 
L -5 0 
" style="stroke: #000000; stroke-width: 0.8"/>
      </defs>
      <g>
       <use xlink:href="#mca2caeedda" x="48.519375" y="242.207576" style="stroke: #000000; stroke-width: 0.8"/>
      </g>
     </g>
     <g id="text_4">
      <!-- 0 -->
      <g transform="translate(32.384375 246.766638) scale(0.12 -0.12)">
       <use xlink:href="#DejaVuSans-30"/>
      </g>
     </g>
    </g>
    <g id="ytick_2">
     <g id="line2d_4">
      <g>
       <use xlink:href="#mca2caeedda" x="48.519375" y="103.518052" style="stroke: #000000; stroke-width: 0.8"/>
      </g>
     </g>
     <g id="text_5">
      <!-- 60 -->
      <g transform="translate(24.749375 108.077115) scale(0.12 -0.12)">
       <defs>
        <path id="DejaVuSans-36" d="M 2113 2584 
Q 1688 2584 1439 2293 
Q 1191 2003 1191 1497 
Q 1191 994 1439 701 
Q 1688 409 2113 409 
Q 2538 409 2786 701 
Q 3034 994 3034 1497 
Q 3034 2003 2786 2293 
Q 2538 2584 2113 2584 
z
M 3366 4563 
L 3366 3988 
Q 3128 4100 2886 4159 
Q 2644 4219 2406 4219 
Q 1781 4219 1451 3797 
Q 1122 3375 1075 2522 
Q 1259 2794 1537 2939 
Q 1816 3084 2150 3084 
Q 2853 3084 3261 2657 
Q 3669 2231 3669 1497 
Q 3669 778 3244 343 
Q 2819 -91 2113 -91 
Q 1303 -91 875 529 
Q 447 1150 447 2328 
Q 447 3434 972 4092 
Q 1497 4750 2381 4750 
Q 2619 4750 2861 4703 
Q 3103 4656 3366 4563 
z
" transform="scale(0.015625)"/>
       </defs>
       <use xlink:href="#DejaVuSans-36"/>
       <use xlink:href="#DejaVuSans-30" x="63.623047"/>
      </g>
     </g>
    </g>
    <g id="text_6">
     <!-- Assistance (N) -->
     <g transform="translate(17.837812 221.88976) rotate(-90) scale(0.14 -0.14)">
      <defs>
       <path id="DejaVuSans-41" d="M 2188 4044 
L 1331 1722 
L 3047 1722 
L 2188 4044 
z
M 1831 4666 
L 2547 4666 
L 4325 0 
L 3669 0 
L 3244 1197 
L 1141 1197 
L 716 0 
L 50 0 
L 1831 4666 
z
" transform="scale(0.015625)"/>
       <path id="DejaVuSans-73" d="M 2834 3397 
L 2834 2853 
Q 2591 2978 2328 3040 
Q 2066 3103 1784 3103 
Q 1356 3103 1142 2972 
Q 928 2841 928 2578 
Q 928 2378 1081 2264 
Q 1234 2150 1697 2047 
L 1894 2003 
Q 2506 1872 2764 1633 
Q 3022 1394 3022 966 
Q 3022 478 2636 193 
Q 2250 -91 1575 -91 
Q 1294 -91 989 -36 
Q 684 19 347 128 
L 347 722 
Q 666 556 975 473 
Q 1284 391 1588 391 
Q 1994 391 2212 530 
Q 2431 669 2431 922 
Q 2431 1156 2273 1281 
Q 2116 1406 1581 1522 
L 1381 1569 
Q 847 1681 609 1914 
Q 372 2147 372 2553 
Q 372 3047 722 3315 
Q 1072 3584 1716 3584 
Q 2034 3584 2315 3537 
Q 2597 3491 2834 3397 
z
" transform="scale(0.015625)"/>
       <path id="DejaVuSans-63" d="M 3122 3366 
L 3122 2828 
Q 2878 2963 2633 3030 
Q 2388 3097 2138 3097 
Q 1578 3097 1268 2742 
Q 959 2388 959 1747 
Q 959 1106 1268 751 
Q 1578 397 2138 397 
Q 2388 397 2633 464 
Q 2878 531 3122 666 
L 3122 134 
Q 2881 22 2623 -34 
Q 2366 -91 2075 -91 
Q 1284 -91 818 406 
Q 353 903 353 1747 
Q 353 2603 823 3093 
Q 1294 3584 2113 3584 
Q 2378 3584 2631 3529 
Q 2884 3475 3122 3366 
z
" transform="scale(0.015625)"/>
       <path id="DejaVuSans-65" d="M 3597 1894 
L 3597 1613 
L 953 1613 
Q 991 1019 1311 708 
Q 1631 397 2203 397 
Q 2534 397 2845 478 
Q 3156 559 3463 722 
L 3463 178 
Q 3153 47 2828 -22 
Q 2503 -91 2169 -91 
Q 1331 -91 842 396 
Q 353 884 353 1716 
Q 353 2575 817 3079 
Q 1281 3584 2069 3584 
Q 2775 3584 3186 3129 
Q 3597 2675 3597 1894 
z
M 3022 2063 
Q 3016 2534 2758 2815 
Q 2500 3097 2075 3097 
Q 1594 3097 1305 2825 
Q 1016 2553 972 2059 
L 3022 2063 
z
" transform="scale(0.015625)"/>
       <path id="DejaVuSans-4e" d="M 628 4666 
L 1478 4666 
L 3547 763 
L 3547 4666 
L 4159 4666 
L 4159 0 
L 3309 0 
L 1241 3903 
L 1241 0 
L 628 0 
L 628 4666 
z
" transform="scale(0.015625)"/>
      </defs>
      <use xlink:href="#DejaVuSans-41"/>
      <use xlink:href="#DejaVuSans-73" x="68.408203"/>
      <use xlink:href="#DejaVuSans-73" x="120.507812"/>
      <use xlink:href="#DejaVuSans-69" x="172.607422"/>
      <use xlink:href="#DejaVuSans-73" x="200.390625"/>
      <use xlink:href="#DejaVuSans-74" x="252.490234"/>
      <use xlink:href="#DejaVuSans-61" x="291.699219"/>
      <use xlink:href="#DejaVuSans-6e" x="352.978516"/>
      <use xlink:href="#DejaVuSans-63" x="416.357422"/>
      <use xlink:href="#DejaVuSans-65" x="471.337891"/>
      <use xlink:href="#DejaVuSans-20" x="532.861328"/>
      <use xlink:href="#DejaVuSans-28" x="564.648438"/>
      <use xlink:href="#DejaVuSans-4e" x="603.662109"/>
      <use xlink:href="#DejaVuSans-29" x="678.466797"/>
     </g>
    </g>
   </g>
   <g id="patch_3">
    <path d="M 62.059898 246.744228 
Q 240.859492 246.744228 417.423018 246.744228 
" clip-path="url(#p33054b0f90)" style="fill: none; stroke: #000000; stroke-width: 2; stroke-linecap: round"/>
    <path d="M 409.423018 242.744228 
L 417.423018 246.744228 
L 409.423018 250.744228 
z
" clip-path="url(#p33054b0f90)" style="stroke: #000000; stroke-width: 2; stroke-linecap: round"/>
   </g>
   <g id="patch_4">
    <path d="M 60.059779 244.744031 
Q 60.059779 169.271957 60.059779 96.03595 
" clip-path="url(#p33054b0f90)" style="fill: none; stroke: #000000; stroke-width: 2; stroke-linecap: round"/>
    <path d="M 56.059779 104.03595 
L 60.059779 96.03595 
L 64.059779 104.03595 
z
" clip-path="url(#p33054b0f90)" style="stroke: #000000; stroke-width: 2; stroke-linecap: round"/>
   </g>
   <g id="line2d_5">
    <path d="M 66.004836 242.131908 
L 67.258274 241.90762 
L 68.511712 241.538783 
L 69.76515 241.029468 
L 71.018588 240.383749 
L 73.525465 238.699381 
L 76.032341 236.518253 
L 78.539217 233.872941 
L 81.046093 230.796017 
L 83.552969 227.320057 
L 86.059845 223.477635 
L 88.566721 219.301326 
L 92.327036 212.482079 
L 96.08735 205.094816 
L 99.847664 197.249475 
L 104.861416 186.266474 
L 113.635483 166.340781 
L 121.156111 149.446883 
L 126.169864 138.740764 
L 129.930178 131.188593 
L 133.690492 124.167792 
L 136.197368 119.836754 
L 138.704244 115.823317 
L 141.211121 112.160054 
L 143.717997 108.87954 
L 146.224873 106.01435 
L 148.731749 103.597059 
L 151.238625 101.660239 
L 152.492063 100.882186 
L 153.745501 100.236466 
L 154.998939 99.727152 
L 156.252377 99.358315 
L 157.505816 99.134026 
L 160.012692 99.069968 
L 163.773006 99.242162 
L 167.53332 99.615311 
L 171.293634 100.18286 
L 175.053949 100.938259 
L 178.814263 101.874952 
L 183.828015 103.394567 
L 188.841767 105.209302 
L 193.85552 107.303625 
L 198.869272 109.662005 
L 203.883024 112.268907 
L 208.896777 115.108799 
L 213.910529 118.166149 
L 220.177719 122.269973 
L 226.44491 126.658968 
L 232.7121 131.302795 
L 240.232728 137.169053 
L 247.753357 143.306162 
L 256.527423 150.738511 
L 267.808366 160.597276 
L 305.411508 193.743781 
L 314.185575 201.058907 
L 321.706203 207.067143 
L 329.226832 212.778317 
L 335.494022 217.272885 
L 341.761212 221.494418 
L 348.028403 225.412578 
L 353.042155 228.308291 
L 358.055907 230.974897 
L 363.06966 233.396863 
L 368.083412 235.558657 
L 373.097164 237.444745 
L 378.110917 239.039596 
L 381.871231 240.035265 
L 385.631545 240.851823 
L 389.391859 241.482717 
L 393.152174 241.921394 
L 396.912488 242.161301 
L 401.92624 242.207576 
L 415.714059 242.207576 
L 415.714059 242.207576 
" clip-path="url(#p33054b0f90)" style="fill: none; stroke: #008fd5; stroke-opacity: 0.7; stroke-width: 3"/>
   </g>
   <g id="line2d_6">
    <path d="M 66.004836 242.167358 
L 68.511712 241.850334 
L 71.018588 241.228337 
L 73.525465 240.313945 
L 76.032341 239.119732 
L 78.539217 237.658276 
L 81.046093 235.942152 
L 83.552969 233.983937 
L 86.059845 231.796207 
L 88.566721 229.391537 
L 92.327036 225.405283 
L 96.08735 221.001657 
L 99.847664 216.223104 
L 103.607978 211.112069 
L 108.621731 203.85352 
L 113.635483 196.179958 
L 119.902673 186.157664 
L 129.930178 169.590651 
L 139.957683 153.073943 
L 146.224873 143.13418 
L 151.238625 135.55494 
L 156.252377 128.415865 
L 160.012692 123.410941 
L 163.773006 118.752647 
L 167.53332 114.483429 
L 171.293634 110.645731 
L 173.800511 108.347959 
L 176.307387 106.273415 
L 178.814263 104.434673 
L 181.321139 102.844311 
L 183.828015 101.514905 
L 186.334891 100.45903 
L 188.841767 99.689264 
L 191.348644 99.218181 
L 193.85552 99.058359 
L 197.615834 99.200309 
L 201.376148 99.61915 
L 205.136462 100.304367 
L 208.896777 101.245444 
L 212.657091 102.431868 
L 216.417405 103.853123 
L 220.177719 105.498695 
L 223.938033 107.358068 
L 227.698348 109.420728 
L 232.7121 112.468992 
L 237.725852 115.835037 
L 242.739605 119.49394 
L 247.753357 123.420776 
L 252.767109 127.590622 
L 259.0343 133.106691 
L 265.30149 138.914839 
L 272.822118 146.201619 
L 281.596185 155.033626 
L 294.130566 168.014903 
L 312.932137 187.511159 
L 321.706203 196.299549 
L 329.226832 203.533755 
L 335.494022 209.287381 
L 341.761212 214.739193 
L 346.774965 218.850623 
L 351.788717 222.712813 
L 356.802469 226.300838 
L 361.816222 229.589774 
L 366.829974 232.554698 
L 370.590288 234.550764 
L 374.350602 236.340038 
L 378.110917 237.912006 
L 381.871231 239.256153 
L 385.631545 240.361963 
L 389.391859 241.218922 
L 393.152174 241.816515 
L 396.912488 242.144227 
L 400.672802 242.207576 
L 415.714059 242.207576 
L 415.714059 242.207576 
" clip-path="url(#p33054b0f90)" style="fill: none; stroke: #fc4f30; stroke-opacity: 0.7; stroke-width: 3"/>
   </g>
   <g id="line2d_7">
    <path d="M 66.004836 242.182678 
L 68.511712 241.985793 
L 71.018588 241.597879 
L 73.525465 241.025051 
L 76.032341 240.27342 
L 78.539217 239.349101 
L 81.046093 238.258205 
L 84.806407 236.322904 
L 88.566721 234.047191 
L 92.327036 231.451697 
L 96.08735 228.557055 
L 99.847664 225.383894 
L 103.607978 221.952845 
L 108.621731 217.012614 
L 113.635483 211.699497 
L 118.649235 206.062397 
L 124.916426 198.634922 
L 132.437054 189.289083 
L 141.211121 177.997372 
L 162.519568 150.392787 
L 170.040196 141.115717 
L 176.307387 133.766564 
L 181.321139 128.205875 
L 186.334891 122.981394 
L 191.348644 118.142026 
L 195.108958 114.794648 
L 198.869272 111.712034 
L 202.629586 108.914815 
L 206.3899 106.423623 
L 210.150215 104.259088 
L 213.910529 102.441841 
L 216.417405 101.43347 
L 218.924281 100.594731 
L 221.431157 99.931738 
L 223.938033 99.450602 
L 226.44491 99.157439 
L 228.951786 99.058359 
L 231.458662 99.150322 
L 233.965538 99.422569 
L 236.472414 99.869637 
L 238.97929 100.486063 
L 241.486167 101.266384 
L 245.246481 102.732216 
L 249.006795 104.536082 
L 252.767109 106.659542 
L 256.527423 109.084158 
L 260.287738 111.791492 
L 264.048052 114.763107 
L 267.808366 117.980564 
L 272.822118 122.621058 
L 277.835871 127.622121 
L 282.849623 132.940046 
L 289.116813 139.96646 
L 295.384004 147.33432 
L 302.904632 156.506274 
L 315.439013 172.211705 
L 327.973394 187.848847 
L 335.494022 196.914269 
L 341.761212 204.155794 
L 348.028403 211.021727 
L 353.042155 216.186685 
L 358.055907 221.012926 
L 363.06966 225.456747 
L 366.829974 228.512358 
L 370.590288 231.309834 
L 374.350602 233.830739 
L 378.110917 236.056633 
L 381.871231 237.969078 
L 385.631545 239.549637 
L 388.138421 240.409856 
L 390.645297 241.108913 
L 393.152174 241.641342 
L 395.65905 242.001683 
L 398.165926 242.184471 
L 404.433116 242.207576 
L 415.714059 242.207576 
L 415.714059 242.207576 
" clip-path="url(#p33054b0f90)" style="fill: none; stroke: #e5ae38; stroke-opacity: 0.7; stroke-width: 3"/>
   </g>
   <g id="line2d_8">
    <path d="M 66.004836 242.19066 
L 69.76515 241.940342 
L 73.525465 241.399644 
L 77.285779 240.580103 
L 81.046093 239.493257 
L 84.806407 238.150645 
L 88.566721 236.563805 
L 92.327036 234.744276 
L 96.08735 232.703596 
L 99.847664 230.453303 
L 104.861416 227.146791 
L 109.875169 223.515496 
L 114.888921 219.586769 
L 119.902673 215.38796 
L 126.169864 209.801311 
L 132.437054 203.888812 
L 139.957683 196.438903 
L 148.731749 187.374661 
L 160.012692 175.356539 
L 181.321139 152.576937 
L 190.095205 143.562054 
L 197.615834 136.171119 
L 203.883024 130.319516 
L 210.150215 124.804448 
L 215.163967 120.670595 
L 220.177719 116.813662 
L 225.191472 113.260999 
L 230.205224 110.039956 
L 233.965538 107.858252 
L 237.725852 105.890006 
L 241.486167 104.146758 
L 245.246481 102.640046 
L 249.006795 101.381407 
L 252.767109 100.382381 
L 256.527423 99.654505 
L 260.287738 99.209319 
L 264.048052 99.058359 
L 266.554928 99.203814 
L 269.061804 99.632905 
L 271.56868 100.334724 
L 274.075556 101.298361 
L 276.582433 102.512907 
L 279.089309 103.967454 
L 281.596185 105.651092 
L 284.103061 107.552912 
L 286.609937 109.662005 
L 290.370251 113.190417 
L 294.130566 117.123829 
L 297.89088 121.425424 
L 301.651194 126.058383 
L 305.411508 130.985887 
L 310.425261 137.950439 
L 315.439013 145.2859 
L 321.706203 154.843862 
L 331.733708 170.632967 
L 343.014651 188.360937 
L 349.281841 197.8439 
L 354.295593 205.094816 
L 359.309346 211.953004 
L 363.06966 216.786417 
L 366.829974 221.313012 
L 370.590288 225.49597 
L 374.350602 229.298473 
L 378.110917 232.683704 
L 380.617793 234.690524 
L 383.124669 236.484616 
L 385.631545 238.055072 
L 388.138421 239.390982 
L 390.645297 240.481438 
L 393.152174 241.315529 
L 395.65905 241.882348 
L 398.165926 242.170985 
L 403.179678 242.207576 
L 415.714059 242.207576 
L 415.714059 242.207576 
" clip-path="url(#p33054b0f90)" style="fill: none; stroke: #6d904f; stroke-opacity: 0.7; stroke-width: 3"/>
   </g>
   <g id="line2d_9">
    <path d="M 66.004836 242.195339 
L 69.76515 242.013885 
L 73.525465 241.620833 
L 77.285779 241.023277 
L 81.046093 240.228308 
L 84.806407 239.243019 
L 88.566721 238.074503 
L 93.580474 236.243721 
L 98.594226 234.116623 
L 103.607978 231.710022 
L 108.621731 229.04073 
L 113.635483 226.125559 
L 118.649235 222.981322 
L 124.916426 218.754512 
L 131.183616 214.228891 
L 137.450806 209.437295 
L 144.971435 203.382528 
L 152.492063 197.048782 
L 161.26613 189.382514 
L 172.547072 179.226415 
L 205.136462 149.667446 
L 213.910529 142.078409 
L 221.431157 135.831351 
L 228.951786 129.882185 
L 235.218976 125.193039 
L 241.486167 120.783003 
L 247.753357 116.684912 
L 252.767109 113.653106 
L 257.780862 110.858773 
L 262.794614 108.318725 
L 267.808366 106.049774 
L 272.822118 104.068732 
L 277.835871 102.392413 
L 281.596185 101.34526 
L 285.356499 100.486063 
L 289.116813 99.821914 
L 292.877128 99.359906 
L 296.637442 99.107132 
L 299.144318 99.058359 
L 300.397756 99.124901 
L 301.651194 99.32229 
L 302.904632 99.647172 
L 304.15807 100.096191 
L 306.664946 101.35322 
L 309.171823 103.066537 
L 311.678699 105.209302 
L 314.185575 107.754674 
L 316.692451 110.675812 
L 319.199327 113.945877 
L 321.706203 117.538028 
L 324.213079 121.425424 
L 327.973394 127.751389 
L 331.733708 134.590679 
L 335.494022 141.852705 
L 340.507774 152.03643 
L 348.028403 167.949479 
L 358.055907 189.229504 
L 363.06966 199.413229 
L 366.829974 206.675256 
L 370.590288 213.514545 
L 374.350602 219.840511 
L 376.857479 223.727906 
L 379.364355 227.320057 
L 381.871231 230.590122 
L 384.378107 233.511261 
L 386.884983 236.056633 
L 389.391859 238.199398 
L 391.898735 239.912715 
L 394.405612 241.169744 
L 395.65905 241.618763 
L 396.912488 241.943644 
L 398.165926 242.141034 
L 400.672802 242.207576 
L 415.714059 242.207576 
L 415.714059 242.207576 
" clip-path="url(#p33054b0f90)" style="fill: none; stroke: #8b8b8b; stroke-opacity: 0.7; stroke-width: 3"/>
   </g>
   <g id="line2d_10">
    <path d="M 66.004836 242.198314 
L 71.018588 241.978917 
L 76.032341 241.476056 
L 81.046093 240.700792 
L 86.059845 239.664188 
L 91.073598 238.377305 
L 96.08735 236.851206 
L 101.101102 235.096952 
L 106.114855 233.125606 
L 111.128607 230.94823 
L 117.395797 227.953632 
L 123.662988 224.676002 
L 129.930178 221.136944 
L 136.197368 217.358066 
L 143.717997 212.537268 
L 151.238625 207.439573 
L 160.012692 201.192105 
L 168.786758 194.677851 
L 180.067701 186.005782 
L 195.108958 174.127236 
L 221.431157 153.309836 
L 232.7121 144.703102 
L 241.486167 138.259023 
L 250.260233 132.098668 
L 257.780862 127.089124 
L 265.30149 122.368922 
L 271.56868 118.683379 
L 277.835871 115.2463 
L 284.103061 112.07929 
L 290.370251 109.203954 
L 295.384004 107.12821 
L 300.397756 105.264028 
L 305.411508 103.622469 
L 310.425261 102.214595 
L 315.439013 101.051469 
L 320.452765 100.144152 
L 325.466518 99.503706 
L 330.48027 99.141194 
L 334.240584 99.058359 
L 335.494022 99.215142 
L 336.74746 99.677347 
L 338.000898 100.432757 
L 339.254336 101.469156 
L 340.507774 102.774326 
L 341.761212 104.33605 
L 343.014651 106.142111 
L 344.268089 108.180293 
L 346.774965 112.904152 
L 349.281841 118.409892 
L 351.788717 124.599776 
L 354.295593 131.37607 
L 358.055907 142.426235 
L 361.816222 154.246063 
L 376.857479 202.624895 
L 380.617793 213.345204 
L 383.124669 219.840511 
L 385.631545 225.700539 
L 388.138421 230.827555 
L 390.645297 235.123823 
L 391.898735 236.929885 
L 393.152174 238.491609 
L 394.405612 239.796779 
L 395.65905 240.833177 
L 396.912488 241.588587 
L 398.165926 242.050792 
L 399.419364 242.207576 
L 415.714059 242.207576 
L 415.714059 242.207576 
" clip-path="url(#p33054b0f90)" style="fill: none; stroke: #810f7c; stroke-opacity: 0.7; stroke-width: 3"/>
   </g>
   <g id="line2d_11">
    <path d="M 66.004836 244.275536 
L 67.258274 238.503701 
L 68.511712 235.0406 
L 81.046093 188.539706 
L 91.073598 150.295114 
L 103.607978 136.591909 
L 116.142359 137.998579 
L 128.67674 140.941238 
L 141.211121 142.392327 
L 153.745501 142.085459 
L 166.279882 137.440246 
L 178.814263 130.344305 
L 191.348644 126.879078 
L 203.883024 122.176202 
L 216.417405 108.629395 
L 228.951786 99.058359 
L 241.486167 105.805706 
L 254.020547 125.956104 
L 266.554928 162.65637 
L 280.342747 231.959874 
L 281.596185 238.550352 
L 282.849623 242.207576 
L 415.714059 242.207576 
L 415.714059 242.207576 
" clip-path="url(#p33054b0f90)" style="fill: none; stroke-dasharray: 11.1,4.8; stroke-dashoffset: 0; stroke: #000000; stroke-opacity: 0.7; stroke-width: 3"/>
   </g>
   <g id="legend_1">
    <g id="line2d_12">
     <path d="M 67.106581 13.67875 
L 75.106581 13.67875 
L 83.106581 13.67875 
" style="fill: none; stroke: #008fd5; stroke-opacity: 0.7; stroke-width: 3"/>
    </g>
    <g id="text_7">
     <!-- 27% Peak Timing -->
     <g transform="translate(89.506581 16.47875) scale(0.08 -0.08)">
      <defs>
       <path id="DejaVuSans-32" d="M 1228 531 
L 3431 531 
L 3431 0 
L 469 0 
L 469 531 
Q 828 903 1448 1529 
Q 2069 2156 2228 2338 
Q 2531 2678 2651 2914 
Q 2772 3150 2772 3378 
Q 2772 3750 2511 3984 
Q 2250 4219 1831 4219 
Q 1534 4219 1204 4116 
Q 875 4013 500 3803 
L 500 4441 
Q 881 4594 1212 4672 
Q 1544 4750 1819 4750 
Q 2544 4750 2975 4387 
Q 3406 4025 3406 3419 
Q 3406 3131 3298 2873 
Q 3191 2616 2906 2266 
Q 2828 2175 2409 1742 
Q 1991 1309 1228 531 
z
" transform="scale(0.015625)"/>
       <path id="DejaVuSans-37" d="M 525 4666 
L 3525 4666 
L 3525 4397 
L 1831 0 
L 1172 0 
L 2766 4134 
L 525 4134 
L 525 4666 
z
" transform="scale(0.015625)"/>
       <path id="DejaVuSans-50" d="M 1259 4147 
L 1259 2394 
L 2053 2394 
Q 2494 2394 2734 2622 
Q 2975 2850 2975 3272 
Q 2975 3691 2734 3919 
Q 2494 4147 2053 4147 
L 1259 4147 
z
M 628 4666 
L 2053 4666 
Q 2838 4666 3239 4311 
Q 3641 3956 3641 3272 
Q 3641 2581 3239 2228 
Q 2838 1875 2053 1875 
L 1259 1875 
L 1259 0 
L 628 0 
L 628 4666 
z
" transform="scale(0.015625)"/>
       <path id="DejaVuSans-6b" d="M 581 4863 
L 1159 4863 
L 1159 1991 
L 2875 3500 
L 3609 3500 
L 1753 1863 
L 3688 0 
L 2938 0 
L 1159 1709 
L 1159 0 
L 581 0 
L 581 4863 
z
" transform="scale(0.015625)"/>
       <path id="DejaVuSans-54" d="M -19 4666 
L 3928 4666 
L 3928 4134 
L 2272 4134 
L 2272 0 
L 1638 0 
L 1638 4134 
L -19 4134 
L -19 4666 
z
" transform="scale(0.015625)"/>
       <path id="DejaVuSans-6d" d="M 3328 2828 
Q 3544 3216 3844 3400 
Q 4144 3584 4550 3584 
Q 5097 3584 5394 3201 
Q 5691 2819 5691 2113 
L 5691 0 
L 5113 0 
L 5113 2094 
Q 5113 2597 4934 2840 
Q 4756 3084 4391 3084 
Q 3944 3084 3684 2787 
Q 3425 2491 3425 1978 
L 3425 0 
L 2847 0 
L 2847 2094 
Q 2847 2600 2669 2842 
Q 2491 3084 2119 3084 
Q 1678 3084 1418 2786 
Q 1159 2488 1159 1978 
L 1159 0 
L 581 0 
L 581 3500 
L 1159 3500 
L 1159 2956 
Q 1356 3278 1631 3431 
Q 1906 3584 2284 3584 
Q 2666 3584 2933 3390 
Q 3200 3197 3328 2828 
z
" transform="scale(0.015625)"/>
       <path id="DejaVuSans-67" d="M 2906 1791 
Q 2906 2416 2648 2759 
Q 2391 3103 1925 3103 
Q 1463 3103 1205 2759 
Q 947 2416 947 1791 
Q 947 1169 1205 825 
Q 1463 481 1925 481 
Q 2391 481 2648 825 
Q 2906 1169 2906 1791 
z
M 3481 434 
Q 3481 -459 3084 -895 
Q 2688 -1331 1869 -1331 
Q 1566 -1331 1297 -1286 
Q 1028 -1241 775 -1147 
L 775 -588 
Q 1028 -725 1275 -790 
Q 1522 -856 1778 -856 
Q 2344 -856 2625 -561 
Q 2906 -266 2906 331 
L 2906 616 
Q 2728 306 2450 153 
Q 2172 0 1784 0 
Q 1141 0 747 490 
Q 353 981 353 1791 
Q 353 2603 747 3093 
Q 1141 3584 1784 3584 
Q 2172 3584 2450 3431 
Q 2728 3278 2906 2969 
L 2906 3500 
L 3481 3500 
L 3481 434 
z
" transform="scale(0.015625)"/>
      </defs>
      <use xlink:href="#DejaVuSans-32"/>
      <use xlink:href="#DejaVuSans-37" x="63.623047"/>
      <use xlink:href="#DejaVuSans-25" x="127.246094"/>
      <use xlink:href="#DejaVuSans-20" x="222.265625"/>
      <use xlink:href="#DejaVuSans-50" x="254.052734"/>
      <use xlink:href="#DejaVuSans-65" x="310.730469"/>
      <use xlink:href="#DejaVuSans-61" x="372.253906"/>
      <use xlink:href="#DejaVuSans-6b" x="433.533203"/>
      <use xlink:href="#DejaVuSans-20" x="491.443359"/>
      <use xlink:href="#DejaVuSans-54" x="523.230469"/>
      <use xlink:href="#DejaVuSans-69" x="581.189453"/>
      <use xlink:href="#DejaVuSans-6d" x="608.972656"/>
      <use xlink:href="#DejaVuSans-69" x="706.384766"/>
      <use xlink:href="#DejaVuSans-6e" x="734.167969"/>
      <use xlink:href="#DejaVuSans-67" x="797.546875"/>
     </g>
    </g>
    <g id="line2d_13">
     <path d="M 67.106581 25.42125 
L 75.106581 25.42125 
L 83.106581 25.42125 
" style="fill: none; stroke: #fc4f30; stroke-opacity: 0.7; stroke-width: 3"/>
    </g>
    <g id="text_8">
     <!-- 37% Peak Timing -->
     <g transform="translate(89.506581 28.22125) scale(0.08 -0.08)">
      <defs>
       <path id="DejaVuSans-33" d="M 2597 2516 
Q 3050 2419 3304 2112 
Q 3559 1806 3559 1356 
Q 3559 666 3084 287 
Q 2609 -91 1734 -91 
Q 1441 -91 1130 -33 
Q 819 25 488 141 
L 488 750 
Q 750 597 1062 519 
Q 1375 441 1716 441 
Q 2309 441 2620 675 
Q 2931 909 2931 1356 
Q 2931 1769 2642 2001 
Q 2353 2234 1838 2234 
L 1294 2234 
L 1294 2753 
L 1863 2753 
Q 2328 2753 2575 2939 
Q 2822 3125 2822 3475 
Q 2822 3834 2567 4026 
Q 2313 4219 1838 4219 
Q 1578 4219 1281 4162 
Q 984 4106 628 3988 
L 628 4550 
Q 988 4650 1302 4700 
Q 1616 4750 1894 4750 
Q 2613 4750 3031 4423 
Q 3450 4097 3450 3541 
Q 3450 3153 3228 2886 
Q 3006 2619 2597 2516 
z
" transform="scale(0.015625)"/>
      </defs>
      <use xlink:href="#DejaVuSans-33"/>
      <use xlink:href="#DejaVuSans-37" x="63.623047"/>
      <use xlink:href="#DejaVuSans-25" x="127.246094"/>
      <use xlink:href="#DejaVuSans-20" x="222.265625"/>
      <use xlink:href="#DejaVuSans-50" x="254.052734"/>
      <use xlink:href="#DejaVuSans-65" x="310.730469"/>
      <use xlink:href="#DejaVuSans-61" x="372.253906"/>
      <use xlink:href="#DejaVuSans-6b" x="433.533203"/>
      <use xlink:href="#DejaVuSans-20" x="491.443359"/>
      <use xlink:href="#DejaVuSans-54" x="523.230469"/>
      <use xlink:href="#DejaVuSans-69" x="581.189453"/>
      <use xlink:href="#DejaVuSans-6d" x="608.972656"/>
      <use xlink:href="#DejaVuSans-69" x="706.384766"/>
      <use xlink:href="#DejaVuSans-6e" x="734.167969"/>
      <use xlink:href="#DejaVuSans-67" x="797.546875"/>
     </g>
    </g>
    <g id="line2d_14">
     <path d="M 67.106581 37.16375 
L 75.106581 37.16375 
L 83.106581 37.16375 
" style="fill: none; stroke: #e5ae38; stroke-opacity: 0.7; stroke-width: 3"/>
    </g>
    <g id="text_9">
     <!-- 47% Peak Timing -->
     <g transform="translate(89.506581 39.96375) scale(0.08 -0.08)">
      <defs>
       <path id="DejaVuSans-34" d="M 2419 4116 
L 825 1625 
L 2419 1625 
L 2419 4116 
z
M 2253 4666 
L 3047 4666 
L 3047 1625 
L 3713 1625 
L 3713 1100 
L 3047 1100 
L 3047 0 
L 2419 0 
L 2419 1100 
L 313 1100 
L 313 1709 
L 2253 4666 
z
" transform="scale(0.015625)"/>
      </defs>
      <use xlink:href="#DejaVuSans-34"/>
      <use xlink:href="#DejaVuSans-37" x="63.623047"/>
      <use xlink:href="#DejaVuSans-25" x="127.246094"/>
      <use xlink:href="#DejaVuSans-20" x="222.265625"/>
      <use xlink:href="#DejaVuSans-50" x="254.052734"/>
      <use xlink:href="#DejaVuSans-65" x="310.730469"/>
      <use xlink:href="#DejaVuSans-61" x="372.253906"/>
      <use xlink:href="#DejaVuSans-6b" x="433.533203"/>
      <use xlink:href="#DejaVuSans-20" x="491.443359"/>
      <use xlink:href="#DejaVuSans-54" x="523.230469"/>
      <use xlink:href="#DejaVuSans-69" x="581.189453"/>
      <use xlink:href="#DejaVuSans-6d" x="608.972656"/>
      <use xlink:href="#DejaVuSans-69" x="706.384766"/>
      <use xlink:href="#DejaVuSans-6e" x="734.167969"/>
      <use xlink:href="#DejaVuSans-67" x="797.546875"/>
     </g>
    </g>
    <g id="line2d_15">
     <path d="M 67.106581 48.90625 
L 75.106581 48.90625 
L 83.106581 48.90625 
" style="fill: none; stroke: #6d904f; stroke-opacity: 0.7; stroke-width: 3"/>
    </g>
    <g id="text_10">
     <!-- 57% Peak Timing -->
     <g transform="translate(89.506581 51.70625) scale(0.08 -0.08)">
      <defs>
       <path id="DejaVuSans-35" d="M 691 4666 
L 3169 4666 
L 3169 4134 
L 1269 4134 
L 1269 2991 
Q 1406 3038 1543 3061 
Q 1681 3084 1819 3084 
Q 2600 3084 3056 2656 
Q 3513 2228 3513 1497 
Q 3513 744 3044 326 
Q 2575 -91 1722 -91 
Q 1428 -91 1123 -41 
Q 819 9 494 109 
L 494 744 
Q 775 591 1075 516 
Q 1375 441 1709 441 
Q 2250 441 2565 725 
Q 2881 1009 2881 1497 
Q 2881 1984 2565 2268 
Q 2250 2553 1709 2553 
Q 1456 2553 1204 2497 
Q 953 2441 691 2322 
L 691 4666 
z
" transform="scale(0.015625)"/>
      </defs>
      <use xlink:href="#DejaVuSans-35"/>
      <use xlink:href="#DejaVuSans-37" x="63.623047"/>
      <use xlink:href="#DejaVuSans-25" x="127.246094"/>
      <use xlink:href="#DejaVuSans-20" x="222.265625"/>
      <use xlink:href="#DejaVuSans-50" x="254.052734"/>
      <use xlink:href="#DejaVuSans-65" x="310.730469"/>
      <use xlink:href="#DejaVuSans-61" x="372.253906"/>
      <use xlink:href="#DejaVuSans-6b" x="433.533203"/>
      <use xlink:href="#DejaVuSans-20" x="491.443359"/>
      <use xlink:href="#DejaVuSans-54" x="523.230469"/>
      <use xlink:href="#DejaVuSans-69" x="581.189453"/>
      <use xlink:href="#DejaVuSans-6d" x="608.972656"/>
      <use xlink:href="#DejaVuSans-69" x="706.384766"/>
      <use xlink:href="#DejaVuSans-6e" x="734.167969"/>
      <use xlink:href="#DejaVuSans-67" x="797.546875"/>
     </g>
    </g>
    <g id="line2d_16">
     <path d="M 67.106581 60.64875 
L 75.106581 60.64875 
L 83.106581 60.64875 
" style="fill: none; stroke: #8b8b8b; stroke-opacity: 0.7; stroke-width: 3"/>
    </g>
    <g id="text_11">
     <!-- 67% Peak Timing -->
     <g transform="translate(89.506581 63.44875) scale(0.08 -0.08)">
      <use xlink:href="#DejaVuSans-36"/>
      <use xlink:href="#DejaVuSans-37" x="63.623047"/>
      <use xlink:href="#DejaVuSans-25" x="127.246094"/>
      <use xlink:href="#DejaVuSans-20" x="222.265625"/>
      <use xlink:href="#DejaVuSans-50" x="254.052734"/>
      <use xlink:href="#DejaVuSans-65" x="310.730469"/>
      <use xlink:href="#DejaVuSans-61" x="372.253906"/>
      <use xlink:href="#DejaVuSans-6b" x="433.533203"/>
      <use xlink:href="#DejaVuSans-20" x="491.443359"/>
      <use xlink:href="#DejaVuSans-54" x="523.230469"/>
      <use xlink:href="#DejaVuSans-69" x="581.189453"/>
      <use xlink:href="#DejaVuSans-6d" x="608.972656"/>
      <use xlink:href="#DejaVuSans-69" x="706.384766"/>
      <use xlink:href="#DejaVuSans-6e" x="734.167969"/>
      <use xlink:href="#DejaVuSans-67" x="797.546875"/>
     </g>
    </g>
    <g id="line2d_17">
     <path d="M 67.106581 72.39125 
L 75.106581 72.39125 
L 83.106581 72.39125 
" style="fill: none; stroke: #810f7c; stroke-opacity: 0.7; stroke-width: 3"/>
    </g>
    <g id="text_12">
     <!-- 77% Peak Timing -->
     <g transform="translate(89.506581 75.19125) scale(0.08 -0.08)">
      <use xlink:href="#DejaVuSans-37"/>
      <use xlink:href="#DejaVuSans-37" x="63.623047"/>
      <use xlink:href="#DejaVuSans-25" x="127.246094"/>
      <use xlink:href="#DejaVuSans-20" x="222.265625"/>
      <use xlink:href="#DejaVuSans-50" x="254.052734"/>
      <use xlink:href="#DejaVuSans-65" x="310.730469"/>
      <use xlink:href="#DejaVuSans-61" x="372.253906"/>
      <use xlink:href="#DejaVuSans-6b" x="433.533203"/>
      <use xlink:href="#DejaVuSans-20" x="491.443359"/>
      <use xlink:href="#DejaVuSans-54" x="523.230469"/>
      <use xlink:href="#DejaVuSans-69" x="581.189453"/>
      <use xlink:href="#DejaVuSans-6d" x="608.972656"/>
      <use xlink:href="#DejaVuSans-69" x="706.384766"/>
      <use xlink:href="#DejaVuSans-6e" x="734.167969"/>
      <use xlink:href="#DejaVuSans-67" x="797.546875"/>
     </g>
    </g>
    <g id="line2d_18">
     <path d="M 67.106581 84.13375 
L 75.106581 84.13375 
L 83.106581 84.13375 
" style="fill: none; stroke-dasharray: 11.1,4.8; stroke-dashoffset: 0; stroke: #000000; stroke-opacity: 0.7; stroke-width: 3"/>
    </g>
    <g id="text_13">
     <!-- OpenSim Assistance -->
     <g transform="translate(89.506581 86.93375) scale(0.08 -0.08)">
      <defs>
       <path id="DejaVuSans-4f" d="M 2522 4238 
Q 1834 4238 1429 3725 
Q 1025 3213 1025 2328 
Q 1025 1447 1429 934 
Q 1834 422 2522 422 
Q 3209 422 3611 934 
Q 4013 1447 4013 2328 
Q 4013 3213 3611 3725 
Q 3209 4238 2522 4238 
z
M 2522 4750 
Q 3503 4750 4090 4092 
Q 4678 3434 4678 2328 
Q 4678 1225 4090 567 
Q 3503 -91 2522 -91 
Q 1538 -91 948 565 
Q 359 1222 359 2328 
Q 359 3434 948 4092 
Q 1538 4750 2522 4750 
z
" transform="scale(0.015625)"/>
       <path id="DejaVuSans-70" d="M 1159 525 
L 1159 -1331 
L 581 -1331 
L 581 3500 
L 1159 3500 
L 1159 2969 
Q 1341 3281 1617 3432 
Q 1894 3584 2278 3584 
Q 2916 3584 3314 3078 
Q 3713 2572 3713 1747 
Q 3713 922 3314 415 
Q 2916 -91 2278 -91 
Q 1894 -91 1617 61 
Q 1341 213 1159 525 
z
M 3116 1747 
Q 3116 2381 2855 2742 
Q 2594 3103 2138 3103 
Q 1681 3103 1420 2742 
Q 1159 2381 1159 1747 
Q 1159 1113 1420 752 
Q 1681 391 2138 391 
Q 2594 391 2855 752 
Q 3116 1113 3116 1747 
z
" transform="scale(0.015625)"/>
      </defs>
      <use xlink:href="#DejaVuSans-4f"/>
      <use xlink:href="#DejaVuSans-70" x="78.710938"/>
      <use xlink:href="#DejaVuSans-65" x="142.1875"/>
      <use xlink:href="#DejaVuSans-6e" x="203.710938"/>
      <use xlink:href="#DejaVuSans-53" x="267.089844"/>
      <use xlink:href="#DejaVuSans-69" x="330.566406"/>
      <use xlink:href="#DejaVuSans-6d" x="358.349609"/>
      <use xlink:href="#DejaVuSans-20" x="455.761719"/>
      <use xlink:href="#DejaVuSans-41" x="487.548828"/>
      <use xlink:href="#DejaVuSans-73" x="555.957031"/>
      <use xlink:href="#DejaVuSans-73" x="608.056641"/>
      <use xlink:href="#DejaVuSans-69" x="660.15625"/>
      <use xlink:href="#DejaVuSans-73" x="687.939453"/>
      <use xlink:href="#DejaVuSans-74" x="740.039062"/>
      <use xlink:href="#DejaVuSans-61" x="779.248047"/>
      <use xlink:href="#DejaVuSans-6e" x="840.527344"/>
      <use xlink:href="#DejaVuSans-63" x="903.90625"/>
      <use xlink:href="#DejaVuSans-65" x="958.886719"/>
     </g>
    </g>
   </g>
  </g>
 </g>
 <defs>
  <clipPath id="p33054b0f90">
   <rect x="48.519375" y="91.7975" width="384.680145" height="159.738895"/>
  </clipPath>
 </defs>
</svg>
