<?xml version="1.0" encoding="utf-8" standalone="no"?>
<!DOCTYPE svg PUBLIC "-//W3C//DTD SVG 1.1//EN"
  "http://www.w3.org/Graphics/SVG/1.1/DTD/svg11.dtd">
<svg xmlns:xlink="http://www.w3.org/1999/xlink" width="440.39952pt" height="296.39952pt" viewBox="0 0 440.39952 296.39952" xmlns="http://www.w3.org/2000/svg" version="1.1">
 <metadata>
  <rdf:RDF xmlns:dc="http://purl.org/dc/elements/1.1/" xmlns:cc="http://creativecommons.org/ns#" xmlns:rdf="http://www.w3.org/1999/02/22-rdf-syntax-ns#">
   <cc:Work>
    <dc:type rdf:resource="http://purl.org/dc/dcmitype/StillImage"/>
    <dc:date>2024-03-06T16:51:08.959528</dc:date>
    <dc:format>image/svg+xml</dc:format>
    <dc:creator>
     <cc:Agent>
      <dc:title>Matplotlib v3.8.2, https://matplotlib.org/</dc:title>
     </cc:Agent>
    </dc:creator>
   </cc:Work>
  </rdf:RDF>
 </metadata>
 <defs>
  <style type="text/css">*{stroke-linejoin: round; stroke-linecap: butt}</style>
 </defs>
 <g id="figure_1">
  <g id="patch_1">
   <path d="M 0 296.39952 
L 440.39952 296.39952 
L 440.39952 0 
L 0 0 
z
" style="fill: #ffffff"/>
  </g>
  <g id="axes_1">
   <g id="patch_2">
    <path d="M 24.749375 251.536395 
L 433.19952 251.536395 
L 433.19952 54.234375 
L 24.749375 54.234375 
z
" style="fill: #ffffff"/>
   </g>
   <g id="matplotlib.axis_1">
    <g id="xtick_1">
     <g id="line2d_1">
      <defs>
       <path id="me9ed71a1ae" d="M 0 0 
L 0 5 
" style="stroke: #000000; stroke-width: 0.8"/>
      </defs>
      <g>
       <use xlink:href="#me9ed71a1ae" x="43.315291" y="251.536395" style="stroke: #000000; stroke-width: 0.8"/>
      </g>
     </g>
     <g id="text_1">
      <!-- 0% -->
      <g transform="translate(33.796853 269.15452) scale(0.12 -0.12)">
       <defs>
        <path id="DejaVuSans-30" d="M 2034 4250 
Q 1547 4250 1301 3770 
Q 1056 3291 1056 2328 
Q 1056 1369 1301 889 
Q 1547 409 2034 409 
Q 2525 409 2770 889 
Q 3016 1369 3016 2328 
Q 3016 3291 2770 3770 
Q 2525 4250 2034 4250 
z
M 2034 4750 
Q 2819 4750 3233 4129 
Q 3647 3509 3647 2328 
Q 3647 1150 3233 529 
Q 2819 -91 2034 -91 
Q 1250 -91 836 529 
Q 422 1150 422 2328 
Q 422 3509 836 4129 
Q 1250 4750 2034 4750 
z
" transform="scale(0.015625)"/>
        <path id="DejaVuSans-25" d="M 4653 2053 
Q 4381 2053 4226 1822 
Q 4072 1591 4072 1178 
Q 4072 772 4226 539 
Q 4381 306 4653 306 
Q 4919 306 5073 539 
Q 5228 772 5228 1178 
Q 5228 1588 5073 1820 
Q 4919 2053 4653 2053 
z
M 4653 2450 
Q 5147 2450 5437 2106 
Q 5728 1763 5728 1178 
Q 5728 594 5436 251 
Q 5144 -91 4653 -91 
Q 4153 -91 3862 251 
Q 3572 594 3572 1178 
Q 3572 1766 3864 2108 
Q 4156 2450 4653 2450 
z
M 1428 4353 
Q 1159 4353 1004 4120 
Q 850 3888 850 3481 
Q 850 3069 1003 2837 
Q 1156 2606 1428 2606 
Q 1700 2606 1854 2837 
Q 2009 3069 2009 3481 
Q 2009 3884 1853 4118 
Q 1697 4353 1428 4353 
z
M 4250 4750 
L 4750 4750 
L 1831 -91 
L 1331 -91 
L 4250 4750 
z
M 1428 4750 
Q 1922 4750 2215 4408 
Q 2509 4066 2509 3481 
Q 2509 2891 2217 2550 
Q 1925 2209 1428 2209 
Q 931 2209 642 2551 
Q 353 2894 353 3481 
Q 353 4063 643 4406 
Q 934 4750 1428 4750 
z
" transform="scale(0.015625)"/>
       </defs>
       <use xlink:href="#DejaVuSans-30"/>
       <use xlink:href="#DejaVuSans-25" x="63.623047"/>
      </g>
     </g>
    </g>
    <g id="xtick_2">
     <g id="line2d_2">
      <g>
       <use xlink:href="#me9ed71a1ae" x="414.633604" y="251.536395" style="stroke: #000000; stroke-width: 0.8"/>
      </g>
     </g>
     <g id="text_2">
      <!-- 100% -->
      <g transform="translate(397.480167 269.15452) scale(0.12 -0.12)">
       <defs>
        <path id="DejaVuSans-31" d="M 794 531 
L 1825 531 
L 1825 4091 
L 703 3866 
L 703 4441 
L 1819 4666 
L 2450 4666 
L 2450 531 
L 3481 531 
L 3481 0 
L 794 0 
L 794 531 
z
" transform="scale(0.015625)"/>
       </defs>
       <use xlink:href="#DejaVuSans-31"/>
       <use xlink:href="#DejaVuSans-30" x="63.623047"/>
       <use xlink:href="#DejaVuSans-30" x="127.246094"/>
       <use xlink:href="#DejaVuSans-25" x="190.869141"/>
      </g>
     </g>
    </g>
    <g id="text_3">
     <!-- Sit-to-stand (%) -->
     <g transform="translate(173.73351 286.287957) scale(0.14 -0.14)">
      <defs>
       <path id="DejaVuSans-53" d="M 3425 4513 
L 3425 3897 
Q 3066 4069 2747 4153 
Q 2428 4238 2131 4238 
Q 1616 4238 1336 4038 
Q 1056 3838 1056 3469 
Q 1056 3159 1242 3001 
Q 1428 2844 1947 2747 
L 2328 2669 
Q 3034 2534 3370 2195 
Q 3706 1856 3706 1288 
Q 3706 609 3251 259 
Q 2797 -91 1919 -91 
Q 1588 -91 1214 -16 
Q 841 59 441 206 
L 441 856 
Q 825 641 1194 531 
Q 1563 422 1919 422 
Q 2459 422 2753 634 
Q 3047 847 3047 1241 
Q 3047 1584 2836 1778 
Q 2625 1972 2144 2069 
L 1759 2144 
Q 1053 2284 737 2584 
Q 422 2884 422 3419 
Q 422 4038 858 4394 
Q 1294 4750 2059 4750 
Q 2388 4750 2728 4690 
Q 3069 4631 3425 4513 
z
" transform="scale(0.015625)"/>
       <path id="DejaVuSans-69" d="M 603 3500 
L 1178 3500 
L 1178 0 
L 603 0 
L 603 3500 
z
M 603 4863 
L 1178 4863 
L 1178 4134 
L 603 4134 
L 603 4863 
z
" transform="scale(0.015625)"/>
       <path id="DejaVuSans-74" d="M 1172 4494 
L 1172 3500 
L 2356 3500 
L 2356 3053 
L 1172 3053 
L 1172 1153 
Q 1172 725 1289 603 
Q 1406 481 1766 481 
L 2356 481 
L 2356 0 
L 1766 0 
Q 1100 0 847 248 
Q 594 497 594 1153 
L 594 3053 
L 172 3053 
L 172 3500 
L 594 3500 
L 594 4494 
L 1172 4494 
z
" transform="scale(0.015625)"/>
       <path id="DejaVuSans-2d" d="M 313 2009 
L 1997 2009 
L 1997 1497 
L 313 1497 
L 313 2009 
z
" transform="scale(0.015625)"/>
       <path id="DejaVuSans-6f" d="M 1959 3097 
Q 1497 3097 1228 2736 
Q 959 2375 959 1747 
Q 959 1119 1226 758 
Q 1494 397 1959 397 
Q 2419 397 2687 759 
Q 2956 1122 2956 1747 
Q 2956 2369 2687 2733 
Q 2419 3097 1959 3097 
z
M 1959 3584 
Q 2709 3584 3137 3096 
Q 3566 2609 3566 1747 
Q 3566 888 3137 398 
Q 2709 -91 1959 -91 
Q 1206 -91 779 398 
Q 353 888 353 1747 
Q 353 2609 779 3096 
Q 1206 3584 1959 3584 
z
" transform="scale(0.015625)"/>
       <path id="DejaVuSans-73" d="M 2834 3397 
L 2834 2853 
Q 2591 2978 2328 3040 
Q 2066 3103 1784 3103 
Q 1356 3103 1142 2972 
Q 928 2841 928 2578 
Q 928 2378 1081 2264 
Q 1234 2150 1697 2047 
L 1894 2003 
Q 2506 1872 2764 1633 
Q 3022 1394 3022 966 
Q 3022 478 2636 193 
Q 2250 -91 1575 -91 
Q 1294 -91 989 -36 
Q 684 19 347 128 
L 347 722 
Q 666 556 975 473 
Q 1284 391 1588 391 
Q 1994 391 2212 530 
Q 2431 669 2431 922 
Q 2431 1156 2273 1281 
Q 2116 1406 1581 1522 
L 1381 1569 
Q 847 1681 609 1914 
Q 372 2147 372 2553 
Q 372 3047 722 3315 
Q 1072 3584 1716 3584 
Q 2034 3584 2315 3537 
Q 2597 3491 2834 3397 
z
" transform="scale(0.015625)"/>
       <path id="DejaVuSans-61" d="M 2194 1759 
Q 1497 1759 1228 1600 
Q 959 1441 959 1056 
Q 959 750 1161 570 
Q 1363 391 1709 391 
Q 2188 391 2477 730 
Q 2766 1069 2766 1631 
L 2766 1759 
L 2194 1759 
z
M 3341 1997 
L 3341 0 
L 2766 0 
L 2766 531 
Q 2569 213 2275 61 
Q 1981 -91 1556 -91 
Q 1019 -91 701 211 
Q 384 513 384 1019 
Q 384 1609 779 1909 
Q 1175 2209 1959 2209 
L 2766 2209 
L 2766 2266 
Q 2766 2663 2505 2880 
Q 2244 3097 1772 3097 
Q 1472 3097 1187 3025 
Q 903 2953 641 2809 
L 641 3341 
Q 956 3463 1253 3523 
Q 1550 3584 1831 3584 
Q 2591 3584 2966 3190 
Q 3341 2797 3341 1997 
z
" transform="scale(0.015625)"/>
       <path id="DejaVuSans-6e" d="M 3513 2113 
L 3513 0 
L 2938 0 
L 2938 2094 
Q 2938 2591 2744 2837 
Q 2550 3084 2163 3084 
Q 1697 3084 1428 2787 
Q 1159 2491 1159 1978 
L 1159 0 
L 581 0 
L 581 3500 
L 1159 3500 
L 1159 2956 
Q 1366 3272 1645 3428 
Q 1925 3584 2291 3584 
Q 2894 3584 3203 3211 
Q 3513 2838 3513 2113 
z
" transform="scale(0.015625)"/>
       <path id="DejaVuSans-64" d="M 2906 2969 
L 2906 4863 
L 3481 4863 
L 3481 0 
L 2906 0 
L 2906 525 
Q 2725 213 2448 61 
Q 2172 -91 1784 -91 
Q 1150 -91 751 415 
Q 353 922 353 1747 
Q 353 2572 751 3078 
Q 1150 3584 1784 3584 
Q 2172 3584 2448 3432 
Q 2725 3281 2906 2969 
z
M 947 1747 
Q 947 1113 1208 752 
Q 1469 391 1925 391 
Q 2381 391 2643 752 
Q 2906 1113 2906 1747 
Q 2906 2381 2643 2742 
Q 2381 3103 1925 3103 
Q 1469 3103 1208 2742 
Q 947 2381 947 1747 
z
" transform="scale(0.015625)"/>
       <path id="DejaVuSans-20" transform="scale(0.015625)"/>
       <path id="DejaVuSans-28" d="M 1984 4856 
Q 1566 4138 1362 3434 
Q 1159 2731 1159 2009 
Q 1159 1288 1364 580 
Q 1569 -128 1984 -844 
L 1484 -844 
Q 1016 -109 783 600 
Q 550 1309 550 2009 
Q 550 2706 781 3412 
Q 1013 4119 1484 4856 
L 1984 4856 
z
" transform="scale(0.015625)"/>
       <path id="DejaVuSans-29" d="M 513 4856 
L 1013 4856 
Q 1481 4119 1714 3412 
Q 1947 2706 1947 2009 
Q 1947 1309 1714 600 
Q 1481 -109 1013 -844 
L 513 -844 
Q 928 -128 1133 580 
Q 1338 1288 1338 2009 
Q 1338 2731 1133 3434 
Q 928 4138 513 4856 
z
" transform="scale(0.015625)"/>
      </defs>
      <use xlink:href="#DejaVuSans-53"/>
      <use xlink:href="#DejaVuSans-69" x="63.476562"/>
      <use xlink:href="#DejaVuSans-74" x="91.259766"/>
      <use xlink:href="#DejaVuSans-2d" x="130.46875"/>
      <use xlink:href="#DejaVuSans-74" x="166.552734"/>
      <use xlink:href="#DejaVuSans-6f" x="205.761719"/>
      <use xlink:href="#DejaVuSans-2d" x="268.818359"/>
      <use xlink:href="#DejaVuSans-73" x="304.902344"/>
      <use xlink:href="#DejaVuSans-74" x="357.001953"/>
      <use xlink:href="#DejaVuSans-61" x="396.210938"/>
      <use xlink:href="#DejaVuSans-6e" x="457.490234"/>
      <use xlink:href="#DejaVuSans-64" x="520.869141"/>
      <use xlink:href="#DejaVuSans-20" x="584.345703"/>
      <use xlink:href="#DejaVuSans-28" x="616.132812"/>
      <use xlink:href="#DejaVuSans-25" x="655.146484"/>
      <use xlink:href="#DejaVuSans-29" x="750.166016"/>
     </g>
    </g>
   </g>
   <g id="matplotlib.axis_2">
    <g id="text_4">
     <!-- Assistance (N) -->
     <g transform="translate(17.837812 203.108197) rotate(-90) scale(0.14 -0.14)">
      <defs>
       <path id="DejaVuSans-41" d="M 2188 4044 
L 1331 1722 
L 3047 1722 
L 2188 4044 
z
M 1831 4666 
L 2547 4666 
L 4325 0 
L 3669 0 
L 3244 1197 
L 1141 1197 
L 716 0 
L 50 0 
L 1831 4666 
z
" transform="scale(0.015625)"/>
       <path id="DejaVuSans-63" d="M 3122 3366 
L 3122 2828 
Q 2878 2963 2633 3030 
Q 2388 3097 2138 3097 
Q 1578 3097 1268 2742 
Q 959 2388 959 1747 
Q 959 1106 1268 751 
Q 1578 397 2138 397 
Q 2388 397 2633 464 
Q 2878 531 3122 666 
L 3122 134 
Q 2881 22 2623 -34 
Q 2366 -91 2075 -91 
Q 1284 -91 818 406 
Q 353 903 353 1747 
Q 353 2603 823 3093 
Q 1294 3584 2113 3584 
Q 2378 3584 2631 3529 
Q 2884 3475 3122 3366 
z
" transform="scale(0.015625)"/>
       <path id="DejaVuSans-65" d="M 3597 1894 
L 3597 1613 
L 953 1613 
Q 991 1019 1311 708 
Q 1631 397 2203 397 
Q 2534 397 2845 478 
Q 3156 559 3463 722 
L 3463 178 
Q 3153 47 2828 -22 
Q 2503 -91 2169 -91 
Q 1331 -91 842 396 
Q 353 884 353 1716 
Q 353 2575 817 3079 
Q 1281 3584 2069 3584 
Q 2775 3584 3186 3129 
Q 3597 2675 3597 1894 
z
M 3022 2063 
Q 3016 2534 2758 2815 
Q 2500 3097 2075 3097 
Q 1594 3097 1305 2825 
Q 1016 2553 972 2059 
L 3022 2063 
z
" transform="scale(0.015625)"/>
       <path id="DejaVuSans-4e" d="M 628 4666 
L 1478 4666 
L 3547 763 
L 3547 4666 
L 4159 4666 
L 4159 0 
L 3309 0 
L 1241 3903 
L 1241 0 
L 628 0 
L 628 4666 
z
" transform="scale(0.015625)"/>
      </defs>
      <use xlink:href="#DejaVuSans-41"/>
      <use xlink:href="#DejaVuSans-73" x="68.408203"/>
      <use xlink:href="#DejaVuSans-73" x="120.507812"/>
      <use xlink:href="#DejaVuSans-69" x="172.607422"/>
      <use xlink:href="#DejaVuSans-73" x="200.390625"/>
      <use xlink:href="#DejaVuSans-74" x="252.490234"/>
      <use xlink:href="#DejaVuSans-61" x="291.699219"/>
      <use xlink:href="#DejaVuSans-6e" x="352.978516"/>
      <use xlink:href="#DejaVuSans-63" x="416.357422"/>
      <use xlink:href="#DejaVuSans-65" x="471.337891"/>
      <use xlink:href="#DejaVuSans-20" x="532.861328"/>
      <use xlink:href="#DejaVuSans-28" x="564.648438"/>
      <use xlink:href="#DejaVuSans-4e" x="603.662109"/>
      <use xlink:href="#DejaVuSans-29" x="678.466797"/>
     </g>
    </g>
   </g>
   <g id="patch_3">
    <path d="M 39.00356 245.617334 
Q 228.973832 245.617334 416.708037 245.617334 
" clip-path="url(#pf6e71a9adf)" style="fill: none; stroke: #000000; stroke-width: 2; stroke-linecap: round"/>
    <path d="M 408.708037 241.617334 
L 416.708037 245.617334 
L 408.708037 249.617334 
z
" clip-path="url(#pf6e71a9adf)" style="stroke: #000000; stroke-width: 2; stroke-linecap: round"/>
   </g>
   <g id="patch_4">
    <path d="M 37.002879 243.616948 
Q 37.002879 149.926959 37.002879 58.473039 
" clip-path="url(#pf6e71a9adf)" style="fill: none; stroke: #000000; stroke-width: 2; stroke-linecap: round"/>
    <path d="M 33.002879 66.473039 
L 37.002879 58.473039 
L 41.002879 66.473039 
z
" clip-path="url(#pf6e71a9adf)" style="stroke: #000000; stroke-width: 2; stroke-linecap: round"/>
   </g>
   <g id="line2d_3">
    <path d="M 43.315291 236.919366 
L 57.860017 236.997114 
L 65.560167 236.883903 
L 74.97146 236.934156 
L 77.538177 236.923845 
L 92.938475 236.954082 
L 100.638625 236.787461 
L 101.494197 236.645795 
L 102.349769 236.112999 
L 103.205341 235.328488 
L 104.060913 234.108442 
L 104.916486 232.063193 
L 106.62763 224.855357 
L 107.483202 220.670693 
L 110.049918 206.605108 
L 110.905491 202.822596 
L 111.761063 199.865314 
L 112.616635 197.695887 
L 113.472207 197.041472 
L 114.327779 198.243724 
L 115.183351 199.871269 
L 116.038924 201.918608 
L 117.750068 207.028597 
L 118.60564 209.235872 
L 119.461212 211.020521 
L 120.316784 212.135967 
L 121.172356 212.64353 
L 122.027929 211.97222 
L 122.883501 210.048118 
L 123.739073 207.216351 
L 124.594645 203.170479 
L 125.450217 197.89551 
L 126.305789 191.85195 
L 127.161362 183.621939 
L 128.872506 162.491275 
L 131.439222 127.957455 
L 133.150367 106.285888 
L 134.861511 88.701702 
L 135.717083 83.106566 
L 136.572655 79.212826 
L 137.428227 76.061484 
L 138.283799 73.394713 
L 139.139372 71.308377 
L 139.994944 68.920399 
L 140.850516 68.495156 
L 141.706088 67.821697 
L 143.417232 68.095173 
L 145.128377 68.622538 
L 145.983949 69.580075 
L 146.839521 71.567665 
L 147.695093 72.929519 
L 149.406237 76.579472 
L 150.26181 79.106924 
L 151.117382 80.903315 
L 151.972954 83.252015 
L 152.828526 84.393248 
L 155.395242 89.387403 
L 157.106387 94.15307 
L 157.961959 95.737299 
L 158.817531 97.850058 
L 160.528675 100.810104 
L 162.23982 105.567559 
L 163.950964 109.567595 
L 166.51768 114.243988 
L 169.084397 117.926163 
L 170.795541 119.875596 
L 172.506686 120.860859 
L 174.21783 121.814078 
L 175.928974 122.513652 
L 176.784546 123.309394 
L 179.351263 124.113844 
L 181.917979 125.960468 
L 184.484696 127.852101 
L 185.340268 128.072256 
L 187.051412 129.653919 
L 189.618129 131.693223 
L 191.329273 133.138571 
L 193.040417 133.855979 
L 194.751561 135.66576 
L 195.607134 136.03746 
L 196.462706 136.552169 
L 199.029422 138.457891 
L 203.307283 141.531683 
L 205.018427 143.488579 
L 206.729572 145.230457 
L 208.440716 146.29821 
L 211.863004 150.014763 
L 215.285293 153.079678 
L 216.996437 155.148123 
L 228.118875 166.280359 
L 231.541164 169.462424 
L 236.674597 173.883368 
L 243.519174 179.575516 
L 250.363751 184.913016 
L 256.352756 189.743205 
L 259.775045 192.204344 
L 261.486189 193.487824 
L 268.330766 197.636153 
L 270.041911 198.337517 
L 272.608627 199.366376 
L 278.597632 201.305766 
L 282.875493 202.994798 
L 283.731065 203.26837 
L 285.442209 203.517706 
L 289.72007 204.697092 
L 293.997931 205.6058 
L 296.564647 205.782446 
L 300.842508 206.620837 
L 302.553653 206.883923 
L 304.264797 207.395765 
L 305.975941 207.559452 
L 308.542658 207.816386 
L 311.964946 208.432774 
L 313.67609 208.656121 
L 316.242807 209.206565 
L 318.809523 209.363563 
L 320.520668 209.46112 
L 323.087384 209.765722 
L 326.509673 210.090389 
L 329.931961 210.370912 
L 335.920966 210.537054 
L 341.054399 210.945645 
L 346.187832 210.91517 
L 347.898977 210.870838 
L 354.743554 210.99363 
L 362.443703 210.92845 
L 365.865992 210.951775 
L 367.577136 210.944839 
L 370.999425 211.127209 
L 376.98843 211.016289 
L 379.555146 210.869651 
L 406.077883 210.869676 
L 414.633604 210.736512 
L 414.633604 210.736512 
" clip-path="url(#pf6e71a9adf)" style="fill: none; stroke: #008fd5; stroke-opacity: 0.7; stroke-width: 3"/>
   </g>
   <g id="line2d_4">
    <path d="M 43.315291 239.198272 
L 130.58365 239.254347 
L 137.428227 239.146012 
L 139.139372 239.136404 
L 139.994944 238.991526 
L 140.850516 238.712337 
L 141.706088 238.312576 
L 143.417232 237.127967 
L 145.128377 235.518409 
L 146.839521 233.637086 
L 147.695093 232.831048 
L 148.550665 232.266991 
L 150.26181 231.712594 
L 155.395242 230.3198 
L 159.673103 227.452477 
L 160.528675 227.116605 
L 163.095392 226.572853 
L 163.950964 226.204951 
L 164.806536 225.66124 
L 165.662108 224.827857 
L 166.51768 223.732261 
L 167.373253 222.222429 
L 169.084397 218.630554 
L 173.362258 207.976489 
L 175.073402 202.910088 
L 175.928974 200.10716 
L 178.495691 190.343035 
L 186.19584 156.69502 
L 187.906984 149.950592 
L 189.618129 142.476585 
L 190.473701 138.381953 
L 191.329273 135.268651 
L 193.040417 127.11232 
L 194.751561 119.260406 
L 195.607134 114.171067 
L 196.462706 110.611106 
L 197.318278 106.411249 
L 199.884994 95.540858 
L 203.307283 84.704758 
L 204.162855 83.147982 
L 205.018427 80.384747 
L 205.873999 78.898731 
L 206.729572 76.2996 
L 207.585144 75.072433 
L 208.440716 73.333392 
L 209.296288 72.336045 
L 210.15186 71.659208 
L 211.863004 69.104751 
L 212.718577 68.388297 
L 213.574149 68.540783 
L 214.429721 66.709572 
L 215.285293 66.522996 
L 216.996437 65.781797 
L 218.707582 64.55598 
L 220.418726 63.933299 
L 222.12987 63.790758 
L 222.985442 65.370512 
L 223.841015 66.021198 
L 224.696587 65.577616 
L 225.552159 66.098863 
L 226.407731 66.412591 
L 228.974448 68.251295 
L 229.83002 68.628836 
L 230.685592 68.64697 
L 231.541164 69.120919 
L 232.396736 69.308825 
L 233.252308 70.379821 
L 234.963453 71.243387 
L 236.674597 72.349905 
L 239.241313 74.117677 
L 240.096885 74.373117 
L 242.663602 76.014524 
L 245.230318 78.196869 
L 249.508179 83.691322 
L 250.363751 84.520007 
L 251.219323 85.548323 
L 252.930468 87.092521 
L 254.641612 88.355074 
L 257.208328 90.34471 
L 258.919473 92.114853 
L 259.775045 92.695916 
L 260.630617 93.636107 
L 261.486189 94.353418 
L 263.197334 96.318057 
L 264.052906 97.091261 
L 266.619622 100.139522 
L 267.475194 101.669593 
L 268.330766 102.794611 
L 269.186339 103.387179 
L 274.319772 109.349783 
L 276.030916 111.631556 
L 276.886488 112.788621 
L 277.74206 114.221453 
L 280.308777 117.918627 
L 282.875493 121.976647 
L 284.586637 123.907264 
L 285.442209 125.234194 
L 287.153354 128.167499 
L 289.72007 131.943387 
L 291.431215 134.232299 
L 292.286787 135.744013 
L 295.709075 140.474496 
L 301.69808 149.337793 
L 304.264797 153.445067 
L 308.542658 159.601341 
L 311.964946 164.215646 
L 314.531663 167.352069 
L 317.953951 171.884792 
L 322.231812 177.194642 
L 324.798528 180.195455 
L 329.076389 185.473038 
L 329.931961 186.396576 
L 331.643106 188.622159 
L 335.065394 192.575403 
L 339.343255 196.70458 
L 341.054399 198.181422 
L 347.043404 202.703508 
L 350.465693 204.915349 
L 356.454698 208.247707 
L 362.443703 210.951089 
L 366.721564 212.614405 
L 369.28828 213.435196 
L 373.566141 214.491221 
L 380.410718 216.000855 
L 384.688579 216.856981 
L 395.811017 218.3758 
L 408.644599 219.78513 
L 413.778032 219.866754 
L 414.633604 219.830459 
L 414.633604 219.830459 
" clip-path="url(#pf6e71a9adf)" style="fill: none; stroke: #fc4f30; stroke-opacity: 0.7; stroke-width: 3"/>
   </g>
   <g id="line2d_5">
    <path d="M 43.315291 242.568121 
L 44.170863 237.980808 
L 45.026435 234.209018 
L 45.882007 231.45663 
L 50.159868 213.209319 
L 59.571162 172.394454 
L 69.838027 126.800661 
L 70.6936 125.41041 
L 82.67161 110.163051 
L 83.527182 109.474253 
L 97.216336 111.357981 
L 110.049918 114.839766 
L 123.739073 116.591885 
L 136.572655 116.187737 
L 150.26181 110.172484 
L 163.095392 101.712966 
L 176.784546 97.262724 
L 189.618129 91.656129 
L 192.184845 88.504228 
L 203.307283 74.612886 
L 216.140865 63.202649 
L 216.996437 63.450701 
L 228.974448 70.958377 
L 229.83002 71.73136 
L 242.663602 95.753922 
L 243.519174 98.232321 
L 256.352756 142.21474 
L 272.608627 236.781831 
L 273.464199 239.688502 
L 274.319772 240.011466 
L 414.633604 240.011466 
L 414.633604 240.011466 
" clip-path="url(#pf6e71a9adf)" style="fill: none; stroke-dasharray: 11.1,4.8; stroke-dashoffset: 0; stroke: #000000; stroke-opacity: 0.7; stroke-width: 3"/>
   </g>
   <g id="legend_1">
    <g id="line2d_6">
     <path d="M 45.087381 15.298437 
L 55.087381 15.298437 
L 65.087381 15.298437 
" style="fill: none; stroke: #008fd5; stroke-opacity: 0.7; stroke-width: 3"/>
    </g>
    <g id="text_5">
     <!-- 27% peak timing -->
     <g transform="translate(73.087381 18.798437) scale(0.1 -0.1)">
      <defs>
       <path id="DejaVuSans-32" d="M 1228 531 
L 3431 531 
L 3431 0 
L 469 0 
L 469 531 
Q 828 903 1448 1529 
Q 2069 2156 2228 2338 
Q 2531 2678 2651 2914 
Q 2772 3150 2772 3378 
Q 2772 3750 2511 3984 
Q 2250 4219 1831 4219 
Q 1534 4219 1204 4116 
Q 875 4013 500 3803 
L 500 4441 
Q 881 4594 1212 4672 
Q 1544 4750 1819 4750 
Q 2544 4750 2975 4387 
Q 3406 4025 3406 3419 
Q 3406 3131 3298 2873 
Q 3191 2616 2906 2266 
Q 2828 2175 2409 1742 
Q 1991 1309 1228 531 
z
" transform="scale(0.015625)"/>
       <path id="DejaVuSans-37" d="M 525 4666 
L 3525 4666 
L 3525 4397 
L 1831 0 
L 1172 0 
L 2766 4134 
L 525 4134 
L 525 4666 
z
" transform="scale(0.015625)"/>
       <path id="DejaVuSans-70" d="M 1159 525 
L 1159 -1331 
L 581 -1331 
L 581 3500 
L 1159 3500 
L 1159 2969 
Q 1341 3281 1617 3432 
Q 1894 3584 2278 3584 
Q 2916 3584 3314 3078 
Q 3713 2572 3713 1747 
Q 3713 922 3314 415 
Q 2916 -91 2278 -91 
Q 1894 -91 1617 61 
Q 1341 213 1159 525 
z
M 3116 1747 
Q 3116 2381 2855 2742 
Q 2594 3103 2138 3103 
Q 1681 3103 1420 2742 
Q 1159 2381 1159 1747 
Q 1159 1113 1420 752 
Q 1681 391 2138 391 
Q 2594 391 2855 752 
Q 3116 1113 3116 1747 
z
" transform="scale(0.015625)"/>
       <path id="DejaVuSans-6b" d="M 581 4863 
L 1159 4863 
L 1159 1991 
L 2875 3500 
L 3609 3500 
L 1753 1863 
L 3688 0 
L 2938 0 
L 1159 1709 
L 1159 0 
L 581 0 
L 581 4863 
z
" transform="scale(0.015625)"/>
       <path id="DejaVuSans-6d" d="M 3328 2828 
Q 3544 3216 3844 3400 
Q 4144 3584 4550 3584 
Q 5097 3584 5394 3201 
Q 5691 2819 5691 2113 
L 5691 0 
L 5113 0 
L 5113 2094 
Q 5113 2597 4934 2840 
Q 4756 3084 4391 3084 
Q 3944 3084 3684 2787 
Q 3425 2491 3425 1978 
L 3425 0 
L 2847 0 
L 2847 2094 
Q 2847 2600 2669 2842 
Q 2491 3084 2119 3084 
Q 1678 3084 1418 2786 
Q 1159 2488 1159 1978 
L 1159 0 
L 581 0 
L 581 3500 
L 1159 3500 
L 1159 2956 
Q 1356 3278 1631 3431 
Q 1906 3584 2284 3584 
Q 2666 3584 2933 3390 
Q 3200 3197 3328 2828 
z
" transform="scale(0.015625)"/>
       <path id="DejaVuSans-67" d="M 2906 1791 
Q 2906 2416 2648 2759 
Q 2391 3103 1925 3103 
Q 1463 3103 1205 2759 
Q 947 2416 947 1791 
Q 947 1169 1205 825 
Q 1463 481 1925 481 
Q 2391 481 2648 825 
Q 2906 1169 2906 1791 
z
M 3481 434 
Q 3481 -459 3084 -895 
Q 2688 -1331 1869 -1331 
Q 1566 -1331 1297 -1286 
Q 1028 -1241 775 -1147 
L 775 -588 
Q 1028 -725 1275 -790 
Q 1522 -856 1778 -856 
Q 2344 -856 2625 -561 
Q 2906 -266 2906 331 
L 2906 616 
Q 2728 306 2450 153 
Q 2172 0 1784 0 
Q 1141 0 747 490 
Q 353 981 353 1791 
Q 353 2603 747 3093 
Q 1141 3584 1784 3584 
Q 2172 3584 2450 3431 
Q 2728 3278 2906 2969 
L 2906 3500 
L 3481 3500 
L 3481 434 
z
" transform="scale(0.015625)"/>
      </defs>
      <use xlink:href="#DejaVuSans-32"/>
      <use xlink:href="#DejaVuSans-37" x="63.623047"/>
      <use xlink:href="#DejaVuSans-25" x="127.246094"/>
      <use xlink:href="#DejaVuSans-20" x="222.265625"/>
      <use xlink:href="#DejaVuSans-70" x="254.052734"/>
      <use xlink:href="#DejaVuSans-65" x="317.529297"/>
      <use xlink:href="#DejaVuSans-61" x="379.052734"/>
      <use xlink:href="#DejaVuSans-6b" x="440.332031"/>
      <use xlink:href="#DejaVuSans-20" x="498.242188"/>
      <use xlink:href="#DejaVuSans-74" x="530.029297"/>
      <use xlink:href="#DejaVuSans-69" x="569.238281"/>
      <use xlink:href="#DejaVuSans-6d" x="597.021484"/>
      <use xlink:href="#DejaVuSans-69" x="694.433594"/>
      <use xlink:href="#DejaVuSans-6e" x="722.216797"/>
      <use xlink:href="#DejaVuSans-67" x="785.595703"/>
     </g>
    </g>
    <g id="line2d_7">
     <path d="M 45.087381 29.976562 
L 55.087381 29.976562 
L 65.087381 29.976562 
" style="fill: none; stroke: #fc4f30; stroke-opacity: 0.7; stroke-width: 3"/>
    </g>
    <g id="text_6">
     <!-- 47% peak timing -->
     <g transform="translate(73.087381 33.476562) scale(0.1 -0.1)">
      <defs>
       <path id="DejaVuSans-34" d="M 2419 4116 
L 825 1625 
L 2419 1625 
L 2419 4116 
z
M 2253 4666 
L 3047 4666 
L 3047 1625 
L 3713 1625 
L 3713 1100 
L 3047 1100 
L 3047 0 
L 2419 0 
L 2419 1100 
L 313 1100 
L 313 1709 
L 2253 4666 
z
" transform="scale(0.015625)"/>
      </defs>
      <use xlink:href="#DejaVuSans-34"/>
      <use xlink:href="#DejaVuSans-37" x="63.623047"/>
      <use xlink:href="#DejaVuSans-25" x="127.246094"/>
      <use xlink:href="#DejaVuSans-20" x="222.265625"/>
      <use xlink:href="#DejaVuSans-70" x="254.052734"/>
      <use xlink:href="#DejaVuSans-65" x="317.529297"/>
      <use xlink:href="#DejaVuSans-61" x="379.052734"/>
      <use xlink:href="#DejaVuSans-6b" x="440.332031"/>
      <use xlink:href="#DejaVuSans-20" x="498.242188"/>
      <use xlink:href="#DejaVuSans-74" x="530.029297"/>
      <use xlink:href="#DejaVuSans-69" x="569.238281"/>
      <use xlink:href="#DejaVuSans-6d" x="597.021484"/>
      <use xlink:href="#DejaVuSans-69" x="694.433594"/>
      <use xlink:href="#DejaVuSans-6e" x="722.216797"/>
      <use xlink:href="#DejaVuSans-67" x="785.595703"/>
     </g>
    </g>
    <g id="line2d_8">
     <path d="M 45.087381 44.654687 
L 55.087381 44.654687 
L 65.087381 44.654687 
" style="fill: none; stroke-dasharray: 11.1,4.8; stroke-dashoffset: 0; stroke: #000000; stroke-opacity: 0.7; stroke-width: 3"/>
    </g>
    <g id="text_7">
     <!-- OpenSim assistance -->
     <g transform="translate(73.087381 48.154687) scale(0.1 -0.1)">
      <defs>
       <path id="DejaVuSans-4f" d="M 2522 4238 
Q 1834 4238 1429 3725 
Q 1025 3213 1025 2328 
Q 1025 1447 1429 934 
Q 1834 422 2522 422 
Q 3209 422 3611 934 
Q 4013 1447 4013 2328 
Q 4013 3213 3611 3725 
Q 3209 4238 2522 4238 
z
M 2522 4750 
Q 3503 4750 4090 4092 
Q 4678 3434 4678 2328 
Q 4678 1225 4090 567 
Q 3503 -91 2522 -91 
Q 1538 -91 948 565 
Q 359 1222 359 2328 
Q 359 3434 948 4092 
Q 1538 4750 2522 4750 
z
" transform="scale(0.015625)"/>
      </defs>
      <use xlink:href="#DejaVuSans-4f"/>
      <use xlink:href="#DejaVuSans-70" x="78.710938"/>
      <use xlink:href="#DejaVuSans-65" x="142.1875"/>
      <use xlink:href="#DejaVuSans-6e" x="203.710938"/>
      <use xlink:href="#DejaVuSans-53" x="267.089844"/>
      <use xlink:href="#DejaVuSans-69" x="330.566406"/>
      <use xlink:href="#DejaVuSans-6d" x="358.349609"/>
      <use xlink:href="#DejaVuSans-20" x="455.761719"/>
      <use xlink:href="#DejaVuSans-61" x="487.548828"/>
      <use xlink:href="#DejaVuSans-73" x="548.828125"/>
      <use xlink:href="#DejaVuSans-73" x="600.927734"/>
      <use xlink:href="#DejaVuSans-69" x="653.027344"/>
      <use xlink:href="#DejaVuSans-73" x="680.810547"/>
      <use xlink:href="#DejaVuSans-74" x="732.910156"/>
      <use xlink:href="#DejaVuSans-61" x="772.119141"/>
      <use xlink:href="#DejaVuSans-6e" x="833.398438"/>
      <use xlink:href="#DejaVuSans-63" x="896.777344"/>
      <use xlink:href="#DejaVuSans-65" x="951.757812"/>
     </g>
    </g>
   </g>
  </g>
 </g>
 <defs>
  <clipPath id="pf6e71a9adf">
   <rect x="24.749375" y="54.234375" width="408.450145" height="197.30202"/>
  </clipPath>
 </defs>
</svg>
